<svg xmlns="http://www.w3.org/2000/svg" viewBox="0 0 1280 400"><defs><style>.cls-1,.cls-36,.cls-55,.cls-59{fill:none;}.cls-1,.cls-10,.cls-15,.cls-16,.cls-19,.cls-33{stroke:#00cfff;}.cls-1,.cls-10,.cls-15,.cls-16,.cls-19,.cls-20,.cls-22,.cls-25,.cls-28,.cls-3,.cls-30,.cls-32,.cls-33,.cls-35,.cls-36,.cls-37,.cls-38,.cls-4,.cls-40,.cls-42,.cls-43,.cls-44,.cls-46,.cls-47,.cls-48,.cls-49,.cls-5,.cls-50,.cls-51,.cls-52,.cls-54,.cls-55,.cls-56,.cls-57,.cls-58,.cls-59,.cls-6,.cls-7,.cls-8,.cls-9{stroke-linecap:round;stroke-linejoin:round;}.cls-1,.cls-10,.cls-25,.cls-28{stroke-width:2px;}.cls-11,.cls-13,.cls-14,.cls-17,.cls-18,.cls-2,.cls-34{fill:#00cfff;}.cls-2,.cls-21,.cls-31,.cls-45,.cls-6,.cls-7{opacity:0.2;}.cls-10,.cls-15,.cls-16,.cls-19,.cls-20,.cls-22,.cls-25,.cls-28,.cls-3,.cls-30,.cls-33,.cls-35,.cls-37,.cls-38,.cls-40,.cls-42,.cls-43,.cls-44,.cls-47,.cls-48,.cls-49,.cls-5,.cls-50,.cls-51,.cls-52,.cls-54,.cls-56,.cls-57,.cls-58,.cls-8,.cls-9{fill:#fff;}.cls-28,.cls-3,.cls-30,.cls-35,.cls-36,.cls-37,.cls-38,.cls-5,.cls-8,.cls-9{stroke:#c5f76e;}.cls-15,.cls-20,.cls-3{stroke-width:2.5px;}.cls-29,.cls-31,.cls-32,.cls-39,.cls-4,.cls-6,.cls-7{fill:#c5f76e;}.cls-32,.cls-4,.cls-46,.cls-6,.cls-7{stroke:#fff;}.cls-4{stroke-width:1.62px;}.cls-17,.cls-24,.cls-4,.cls-53{opacity:0.3;}.cls-19,.cls-5{stroke-width:3px;}.cls-6{stroke-width:1.64px;}.cls-7{stroke-width:1.18px;}.cls-8{stroke-width:1.9px;}.cls-9{stroke-width:1.43px;}.cls-11,.cls-12,.cls-26{opacity:0.1;}.cls-14,.cls-27,.cls-29,.cls-32{opacity:0.25;}.cls-16{stroke-width:2.48px;}.cls-18{opacity:0.15;}.cls-20,.cls-22,.cls-25,.cls-40,.cls-42,.cls-43,.cls-44{stroke:#ffc861;}.cls-21,.cls-23,.cls-24,.cls-26,.cls-27,.cls-41,.cls-46{fill:#ffc861;}.cls-22{stroke-width:1.83px;}.cls-23{opacity:0.5;}.cls-30{stroke-width:1.72px;}.cls-32{stroke-width:1.02px;}.cls-33{stroke-width:2.74px;}.cls-34{opacity:0.36;}.cls-35{stroke-width:3.17px;}.cls-36,.cls-37{stroke-width:2.11px;}.cls-38{stroke-width:2.22px;}.cls-39{opacity:0.57;}.cls-40{stroke-width:2.13px;}.cls-42{stroke-width:1.65px;}.cls-43{stroke-width:1.85px;}.cls-44{stroke-width:0.92px;}.cls-46{stroke-width:2.38px;}.cls-47,.cls-48,.cls-49,.cls-50,.cls-51,.cls-52,.cls-54,.cls-55,.cls-56,.cls-57,.cls-58,.cls-59{stroke:#ff8598;}.cls-47{stroke-width:1.87px;}.cls-48{stroke-width:2.8px;}.cls-49{stroke-width:2.13px;}.cls-50{stroke-width:1.65px;}.cls-51,.cls-55{stroke-width:1.71px;}.cls-52{stroke-width:1.64px;}.cls-53{fill:#ff8598;}.cls-54{stroke-width:1.81px;}.cls-55{opacity:0.97;}.cls-56{stroke-width:1.6px;}.cls-57{stroke-width:2.56px;}.cls-58{stroke-width:3.02px;}.cls-59{stroke-width:1.5px;}</style></defs><title>austinsky</title><g id="Layer_14" data-name="Layer 14"><path class="cls-1" d="M1005,121H991.93a16.75,16.75,0,0,0-16.51-16,15.93,15.93,0,0,0-7,1.6C968,99,962.35,93,955.41,93c-6.76,0-12.33,5.72-13,13.06a16.17,16.17,0,0,0-7.9-2.06A16.77,16.77,0,0,0,918,121H906"/><path class="cls-2" d="M995.93,125a16.75,16.75,0,0,0-16.51-16,15.93,15.93,0,0,0-7,1.6C972,103,966.35,97,959.41,97c-6.76,0-12.33,5.72-13,13.06a16.17,16.17,0,0,0-7.9-2.06A16.77,16.77,0,0,0,922,125"/><path class="cls-1" d="M186,91h13.07a16.75,16.75,0,0,1,16.51-16,15.93,15.93,0,0,1,7,1.6C223,69,228.65,63,235.59,63c6.76,0,12.33,5.72,13,13.06a16.17,16.17,0,0,1,7.9-2.06A16.77,16.77,0,0,1,273,91h12"/><path class="cls-2" d="M195.07,95a16.75,16.75,0,0,1,16.51-16,15.93,15.93,0,0,1,7,1.6C219,73,224.65,67,231.59,67c6.76,0,12.33,5.72,13,13.06a16.17,16.17,0,0,1,7.9-2.06A16.77,16.77,0,0,1,269,95"/><path class="cls-1" d="M382.91,41.44a20.5,20.5,0,0,1,37.55-3.81,20.48,20.48,0,0,1,28,7.93A17,17,0,0,1,477,58c0,.33,0,.67,0,1h11"/><path class="cls-1" d="M1092,64h-12c0-9.94-7.5-18-16.74-18a15.1,15.1,0,0,0-3.63.44C1057.21,38.07,1050,32,1041.41,32a18.88,18.88,0,0,0-16.7,10.63,17.94,17.94,0,0,0-9.33-2.63,18.87,18.87,0,0,0-16.66,10.56A15.14,15.14,0,0,0,988,46c-8.73,0-15.81,7.61-15.81,17,0,.33,0,.67,0,1H962"/><path class="cls-2" d="M1084,67c0-9.94-7.5-18-16.74-18a15.1,15.1,0,0,0-3.63.44C1061.21,41.07,1054,35,1045.41,35a18.88,18.88,0,0,0-16.7,10.63,17.94,17.94,0,0,0-9.33-2.63,18.87,18.87,0,0,0-16.66,10.56A15.14,15.14,0,0,0,992,49c-8.73,0-15.81,7.61-15.81,17,0,.33,0,.67,0,1"/><path class="cls-1" d="M325,68h13.22c.51-7.65,7.78-13.71,16.68-13.71A18.43,18.43,0,0,1,362,55.66c.42-6.51,6.15-11.66,13.16-11.66,6.84,0,12.47,4.9,13.12,11.19a18.68,18.68,0,0,1,8-1.76c9.23,0,16.71,6.52,16.71,14.57H423"/><path class="cls-2" d="M340.22,73c.51-7.65,7.78-13.71,16.68-13.71A18.43,18.43,0,0,1,364,60.66c.42-6.51,6.15-11.66,13.16-11.66,6.84,0,12.47,4.9,13.12,11.19a18.68,18.68,0,0,1,8-1.76c9.23,0,16.71,6.52,16.71,14.57"/><path class="cls-2" d="M465,44a16.92,16.92,0,0,0-11.58,4.56,20.48,20.48,0,0,0-28-7.93,20.5,20.5,0,0,0-37.55,3.81l-2.3,3.7a12.48,12.48,0,0,1,7.63,10,18.68,18.68,0,0,1,8-1.76A17.65,17.65,0,0,1,414.35,62H482c0-.33,0-.67,0-1A17,17,0,0,0,465,44Z"/><path class="cls-2" d="M364.57,53.89a17.53,17.53,0,0,1,2.39.77,11.24,11.24,0,0,1,.3-1.93Z"/><path class="cls-1" d="M793,80h15c.58-8.92,8.85-16,19-16a20.62,20.62,0,0,1,8,1.6,15,15,0,0,1,29.89-.54A20.78,20.78,0,0,1,874,63c10.49,0,19,7.61,19,17h13"/><path class="cls-2" d="M813,83c.58-8.92,8.85-16,19-16a20.62,20.62,0,0,1,8,1.6,15,15,0,0,1,29.89-.54A20.78,20.78,0,0,1,879,66c10.49,0,19,7.61,19,17"/><path class="cls-1" d="M500,101h11.53c2-7.46,9.51-13,18.47-13a20.62,20.62,0,0,1,8,1.6,15,15,0,0,1,29.89-.54A20.78,20.78,0,0,1,577,87c10.49,0,19,5.61,19,15"/><path class="cls-2" d="M516.53,104A19.54,19.54,0,0,1,535,90a20.62,20.62,0,0,1,8,1.6,15,15,0,0,1,29.89-.54A20.78,20.78,0,0,1,582,89c10.49,0,19,4.61,19,14"/></g><g id="Layer_16" data-name="Layer 16"><path class="cls-3" d="M1123.22,68V43.73c0-6.31,46.66-6.31,46.66,0V67.62Z"/><path class="cls-4" d="M1128.48,66.14c0-.12,0-.23,0-.34V46.16c0-5.19,41.41-5.19,41.41,0V65.8Z"/><rect class="cls-5" x="1118.94" y="51.03" width="55.22" height="345.91" rx="4.19"/><rect class="cls-6" x="1123.28" y="54.63" width="48.5" height="340.03" rx="2.26"/><rect class="cls-7" x="1135.16" y="55.22" width="25.2" height="339.45" rx="1.63"/><line class="cls-8" x1="1157.38" y1="86.5" x2="1135.57" y2="86.5"/><line class="cls-8" x1="1135.57" y1="65.14" x2="1157.38" y2="65.14"/><line class="cls-8" x1="1157.38" y1="129.23" x2="1135.57" y2="129.23"/><line class="cls-8" x1="1135.57" y1="107.86" x2="1157.38" y2="107.86"/><line class="cls-8" x1="1157.38" y1="171.95" x2="1135.57" y2="171.95"/><line class="cls-8" x1="1135.57" y1="150.59" x2="1157.38" y2="150.59"/><line class="cls-8" x1="1157.38" y1="214.67" x2="1135.57" y2="214.67"/><line class="cls-8" x1="1135.57" y1="193.31" x2="1157.38" y2="193.31"/><line class="cls-8" x1="1157.38" y1="255.9" x2="1135.57" y2="255.9"/><line class="cls-8" x1="1135.57" y1="234.54" x2="1157.38" y2="234.54"/><line class="cls-8" x1="1157.38" y1="298.62" x2="1135.57" y2="298.62"/><line class="cls-8" x1="1135.57" y1="277.26" x2="1157.38" y2="277.26"/><line class="cls-8" x1="1157.38" y1="341.34" x2="1135.57" y2="341.34"/><line class="cls-8" x1="1135.57" y1="319.98" x2="1157.38" y2="319.98"/><line class="cls-8" x1="1157.38" y1="384.07" x2="1135.57" y2="384.07"/><line class="cls-8" x1="1135.57" y1="362.71" x2="1157.38" y2="362.71"/><line class="cls-9" x1="1129.96" y1="88.59" x2="1122.08" y2="88.59"/><line class="cls-9" x1="1122.08" y1="67.23" x2="1129.96" y2="67.23"/><line class="cls-9" x1="1129.96" y1="131.32" x2="1122.08" y2="131.32"/><line class="cls-9" x1="1122.08" y1="109.96" x2="1129.96" y2="109.96"/><line class="cls-9" x1="1129.96" y1="174.04" x2="1122.08" y2="174.04"/><line class="cls-9" x1="1122.08" y1="152.68" x2="1129.96" y2="152.68"/><line class="cls-9" x1="1129.96" y1="216.76" x2="1122.08" y2="216.76"/><line class="cls-9" x1="1122.08" y1="195.4" x2="1129.96" y2="195.4"/><line class="cls-9" x1="1129.96" y1="257.99" x2="1122.08" y2="257.99"/><line class="cls-9" x1="1122.08" y1="236.63" x2="1129.96" y2="236.63"/><line class="cls-9" x1="1129.96" y1="300.71" x2="1122.08" y2="300.71"/><line class="cls-9" x1="1122.08" y1="279.35" x2="1129.96" y2="279.35"/><line class="cls-9" x1="1129.96" y1="343.44" x2="1122.08" y2="343.44"/><line class="cls-9" x1="1122.08" y1="322.07" x2="1129.96" y2="322.07"/><line class="cls-9" x1="1129.96" y1="386.16" x2="1122.08" y2="386.16"/><line class="cls-9" x1="1122.08" y1="364.8" x2="1129.96" y2="364.8"/><line class="cls-9" x1="1170.86" y1="88.59" x2="1162.98" y2="88.59"/><line class="cls-9" x1="1162.98" y1="67.23" x2="1170.86" y2="67.23"/><line class="cls-9" x1="1170.86" y1="131.32" x2="1162.98" y2="131.32"/><line class="cls-9" x1="1162.98" y1="109.96" x2="1170.86" y2="109.96"/><line class="cls-9" x1="1170.86" y1="174.04" x2="1162.98" y2="174.04"/><line class="cls-9" x1="1162.98" y1="152.68" x2="1170.86" y2="152.68"/><line class="cls-9" x1="1170.86" y1="216.76" x2="1162.98" y2="216.76"/><line class="cls-9" x1="1162.98" y1="195.4" x2="1170.86" y2="195.4"/><line class="cls-9" x1="1170.86" y1="257.99" x2="1162.98" y2="257.99"/><line class="cls-9" x1="1162.98" y1="236.63" x2="1170.86" y2="236.63"/><line class="cls-9" x1="1170.86" y1="300.71" x2="1162.98" y2="300.71"/><line class="cls-9" x1="1162.98" y1="279.35" x2="1170.86" y2="279.35"/><line class="cls-9" x1="1170.86" y1="343.44" x2="1162.98" y2="343.44"/><line class="cls-9" x1="1162.98" y1="322.07" x2="1170.86" y2="322.07"/><line class="cls-9" x1="1170.86" y1="386.16" x2="1162.98" y2="386.16"/><line class="cls-9" x1="1162.98" y1="364.8" x2="1170.86" y2="364.8"/></g><g id="Layer_6" data-name="Layer 6"><path class="cls-10" d="M723.33,396.94h46.34v-261l-45-18.19a1,1,0,0,0-1.38.92Z"/><polygon class="cls-11" points="729 396.94 769.67 396.94 769.67 142.7 729 124.44 729 396.94"/><path class="cls-10" d="M779.57,135.92v261h46.34V118.65a1,1,0,0,0-1.37-.92Z"/><polygon class="cls-11" points="781.58 141.76 781.58 396.94 822 396.94 822 123.44 781.58 141.76"/><path class="cls-10" d="M783.79,103.11V396.94h27.6V92.46a1,1,0,0,0-1.41-.91Z"/><path class="cls-10" d="M737.86,396.94h27.6V103.11L739.27,91.55a1,1,0,0,0-1.41.91Z"/><g class="cls-12"><path class="cls-13" d="M785.35,107.9v289h26V97.42a1,1,0,0,0-1.33-.9Z"/><path class="cls-13" d="M742,396.94h26v-289L743.32,96.52a1,1,0,0,0-1.32.9Z"/></g><path class="cls-10" d="M774.16,72.75l-8.64-16.26a1,1,0,0,0-1.88.47V326.64h21V57a1,1,0,0,0-1.88-.47Z"/><path class="cls-14" d="M774.84,80.58,767.58,67a.83.83,0,0,0-1.58.45V326.64h17.67V67.4a.83.83,0,0,0-1.58-.45Z"/><polygon class="cls-15" points="774.62 95.79 751.46 72.18 751.46 326.64 770.2 326.64 779.05 326.64 797.79 326.64 797.79 72.18 774.62 95.79"/><path class="cls-14" d="M772.83,104.64l-16.06-16.9a.77.77,0,0,0-1.32.51V325.89a.76.76,0,0,0,.76.75h38a.76.76,0,0,0,.76-.75V86.19a.76.76,0,0,0-1.29-.54l-19.8,19A.77.77,0,0,1,772.83,104.64Z"/><rect class="cls-16" x="735.26" y="117.94" width="78.74" height="279"/><rect class="cls-17" x="742" y="124.44" width="69" height="272.5"/><rect class="cls-15" x="757.47" y="118.94" width="35.2" height="278"/><line class="cls-15" x1="757.47" y1="138.94" x2="792.67" y2="138.94"/><line class="cls-15" x1="757.47" y1="158.94" x2="792.67" y2="158.94"/><line class="cls-15" x1="757.47" y1="178.94" x2="792.67" y2="178.94"/><line class="cls-15" x1="757.47" y1="198.94" x2="792.67" y2="198.94"/><line class="cls-15" x1="757.47" y1="218.94" x2="792.67" y2="218.94"/><line class="cls-15" x1="757.47" y1="238.94" x2="792.67" y2="238.94"/><line class="cls-15" x1="757.47" y1="258.94" x2="792.67" y2="258.94"/><line class="cls-15" x1="757.47" y1="278.94" x2="792.67" y2="278.94"/><line class="cls-15" x1="757.47" y1="298.94" x2="792.67" y2="298.94"/><line class="cls-15" x1="757.47" y1="318.94" x2="792.67" y2="318.94"/><line class="cls-15" x1="757.47" y1="338.94" x2="792.67" y2="338.94"/><line class="cls-15" x1="757.47" y1="358.94" x2="792.67" y2="358.94"/><line class="cls-15" x1="757.47" y1="378.94" x2="792.67" y2="378.94"/><rect class="cls-18" x="764" y="124.94" width="25.5" height="270"/><circle class="cls-10" cx="775.04" cy="114.8" r="12.19"/><circle class="cls-11" cx="777.77" cy="117.53" r="11.23"/></g><g id="Layer_3" data-name="Layer 3"><g id="skyone"><path class="cls-19" d="M204,397.5H137a2,2,0,0,1-2-2V112.05a2,2,0,0,1,.88-1.66l67-45.56A2,2,0,0,1,206,66.48v329A2,2,0,0,1,204,397.5Z"/><polygon class="cls-18" points="206 397.5 142 397.5 142 117.59 206 75 206 397.5"/><rect class="cls-10" x="135.33" y="137.5" width="42.67" height="19.48"/><rect class="cls-10" x="135.33" y="180.7" width="42.67" height="19.48"/><rect class="cls-10" x="135.33" y="223.89" width="42.67" height="19.48"/><rect class="cls-10" x="135.33" y="267.09" width="42.67" height="19.48"/><rect class="cls-10" x="135.33" y="310.29" width="42.67" height="19.48"/><rect class="cls-10" x="135.33" y="353.48" width="42.67" height="19.48"/><rect class="cls-17" x="140" y="137.5" width="38" height="19.48"/><rect class="cls-17" x="140" y="180.7" width="38" height="19.48"/><rect class="cls-17" x="140" y="223.89" width="38" height="19.48"/><rect class="cls-17" x="140" y="267.09" width="38" height="19.48"/><rect class="cls-17" x="140" y="310.29" width="38" height="19.48"/><rect class="cls-17" x="140" y="353.48" width="38" height="19.48"/></g><path class="cls-20" d="M383.52,216V183.9a1.83,1.83,0,0,0-1.83-1.82H360.48a1.82,1.82,0,0,1-1.82-1.83V148.58a1.83,1.83,0,0,0-1.83-1.83H333.19a1.82,1.82,0,0,1-1.82-1.83V110.83a1.83,1.83,0,0,0-1.83-1.83H295a1.83,1.83,0,0,0-1.83,1.83v34.09a1.83,1.83,0,0,1-1.83,1.83H268.69a1.83,1.83,0,0,0-1.83,1.83v31.67a1.83,1.83,0,0,1-1.83,1.83h-21.2A1.83,1.83,0,0,0,242,183.9V216a1.83,1.83,0,0,1-1.83,1.83h-25.8a1.83,1.83,0,0,0-1.83,1.83V392.17a1.83,1.83,0,0,0,1.83,1.83H412.1a1.82,1.82,0,0,0,1.82-1.83V219.62a1.82,1.82,0,0,0-1.82-1.83H385.34A1.82,1.82,0,0,1,383.52,216Z"/><path class="cls-21" d="M384.44,219.26V187a1.74,1.74,0,0,0-1.75-1.74H361.48a1.73,1.73,0,0,1-1.75-1.73V151.65a1.75,1.75,0,0,0-1.75-1.74H335.35a1.73,1.73,0,0,1-1.75-1.73l-1.82-28.77a1.73,1.73,0,0,0-1.75-1.73H300.62a1.73,1.73,0,0,0-1.75,1.73v32.38a1.74,1.74,0,0,1-1.75,1.74H274.51a1.73,1.73,0,0,0-1.75,1.73v31.88a1.74,1.74,0,0,1-1.75,1.74H249.8a1.73,1.73,0,0,0-1.75,1.73v32.25a1.75,1.75,0,0,1-1.75,1.74H221.6a1.73,1.73,0,0,0-1.75,1.73V390.22A1.73,1.73,0,0,0,221.6,392H411.8a1.73,1.73,0,0,0,1.75-1.73V222.73A1.74,1.74,0,0,0,411.8,221H386.19A1.73,1.73,0,0,1,384.44,219.26Z"/><rect class="cls-22" x="304.58" y="118.97" width="16.19" height="18.54" rx="1.83"/><rect class="cls-22" x="304.58" y="118.05" width="16.19" height="18.54" rx="1.83"/><rect class="cls-23" x="307.98" y="122.73" width="11.22" height="12.84" rx="1.27"/><rect class="cls-22" x="304.58" y="231.32" width="16.19" height="18.54" rx="1.83"/><rect class="cls-22" x="304.58" y="230.41" width="16.19" height="18.54" rx="1.83"/><rect class="cls-23" x="307.98" y="235.08" width="11.22" height="12.84" rx="1.27"/><rect class="cls-22" x="331.99" y="231.32" width="16.19" height="18.54" rx="1.83"/><rect class="cls-22" x="331.99" y="230.41" width="16.19" height="18.54" rx="1.83"/><rect class="cls-23" x="335.39" y="235.08" width="11.22" height="12.84" rx="1.27"/><rect class="cls-22" x="360.31" y="231.32" width="16.19" height="18.54" rx="1.83"/><rect class="cls-22" x="360.31" y="230.41" width="16.19" height="18.54" rx="1.83"/><rect class="cls-23" x="363.7" y="235.08" width="11.22" height="12.84" rx="1.27"/><rect class="cls-22" x="387.71" y="231.32" width="16.19" height="18.54" rx="1.83"/><rect class="cls-22" x="387.71" y="230.41" width="16.19" height="18.54" rx="1.83"/><rect class="cls-23" x="391.11" y="235.08" width="11.22" height="12.84" rx="1.27"/><rect class="cls-22" x="277.18" y="231.32" width="16.19" height="18.54" rx="1.83"/><rect class="cls-22" x="277.18" y="230.41" width="16.19" height="18.54" rx="1.83"/><rect class="cls-23" x="280.58" y="235.08" width="11.22" height="12.84" rx="1.27"/><rect class="cls-22" x="249.78" y="231.32" width="16.19" height="18.54" rx="1.83"/><rect class="cls-22" x="249.78" y="230.41" width="16.19" height="18.54" rx="1.83"/><rect class="cls-23" x="253.18" y="235.08" width="11.22" height="12.84" rx="1.27"/><rect class="cls-22" x="222.37" y="231.32" width="16.19" height="18.54" rx="1.83"/><rect class="cls-22" x="222.37" y="230.41" width="16.19" height="18.54" rx="1.83"/><rect class="cls-23" x="225.77" y="235.08" width="11.22" height="12.84" rx="1.27"/><rect class="cls-22" x="304.58" y="267.86" width="16.19" height="18.54" rx="1.83"/><rect class="cls-22" x="304.58" y="266.95" width="16.19" height="18.54" rx="1.83"/><rect class="cls-22" x="331.99" y="267.86" width="16.19" height="18.54" rx="1.83"/><rect class="cls-22" x="331.99" y="266.95" width="16.19" height="18.54" rx="1.83"/><rect class="cls-22" x="360.31" y="267.86" width="16.19" height="18.54" rx="1.83"/><rect class="cls-22" x="360.31" y="266.95" width="16.19" height="18.54" rx="1.83"/><rect class="cls-22" x="387.71" y="267.86" width="16.19" height="18.54" rx="1.83"/><rect class="cls-22" x="387.71" y="266.95" width="16.19" height="18.54" rx="1.83"/><rect class="cls-22" x="277.18" y="267.86" width="16.19" height="18.54" rx="1.83"/><rect class="cls-22" x="277.18" y="266.95" width="16.19" height="18.54" rx="1.83"/><rect class="cls-22" x="249.78" y="267.86" width="16.19" height="18.54" rx="1.83"/><rect class="cls-22" x="249.78" y="266.95" width="16.19" height="18.54" rx="1.83"/><rect class="cls-22" x="222.37" y="267.86" width="16.19" height="18.54" rx="1.83"/><rect class="cls-22" x="222.37" y="266.95" width="16.19" height="18.54" rx="1.83"/><rect class="cls-22" x="304.58" y="306.23" width="16.19" height="18.54" rx="1.83"/><rect class="cls-22" x="304.58" y="305.31" width="16.19" height="18.54" rx="1.83"/><rect class="cls-22" x="331.99" y="306.23" width="16.19" height="18.54" rx="1.83"/><rect class="cls-22" x="331.99" y="305.31" width="16.19" height="18.54" rx="1.83"/><rect class="cls-22" x="360.31" y="306.23" width="16.19" height="18.54" rx="1.83"/><rect class="cls-22" x="360.31" y="305.31" width="16.19" height="18.54" rx="1.83"/><rect class="cls-22" x="387.71" y="306.23" width="16.19" height="18.54" rx="1.83"/><rect class="cls-22" x="387.71" y="305.31" width="16.19" height="18.54" rx="1.83"/><rect class="cls-22" x="277.18" y="306.23" width="16.19" height="18.54" rx="1.83"/><rect class="cls-22" x="277.18" y="305.31" width="16.19" height="18.54" rx="1.83"/><rect class="cls-22" x="249.78" y="306.23" width="16.19" height="18.54" rx="1.83"/><rect class="cls-22" x="249.78" y="305.31" width="16.19" height="18.54" rx="1.83"/><rect class="cls-22" x="222.37" y="306.23" width="16.19" height="18.54" rx="1.83"/><rect class="cls-22" x="222.37" y="305.31" width="16.19" height="18.54" rx="1.83"/><rect class="cls-22" x="249.78" y="193.87" width="16.19" height="18.54" rx="1.83"/><rect class="cls-22" x="249.78" y="192.96" width="16.19" height="18.54" rx="1.83"/><rect class="cls-23" x="253.18" y="197.63" width="11.22" height="12.84" rx="1.27"/><rect class="cls-22" x="277.18" y="193.87" width="16.19" height="18.54" rx="1.83"/><rect class="cls-22" x="277.18" y="192.96" width="16.19" height="18.54" rx="1.83"/><rect class="cls-23" x="280.58" y="197.63" width="11.22" height="12.84" rx="1.27"/><rect class="cls-22" x="304.58" y="193.87" width="16.19" height="18.54" rx="1.83"/><rect class="cls-22" x="304.58" y="192.96" width="16.19" height="18.54" rx="1.83"/><rect class="cls-23" x="307.98" y="197.63" width="11.22" height="12.84" rx="1.27"/><rect class="cls-22" x="331.99" y="193.87" width="16.19" height="18.54" rx="1.83"/><rect class="cls-22" x="331.99" y="192.96" width="16.19" height="18.54" rx="1.83"/><rect class="cls-23" x="335.39" y="197.63" width="11.22" height="12.84" rx="1.27"/><rect class="cls-22" x="360.31" y="193.87" width="16.19" height="18.54" rx="1.83"/><rect class="cls-22" x="360.31" y="192.96" width="16.19" height="18.54" rx="1.83"/><rect class="cls-23" x="363.7" y="197.63" width="11.22" height="12.84" rx="1.27"/><rect class="cls-22" x="304.58" y="157.33" width="16.19" height="18.54" rx="1.83"/><rect class="cls-22" x="304.58" y="156.42" width="16.19" height="18.54" rx="1.83"/><rect class="cls-23" x="307.98" y="161.09" width="11.22" height="12.84" rx="1.27"/><rect class="cls-22" x="277.18" y="157.33" width="16.19" height="18.54" rx="1.83"/><rect class="cls-22" x="277.18" y="156.42" width="16.19" height="18.54" rx="1.83"/><rect class="cls-23" x="280.58" y="161.09" width="11.22" height="12.84" rx="1.27"/><rect class="cls-22" x="332.9" y="157.33" width="16.19" height="18.54" rx="1.83"/><rect class="cls-22" x="332.9" y="156.42" width="16.19" height="18.54" rx="1.83"/><rect class="cls-23" x="336.3" y="161.09" width="11.22" height="12.84" rx="1.27"/><rect class="cls-22" x="303.67" y="343.68" width="16.19" height="18.54" rx="1.83"/><rect class="cls-22" x="303.67" y="342.77" width="16.19" height="18.54" rx="1.83"/><rect class="cls-22" x="331.07" y="343.68" width="16.19" height="18.54" rx="1.83"/><rect class="cls-22" x="331.07" y="342.77" width="16.19" height="18.54" rx="1.83"/><rect class="cls-22" x="359.39" y="343.68" width="16.19" height="18.54" rx="1.83"/><rect class="cls-22" x="359.39" y="342.77" width="16.19" height="18.54" rx="1.83"/><rect class="cls-22" x="386.8" y="343.68" width="16.19" height="18.54" rx="1.83"/><rect class="cls-22" x="386.8" y="342.77" width="16.19" height="18.54" rx="1.83"/><rect class="cls-22" x="276.27" y="343.68" width="16.19" height="18.54" rx="1.83"/><rect class="cls-22" x="276.27" y="342.77" width="16.19" height="18.54" rx="1.83"/><rect class="cls-22" x="248.86" y="343.68" width="16.19" height="18.54" rx="1.83"/><rect class="cls-22" x="248.86" y="342.77" width="16.19" height="18.54" rx="1.83"/><rect class="cls-22" x="221.46" y="343.68" width="16.19" height="18.54" rx="1.83"/><rect class="cls-22" x="221.46" y="342.77" width="16.19" height="18.54" rx="1.83"/><rect class="cls-23" x="307.98" y="271.62" width="11.22" height="12.84" rx="1.27"/><rect class="cls-23" x="335.39" y="271.62" width="11.22" height="12.84" rx="1.27"/><rect class="cls-23" x="363.7" y="271.62" width="11.22" height="12.84" rx="1.27"/><rect class="cls-23" x="391.11" y="271.62" width="11.22" height="12.84" rx="1.27"/><rect class="cls-23" x="280.58" y="271.62" width="11.22" height="12.84" rx="1.27"/><rect class="cls-23" x="253.18" y="271.62" width="11.22" height="12.84" rx="1.27"/><rect class="cls-23" x="225.77" y="271.62" width="11.22" height="12.84" rx="1.27"/><rect class="cls-23" x="307.98" y="310.9" width="11.22" height="12.84" rx="1.27"/><rect class="cls-23" x="335.39" y="310.9" width="11.22" height="12.84" rx="1.27"/><rect class="cls-23" x="363.7" y="310.9" width="11.22" height="12.84" rx="1.27"/><rect class="cls-24" x="391.11" y="310.9" width="11.22" height="12.84" rx="1.27"/><rect class="cls-23" x="280.58" y="310.9" width="11.22" height="12.84" rx="1.27"/><rect class="cls-24" x="253.18" y="310.9" width="11.22" height="12.84" rx="1.27"/><rect class="cls-24" x="225.77" y="310.9" width="11.22" height="12.84" rx="1.27"/><rect class="cls-24" x="307.98" y="347.44" width="11.22" height="12.84" rx="1.27"/><rect class="cls-24" x="335.39" y="347.44" width="11.22" height="12.84" rx="1.27"/><rect class="cls-24" x="363.7" y="347.44" width="11.22" height="12.84" rx="1.27"/><rect class="cls-24" x="391.11" y="347.44" width="11.22" height="12.84" rx="1.27"/><rect class="cls-24" x="280.58" y="347.44" width="11.22" height="12.84" rx="1.27"/><rect class="cls-24" x="253.18" y="347.44" width="11.22" height="12.84" rx="1.27"/><rect class="cls-24" x="225.77" y="347.44" width="11.22" height="12.84" rx="1.27"/></g><g id="Layer_7" data-name="Layer 7"><rect class="cls-25" x="918.42" y="196.28" width="194.33" height="200.66" rx="1"/><rect class="cls-26" x="923" y="200.44" width="188.75" height="196.5" rx="0.98"/><rect class="cls-26" x="923" y="200.44" width="188.75" height="196.5" rx="0.98"/><rect class="cls-25" x="931.62" y="173.57" width="167.93" height="223.37" rx="1"/><rect class="cls-26" x="938" y="179.44" width="161.55" height="217.5" rx="0.97"/><path class="cls-20" d="M1014.82,129.35l-43,20.39a2,2,0,0,0-1.15,1.81V364.94a2,2,0,0,0,2,2h86a2,2,0,0,0,2-2V151.55a2,2,0,0,0-1.14-1.81l-43-20.39A2,2,0,0,0,1014.82,129.35Z"/><path class="cls-20" d="M1014.82,129.35l-43,20.39a2,2,0,0,0-1.15,1.81v4.39a2,2,0,0,0,2,2h86a2,2,0,0,0,2-2v-4.39a2,2,0,0,0-1.14-1.81l-43-20.39A2,2,0,0,0,1014.82,129.35Z"/><path class="cls-27" d="M1017,136.63l-40,17.71a1.93,1.93,0,0,0-1.06,1.74V364a1.89,1.89,0,0,0,1.86,1.93h80a1.89,1.89,0,0,0,1.85-1.93V157.07a1.94,1.94,0,0,0-1.06-1.75l-40-18.69A1.78,1.78,0,0,0,1017,136.63Z"/><rect class="cls-20" x="969.58" y="159.29" width="92.19" height="236.68"/><rect class="cls-25" x="998.66" y="175.96" width="34.45" height="208.4" rx="1"/><rect class="cls-25" x="997.66" y="174.96" width="34.45" height="208.4" rx="1"/><rect class="cls-27" x="1004" y="180.44" width="28.77" height="202.84" rx="0.9"/><rect class="cls-25" x="942.47" y="193.55" width="19.21" height="19.9" rx="2"/><rect class="cls-25" x="942.47" y="236.67" width="19.21" height="19.9" rx="2"/><rect class="cls-25" x="942.47" y="279.79" width="19.21" height="19.9" rx="2"/><rect class="cls-25" x="942.47" y="322.91" width="19.21" height="19.9" rx="2"/><rect class="cls-25" x="942.47" y="366.02" width="19.21" height="19.9"/><rect class="cls-25" x="942.47" y="192.55" width="19.21" height="19.9" rx="2"/><rect class="cls-25" x="942.47" y="235.67" width="19.21" height="19.9" rx="2"/><rect class="cls-25" x="942.47" y="278.79" width="19.21" height="19.9" rx="2"/><rect class="cls-25" x="942.47" y="321.91" width="19.21" height="19.9" rx="2"/><rect class="cls-25" x="942.47" y="365.02" width="19.21" height="19.9"/><rect class="cls-27" x="946" y="196.44" width="15.67" height="17.01" rx="1.67"/><rect class="cls-27" x="946" y="239.44" width="15.67" height="17.01" rx="1.67"/><rect class="cls-27" x="946" y="282.44" width="15.67" height="17.01" rx="1.67"/><rect class="cls-27" x="946" y="325.44" width="15.67" height="17.01" rx="1.67"/><rect class="cls-27" x="946" y="369.44" width="15.67" height="17.01" rx="1.67"/><rect class="cls-25" x="1070.49" y="193.55" width="19.21" height="19.9" rx="2"/><rect class="cls-25" x="1070.49" y="236.67" width="19.21" height="19.9" rx="2"/><rect class="cls-25" x="1070.49" y="279.79" width="19.21" height="19.9" rx="2"/><rect class="cls-25" x="1070.49" y="322.91" width="19.21" height="19.9" rx="2"/><rect class="cls-25" x="1070.49" y="366.02" width="19.21" height="19.9"/><rect class="cls-25" x="1070.49" y="192.55" width="19.21" height="19.9" rx="2"/><rect class="cls-25" x="1070.49" y="235.67" width="19.21" height="19.9" rx="2"/><rect class="cls-25" x="1070.49" y="278.79" width="19.21" height="19.9" rx="2"/><rect class="cls-25" x="1070.49" y="321.91" width="19.21" height="19.9" rx="2"/><rect class="cls-25" x="1070.49" y="365.02" width="19.21" height="19.9"/><rect class="cls-27" x="1074" y="196.44" width="15.67" height="17.01" rx="1.67"/><rect class="cls-27" x="1074" y="239.44" width="15.67" height="17.01" rx="1.67"/><rect class="cls-27" x="1074" y="282.44" width="15.67" height="17.01" rx="1.67"/><rect class="cls-27" x="1074" y="325.44" width="15.67" height="17.01" rx="1.67"/><rect class="cls-27" x="1074" y="369.44" width="15.67" height="17.01" rx="1.67"/></g><g id="Layer_17" data-name="Layer 17"><rect class="cls-28" x="824.06" y="221" width="87.81" height="14.57"/><rect class="cls-28" x="816.94" y="234.56" width="102.06" height="163.9"/><polyline class="cls-29" points="865.28 235.57 919 235.57 919 399.47 865.28 399.47"/><path class="cls-30" d="M906.88,261.85H827.41c-2.09,0-3.79-1.31-3.79-2.93s1.7-2.92,3.79-2.92h79.47c2.1,0,3.79,1.31,3.79,2.92S909,261.85,906.88,261.85Z"/><path class="cls-30" d="M906.88,281.8H827.41c-2.09,0-3.79-1.31-3.79-2.93s1.7-2.92,3.79-2.92h79.47c2.1,0,3.79,1.31,3.79,2.92S909,281.8,906.88,281.8Z"/><path class="cls-30" d="M906.88,301.75H827.41c-2.09,0-3.79-1.31-3.79-2.93s1.7-2.92,3.79-2.92h79.47c2.1,0,3.79,1.31,3.79,2.92S909,301.75,906.88,301.75Z"/><path class="cls-30" d="M906.88,321.7H827.41c-2.09,0-3.79-1.31-3.79-2.93s1.7-2.92,3.79-2.92h79.47c2.1,0,3.79,1.31,3.79,2.92S909,321.7,906.88,321.7Z"/><line class="cls-30" x1="906.88" y1="338.72" x2="827.41" y2="338.72"/><path class="cls-30" d="M906.88,341.64H827.41c-2.09,0-3.79-1.31-3.79-2.92s1.7-2.93,3.79-2.93h79.47c2.1,0,3.79,1.31,3.79,2.93S909,341.64,906.88,341.64Z"/><line class="cls-30" x1="906.88" y1="358.67" x2="827.41" y2="358.67"/><path class="cls-30" d="M906.88,361.59H827.41c-2.09,0-3.79-1.31-3.79-2.92s1.7-2.93,3.79-2.93h79.47c2.1,0,3.79,1.31,3.79,2.93S909,361.59,906.88,361.59Z"/><line class="cls-30" x1="906.88" y1="378.62" x2="827.41" y2="378.62"/><path class="cls-30" d="M906.88,381.54H827.41c-2.09,0-3.79-1.31-3.79-2.92s1.7-2.93,3.79-2.93h79.47c2.1,0,3.79,1.31,3.79,2.93S909,381.54,906.88,381.54Z"/><path class="cls-28" d="M906.88,260.84H827.41c-2.09,0-3.79-1.31-3.79-2.92s1.7-2.93,3.79-2.93h79.47c2.1,0,3.79,1.31,3.79,2.93S909,260.84,906.88,260.84Z"/><path class="cls-28" d="M906.88,280.79H827.41c-2.09,0-3.79-1.31-3.79-2.93s1.7-2.92,3.79-2.92h79.47c2.1,0,3.79,1.31,3.79,2.92S909,280.79,906.88,280.79Z"/><path class="cls-28" d="M906.88,300.74H827.41c-2.09,0-3.79-1.31-3.79-2.93s1.7-2.92,3.79-2.92h79.47c2.1,0,3.79,1.31,3.79,2.92S909,300.74,906.88,300.74Z"/><path class="cls-28" d="M906.88,320.69H827.41c-2.09,0-3.79-1.31-3.79-2.93s1.7-2.92,3.79-2.92h79.47c2.1,0,3.79,1.31,3.79,2.92S909,320.69,906.88,320.69Z"/><line class="cls-28" x1="906.88" y1="337.71" x2="827.41" y2="337.71"/><path class="cls-28" d="M906.88,340.64H827.41c-2.09,0-3.79-1.31-3.79-2.93s1.7-2.92,3.79-2.92h79.47c2.1,0,3.79,1.31,3.79,2.92S909,340.64,906.88,340.64Z"/><line class="cls-28" x1="906.88" y1="357.66" x2="827.41" y2="357.66"/><path class="cls-28" d="M906.88,360.58H827.41c-2.09,0-3.79-1.31-3.79-2.92s1.7-2.93,3.79-2.93h79.47c2.1,0,3.79,1.31,3.79,2.93S909,360.58,906.88,360.58Z"/><line class="cls-28" x1="906.88" y1="377.61" x2="827.41" y2="377.61"/><path class="cls-28" d="M906.88,380.53H827.41c-2.09,0-3.79-1.31-3.79-2.92s1.7-2.93,3.79-2.93h79.47c2.1,0,3.79,1.31,3.79,2.93S909,380.53,906.88,380.53Z"/><rect class="cls-31" x="824.06" y="221" width="87.81" height="14.57"/><polyline class="cls-32" points="866.33 235.57 911.87 235.57 911.87 221 866.33 221"/></g><g id="Layer_13" data-name="Layer 13"><polygon class="cls-33" points="1117.39 315.04 1117.39 289.82 1011.51 289.82 1011.51 313.8 922.2 313.8 922.2 341.25 862.2 341.25 862.2 399.5 1117.39 399.5 1117.39 315.04"/><rect class="cls-33" x="1021.02" y="303.48" width="10.58" height="8.62"/><rect class="cls-33" x="1021.02" y="328.95" width="10.58" height="8.62"/><rect class="cls-33" x="1021.02" y="354.43" width="10.58" height="8.62"/><rect class="cls-33" x="1058" y="303.48" width="10.58" height="8.62"/><rect class="cls-33" x="1058" y="328.95" width="10.58" height="8.62"/><rect class="cls-33" x="1058" y="354.43" width="10.58" height="8.62"/><rect class="cls-33" x="1094.97" y="303.48" width="10.58" height="8.62"/><rect class="cls-33" x="1094.97" y="328.95" width="10.58" height="8.62"/><rect class="cls-33" x="1094.97" y="354.43" width="10.58" height="8.62"/><rect class="cls-33" x="932.3" y="328.95" width="10.58" height="8.62"/><rect class="cls-33" x="932.3" y="354.43" width="10.58" height="8.62"/><rect class="cls-33" x="960.18" y="328.95" width="10.58" height="8.62"/><rect class="cls-33" x="960.18" y="354.43" width="10.58" height="8.62"/><rect class="cls-33" x="988.05" y="328.95" width="10.58" height="8.62"/><rect class="cls-33" x="988.05" y="354.43" width="10.58" height="8.62"/><rect class="cls-33" x="1021.02" y="381.85" width="10.58" height="8.62"/><rect class="cls-33" x="1058" y="381.85" width="10.58" height="8.62"/><rect class="cls-33" x="1094.97" y="381.85" width="10.58" height="8.62"/><rect class="cls-33" x="932.3" y="381.85" width="10.58" height="8.62"/><rect class="cls-34" x="936" y="328.95" width="6.88" height="8.62"/><rect class="cls-34" x="936" y="354.43" width="6.88" height="8.62"/><rect class="cls-34" x="936" y="381.85" width="6.88" height="8.62"/><rect class="cls-33" x="960.18" y="381.85" width="10.58" height="8.62"/><rect class="cls-34" x="964" y="328.95" width="6.88" height="8.62"/><rect class="cls-34" x="964" y="354.43" width="6.88" height="8.62"/><rect class="cls-34" x="964" y="381.85" width="6.88" height="8.62"/><rect class="cls-33" x="875.3" y="354.43" width="10.58" height="8.62"/><rect class="cls-33" x="903.18" y="354.43" width="10.58" height="8.62"/><rect class="cls-33" x="875.3" y="381.85" width="10.58" height="8.62"/><rect class="cls-34" x="879" y="354.43" width="6.88" height="8.62"/><rect class="cls-34" x="879" y="381.85" width="6.88" height="8.62"/><rect class="cls-33" x="903.18" y="381.85" width="10.58" height="8.62"/><rect class="cls-34" x="907" y="354.43" width="6.88" height="8.62"/><rect class="cls-34" x="907" y="381.85" width="6.88" height="8.62"/><rect class="cls-33" x="988.05" y="381.85" width="10.58" height="8.62"/><rect class="cls-34" x="992" y="328.95" width="6.88" height="8.62"/><rect class="cls-34" x="992" y="354.43" width="6.88" height="8.62"/><rect class="cls-34" x="992" y="381.85" width="6.88" height="8.62"/><rect class="cls-34" x="1025" y="328.95" width="6.88" height="8.62"/><rect class="cls-34" x="1025" y="354.43" width="6.88" height="8.62"/><rect class="cls-34" x="1025" y="381.85" width="6.88" height="8.62"/><rect class="cls-34" x="1062" y="328.95" width="6.88" height="8.62"/><rect class="cls-34" x="1062" y="354.43" width="6.88" height="8.62"/><rect class="cls-34" x="1062" y="381.85" width="6.88" height="8.62"/><rect class="cls-34" x="1099" y="328.95" width="6.88" height="8.62"/><rect class="cls-34" x="1025" y="302.95" width="6.88" height="8.62"/><rect class="cls-34" x="1062" y="302.95" width="6.88" height="8.62"/><rect class="cls-34" x="1099" y="302.95" width="6.88" height="8.62"/><rect class="cls-34" x="1099" y="354.43" width="6.88" height="8.62"/><rect class="cls-34" x="1099" y="381.85" width="6.88" height="8.62"/></g><g id="Layer_8" data-name="Layer 8"><polygon class="cls-35" points="526.73 200.12 526.73 167.23 517.37 167.23 517.37 135.27 500.96 135.27 476.65 97 452.35 135.27 435.94 135.27 435.94 167.23 426.57 167.23 426.57 200.12 421.43 200.12 421.43 397.5 531.88 397.5 531.88 200.12 526.73 200.12"/><path class="cls-31" d="M525.17,202V171.69a1,1,0,0,0-1-1h-6.6a1,1,0,0,1-1-1.05V140.21a1,1,0,0,0-1-1.05H501.91a1,1,0,0,1-.87-.5l-21.3-32.59a1,1,0,0,0-1.75,0L456.7,140.76a1,1,0,0,1-.88.5H444.37a1,1,0,0,0-1,1v30.45a1,1,0,0,1-1,1h-6.61a1,1,0,0,0-1,1V202a1,1,0,0,1-1,1H431a1,1,0,0,0-1,1V396.46a1,1,0,0,0,1,1H528.9a1,1,0,0,0,1-1V204.1a1,1,0,0,0-1-1h-2.71A1,1,0,0,1,525.17,202Z"/><polyline class="cls-36" points="497.94 170.03 476.65 136.52 455.37 170.03"/><polyline class="cls-36" points="497.94 201.99 476.65 168.47 455.37 201.99"/><line class="cls-37" x1="452.78" y1="397.5" x2="452.78" y2="211.4"/><line class="cls-37" x1="500.52" y1="211.4" x2="500.52" y2="397.5"/><rect class="cls-38" x="468.92" y="212.65" width="15.64" height="15.41" rx="1.11"/><rect class="cls-39" x="473.55" y="217.73" width="11.17" height="11.01" rx="0.79"/><rect class="cls-38" x="468.92" y="241.3" width="15.64" height="15.41" rx="1.11"/><rect class="cls-39" x="473.55" y="246.03" width="11.17" height="11.01" rx="0.79"/><rect class="cls-38" x="468.92" y="269.95" width="15.64" height="15.41" rx="1.11"/><rect class="cls-39" x="473.55" y="274.33" width="11.17" height="11.01" rx="0.79"/><rect class="cls-38" x="468.92" y="298.6" width="15.64" height="15.41" rx="1.11"/><rect class="cls-39" x="473.55" y="303.68" width="11.17" height="11.01" rx="0.79"/><rect class="cls-37" x="469.29" y="327.27" width="14.89" height="14.67" rx="1.06"/><polygon class="cls-19" points="407.57 332.1 407.57 304.5 251.73 304.5 251.73 330.74 154.01 330.74 154.01 399.5 251.73 399.5 253.54 399.5 405.54 399.5 407.57 399.5 486.15 399.5 486.15 332.1 407.57 332.1"/><rect class="cls-19" x="262.14" y="319.45" width="11.57" height="9.43"/><rect class="cls-19" x="262.14" y="347.32" width="11.57" height="9.43"/><rect class="cls-19" x="262.14" y="375.19" width="11.57" height="9.43"/><rect class="cls-19" x="302.59" y="319.45" width="11.57" height="9.43"/><rect class="cls-19" x="302.59" y="347.32" width="11.57" height="9.43"/><rect class="cls-19" x="302.59" y="375.19" width="11.57" height="9.43"/><rect class="cls-19" x="343.04" y="319.45" width="11.57" height="9.43"/><rect class="cls-19" x="343.04" y="347.32" width="11.57" height="9.43"/><rect class="cls-19" x="343.04" y="375.19" width="11.57" height="9.43"/><rect class="cls-19" x="383.5" y="319.45" width="11.57" height="9.43"/><rect class="cls-19" x="383.5" y="347.32" width="11.57" height="9.43"/><rect class="cls-19" x="383.5" y="375.19" width="11.57" height="9.43"/><rect class="cls-19" x="425" y="347.32" width="11.57" height="9.43"/><rect class="cls-19" x="425" y="375.19" width="11.57" height="9.43"/><rect class="cls-19" x="454.59" y="347.32" width="11.57" height="9.43"/><rect class="cls-19" x="454.59" y="375.19" width="11.57" height="9.43"/><rect class="cls-19" x="165.07" y="347.32" width="11.57" height="9.43"/><rect class="cls-19" x="165.07" y="375.19" width="11.57" height="9.43"/><rect class="cls-34" x="169" y="347.32" width="7.64" height="9.43"/><rect class="cls-34" x="169" y="375.19" width="7.64" height="9.43"/><rect class="cls-19" x="195.57" y="347.32" width="11.57" height="9.43"/><rect class="cls-19" x="195.57" y="375.19" width="11.57" height="9.43"/><rect class="cls-34" x="199" y="347.32" width="7.64" height="9.43"/><rect class="cls-34" x="199" y="375.19" width="7.64" height="9.43"/><rect class="cls-19" x="226.07" y="347.32" width="11.57" height="9.43"/><rect class="cls-19" x="226.07" y="375.19" width="11.57" height="9.43"/><rect class="cls-34" x="230" y="347.32" width="7.64" height="9.43"/><rect class="cls-34" x="230" y="375.19" width="7.64" height="9.43"/><rect class="cls-34" x="266" y="347.32" width="7.64" height="9.43"/><rect class="cls-34" x="266" y="375.19" width="7.64" height="9.43"/><rect class="cls-34" x="306" y="347.32" width="7.64" height="9.43"/><rect class="cls-34" x="306" y="375.19" width="7.64" height="9.43"/><rect class="cls-34" x="347" y="347.32" width="7.64" height="9.43"/><rect class="cls-34" x="347" y="375.19" width="7.64" height="9.43"/><rect class="cls-34" x="387" y="347.32" width="7.64" height="9.43"/><rect class="cls-34" x="266" y="319.32" width="7.64" height="9.43"/><rect class="cls-34" x="306" y="319.32" width="7.64" height="9.43"/><rect class="cls-34" x="347" y="319.32" width="7.64" height="9.43"/><rect class="cls-34" x="387" y="319.32" width="7.64" height="9.43"/><rect class="cls-34" x="387" y="375.19" width="7.64" height="9.43"/><rect class="cls-34" x="429" y="347.32" width="7.64" height="9.43"/><rect class="cls-34" x="429" y="375.19" width="7.64" height="9.43"/><rect class="cls-34" x="459" y="347.32" width="7.64" height="9.43"/><rect class="cls-34" x="459" y="375.19" width="7.64" height="9.43"/></g><g id="capitol"><rect class="cls-40" x="540" y="197.64" width="59.49" height="202.86"/><rect class="cls-21" x="544.51" y="200.31" width="55.02" height="200.19"/><rect class="cls-21" x="551.44" y="200.31" width="35.45" height="197.88"/><path class="cls-41" d="M556.84,391.25a2.77,2.77,0,0,1-2.78-2.77v-9.25a2.78,2.78,0,0,1,5.55,0v9.25A2.77,2.77,0,0,1,556.84,391.25Zm0-27.74a2.77,2.77,0,0,1-2.78-2.77v-9.25a2.78,2.78,0,0,1,5.55,0v9.25A2.77,2.77,0,0,1,556.84,363.51Zm0-27.74a2.77,2.77,0,0,1-2.78-2.77v-9.25a2.78,2.78,0,0,1,5.55,0V333A2.77,2.77,0,0,1,556.84,335.77Zm0-27.74a2.77,2.77,0,0,1-2.78-2.77V296a2.78,2.78,0,0,1,5.55,0v9.25A2.77,2.77,0,0,1,556.84,308Zm0-27.74a2.77,2.77,0,0,1-2.78-2.77v-9.25a2.78,2.78,0,0,1,5.55,0v9.25A2.77,2.77,0,0,1,556.84,280.29Zm0-27.74a2.77,2.77,0,0,1-2.78-2.77v-9.25a2.78,2.78,0,0,1,5.55,0v9.25A2.77,2.77,0,0,1,556.84,252.55Zm0-27.74a2.77,2.77,0,0,1-2.78-2.77v-9.25a2.78,2.78,0,0,1,5.55,0V222A2.77,2.77,0,0,1,556.84,224.81Z"/><path class="cls-41" d="M569.78,391.25a2.77,2.77,0,0,1-2.77-2.77v-9.25a2.78,2.78,0,0,1,5.55,0v9.25A2.78,2.78,0,0,1,569.78,391.25Zm0-27.74a2.77,2.77,0,0,1-2.77-2.77v-9.25a2.78,2.78,0,0,1,5.55,0v9.25A2.78,2.78,0,0,1,569.78,363.51Zm0-27.74A2.77,2.77,0,0,1,567,333v-9.25a2.78,2.78,0,0,1,5.55,0V333A2.78,2.78,0,0,1,569.78,335.77Zm0-27.74a2.77,2.77,0,0,1-2.77-2.77V296a2.78,2.78,0,0,1,5.55,0v9.25A2.78,2.78,0,0,1,569.78,308Zm0-27.74a2.77,2.77,0,0,1-2.77-2.77v-9.25a2.78,2.78,0,0,1,5.55,0v9.25A2.78,2.78,0,0,1,569.78,280.29Zm0-27.74a2.77,2.77,0,0,1-2.77-2.77v-9.25a2.78,2.78,0,0,1,5.55,0v9.25A2.78,2.78,0,0,1,569.78,252.55Zm0-27.74A2.77,2.77,0,0,1,567,222v-9.25a2.78,2.78,0,0,1,5.55,0V222A2.78,2.78,0,0,1,569.78,224.81Z"/><path class="cls-41" d="M581.8,391.25a2.77,2.77,0,0,1-2.77-2.77v-9.25a2.78,2.78,0,0,1,5.55,0v9.25A2.78,2.78,0,0,1,581.8,391.25Zm0-27.74a2.77,2.77,0,0,1-2.77-2.77v-9.25a2.78,2.78,0,0,1,5.55,0v9.25A2.78,2.78,0,0,1,581.8,363.51Zm0-27.74A2.77,2.77,0,0,1,579,333v-9.25a2.78,2.78,0,0,1,5.55,0V333A2.78,2.78,0,0,1,581.8,335.77Zm0-27.74a2.77,2.77,0,0,1-2.77-2.77V296a2.78,2.78,0,0,1,5.55,0v9.25A2.78,2.78,0,0,1,581.8,308Zm0-27.74a2.77,2.77,0,0,1-2.77-2.77v-9.25a2.78,2.78,0,0,1,5.55,0v9.25A2.78,2.78,0,0,1,581.8,280.29Zm0-27.74a2.77,2.77,0,0,1-2.77-2.77v-9.25a2.78,2.78,0,0,1,5.55,0v9.25A2.78,2.78,0,0,1,581.8,252.55Zm0-27.74A2.77,2.77,0,0,1,579,222v-9.25a2.78,2.78,0,0,1,5.55,0V222A2.78,2.78,0,0,1,581.8,224.81Z"/><line class="cls-42" x1="560.84" y1="197.64" x2="578.69" y2="197.64"/><rect class="cls-43" x="548.86" y="133" width="41.6" height="7.14"/><rect class="cls-43" x="547.85" y="147.52" width="43.55" height="49.33"/><rect class="cls-43" x="555.64" y="147.52" width="27.98" height="49.33"/><rect class="cls-44" x="565.7" y="147.52" width="7.86" height="49.33"/><g class="cls-45"><rect class="cls-46" x="555.64" y="147.52" width="27.98" height="49.33"/><rect class="cls-46" x="565.7" y="147.52" width="7.86" height="49.33"/></g><rect class="cls-40" x="544.37" y="187.12" width="50.53" height="9.73"/><rect class="cls-40" x="544.37" y="140.14" width="50.53" height="9.73"/><circle class="cls-43" cx="569.63" cy="180.89" r="12.48"/><circle class="cls-23" cx="571.48" cy="183.67" r="12.48"/><rect class="cls-47" x="497.6" y="317.97" width="353.11" height="80.76"/><rect class="cls-48" x="526.13" y="304.36" width="296.05" height="95.47"/><polygon class="cls-49" points="675.09 155.29 675.09 152 672.73 152 672.73 155.29 670.79 155.29 670.79 163.57 671.68 163.57 671.68 169.02 675.83 169.02 675.83 163.57 676.72 163.57 676.72 155.29 675.09 155.29"/><rect class="cls-50" x="631.63" y="237.14" width="84.44" height="38.89"/><path class="cls-51" d="M668.32,173a5.44,5.44,0,0,1,10.88,0"/><rect class="cls-52" x="666.48" y="174.33" width="14.6" height="7.3"/><rect class="cls-53" x="666.46" y="174.33" width="14.6" height="7.3"/><rect class="cls-54" x="638.26" y="214.08" width="70.47" height="22.84"/><rect class="cls-51" x="698.54" y="219.34" width="4.52" height="13.97"/><rect class="cls-51" x="687.75" y="219.34" width="4.52" height="13.97"/><rect class="cls-51" x="676.96" y="219.34" width="4.52" height="13.97"/><rect class="cls-53" x="698.54" y="218.92" width="4.52" height="13.97"/><rect class="cls-53" x="687.75" y="218.92" width="4.52" height="13.97"/><rect class="cls-53" x="676.96" y="218.92" width="4.52" height="13.97"/><rect class="cls-53" x="666.16" y="218.92" width="4.52" height="13.97"/><rect class="cls-53" x="655.37" y="218.92" width="4.52" height="13.97"/><rect class="cls-53" x="644.58" y="218.92" width="4.52" height="13.97"/><rect class="cls-55" x="666.16" y="219.34" width="4.52" height="13.97"/><rect class="cls-55" x="655.37" y="219.34" width="4.52" height="13.97"/><rect class="cls-55" x="644.58" y="219.34" width="4.52" height="13.97"/><rect class="cls-56" x="637.59" y="243.12" width="14.11" height="27.2"/><rect class="cls-56" x="656.64" y="243.12" width="14.11" height="27.2"/><rect class="cls-56" x="676.96" y="243.12" width="14.11" height="27.2"/><rect class="cls-56" x="696" y="243.12" width="14.11" height="27.2"/><rect class="cls-53" x="640.37" y="243.97" width="11.33" height="28.05" rx="1.71"/><rect class="cls-53" x="659.16" y="243.97" width="11.33" height="28.05" rx="1.71"/><rect class="cls-53" x="679.66" y="243.97" width="11.33" height="28.05" rx="1.71"/><rect class="cls-53" x="698.46" y="243.97" width="11.33" height="28.05" rx="1.71"/><path class="cls-57" d="M673.43,181.85c-25,.18-31.43,15.08-31.43,30.52h62.06c0-15.44-6.46-30.34-31.42-30.52"/><path class="cls-53" d="M676.85,182.7c-25,.18-31.43,15.08-31.43,30.52h62.06c0-15.44-6.46-30.34-31.43-30.52"/><rect class="cls-47" x="604.25" y="291.2" width="139.51" height="15.43"/><polygon class="cls-58" points="737.51 290.51 610.22 290.51 610.22 274.11 673.19 262 737.51 274.11 737.51 290.51"/><polygon class="cls-47" points="736.38 290.51 611.01 290.51 611.01 283.67 673.02 273.26 736.38 283.67 736.38 290.51"/><polygon class="cls-53" points="736.55 290.51 615.31 290.51 615.31 287.11 675.29 278.49 736.55 287.11 736.55 290.51"/><rect class="cls-47" x="608.17" y="308.09" width="131.58" height="89.06"/><rect class="cls-47" x="599.59" y="308.09" width="148.74" height="18.55"/><rect class="cls-47" x="608.83" y="313.25" width="12.91" height="9.57"/><rect class="cls-47" x="632.3" y="313.25" width="12.91" height="9.57"/><rect class="cls-47" x="655.77" y="313.25" width="12.91" height="9.57"/><rect class="cls-47" x="679.24" y="313.25" width="12.91" height="9.57"/><rect class="cls-47" x="702.71" y="313.25" width="12.91" height="9.57"/><rect class="cls-47" x="726.18" y="313.25" width="12.91" height="9.57"/><rect class="cls-47" x="608.83" y="312.35" width="12.91" height="9.57"/><rect class="cls-53" x="612.43" y="314.79" width="10.27" height="7.13" rx="0.93"/><rect class="cls-47" x="632.3" y="312.35" width="12.91" height="9.57"/><rect class="cls-53" x="635.52" y="314.79" width="10.27" height="7.13" rx="0.93"/><rect class="cls-47" x="655.77" y="312.35" width="12.91" height="9.57"/><rect class="cls-47" x="679.24" y="312.35" width="12.91" height="9.57"/><rect class="cls-53" x="658.61" y="314.79" width="10.27" height="7.13" rx="0.93"/><rect class="cls-53" x="681.7" y="314.79" width="10.27" height="7.13" rx="0.93"/><rect class="cls-47" x="702.71" y="312.35" width="12.91" height="9.57"/><rect class="cls-47" x="726.18" y="312.35" width="12.91" height="9.57"/><rect class="cls-53" x="705.76" y="314.79" width="10.27" height="7.13" rx="0.93"/><rect class="cls-53" x="728.85" y="314.79" width="10.27" height="7.13" rx="0.93"/><path class="cls-47" d="M693.64,357.66c-.89-9.83-9.48-17.54-19.94-17.54s-19.05,7.71-19.94,17.54h-.09v39.49h40.05V357.66Z"/><path class="cls-53" d="M693.65,361.06a17.53,17.53,0,0,0-35,0h-.07v36.09h35.11V361.06Z"/><rect class="cls-47" x="599.78" y="326.64" width="37.9" height="71.19"/><rect class="cls-47" x="710.62" y="326.64" width="37.9" height="71.19"/><rect class="cls-47" x="542.57" y="316.08" width="15.29" height="30.1" rx="0.93"/><rect class="cls-47" x="568.05" y="316.08" width="15.29" height="30.1" rx="0.93"/><rect class="cls-47" x="542.57" y="367.08" width="15.29" height="30.1" rx="0.93"/><rect class="cls-47" x="568.05" y="367.08" width="15.29" height="30.1" rx="0.93"/><rect class="cls-47" x="542.57" y="315.17" width="15.29" height="30.1" rx="0.93"/><rect class="cls-53" x="546.04" y="320.1" width="12.78" height="25.17" rx="0.78"/><rect class="cls-47" x="568.05" y="315.17" width="15.29" height="30.1" rx="0.93"/><rect class="cls-53" x="571.05" y="320.1" width="12.78" height="25.17" rx="0.78"/><rect class="cls-47" x="542.57" y="366.17" width="15.29" height="30.1" rx="0.93"/><rect class="cls-47" x="506.62" y="331.58" width="11.85" height="25.37" rx="0.93"/><rect class="cls-47" x="506.62" y="369.08" width="11.85" height="25.37" rx="0.93"/><rect class="cls-47" x="506.62" y="330.67" width="11.85" height="25.37" rx="0.93"/><rect class="cls-53" x="509.48" y="333.85" width="8.99" height="22.2" rx="0.76"/><rect class="cls-47" x="506.62" y="368.17" width="11.85" height="25.37" rx="0.93"/><rect class="cls-53" x="509.48" y="371.06" width="8.99" height="22.2" rx="0.76"/><rect class="cls-47" x="612.45" y="331.58" width="11.85" height="25.37" rx="0.93"/><rect class="cls-47" x="612.45" y="369.08" width="11.85" height="25.37" rx="0.93"/><rect class="cls-47" x="612.45" y="330.67" width="11.85" height="25.37" rx="0.93"/><rect class="cls-53" x="615.31" y="333.85" width="8.99" height="22.2" rx="0.76"/><rect class="cls-47" x="612.45" y="368.17" width="11.85" height="25.37" rx="0.93"/><rect class="cls-53" x="615.31" y="371.06" width="8.99" height="22.2" rx="0.76"/><rect class="cls-47" x="830.86" y="331.58" width="11.85" height="25.37" rx="0.93"/><rect class="cls-47" x="830.86" y="369.08" width="11.85" height="25.37" rx="0.93"/><rect class="cls-47" x="830.86" y="330.67" width="11.85" height="25.37" rx="0.93"/><rect class="cls-47" x="830.86" y="368.17" width="11.85" height="25.37" rx="0.93"/><rect class="cls-53" x="833.72" y="333.85" width="8.99" height="22.2" rx="0.76"/><rect class="cls-53" x="833.72" y="371.06" width="8.99" height="22.2" rx="0.76"/><rect class="cls-47" x="568.05" y="366.17" width="15.29" height="30.1" rx="0.93"/><rect class="cls-53" x="546.04" y="370.92" width="12.78" height="25.17" rx="0.78"/><rect class="cls-53" x="571.05" y="370.92" width="12.78" height="25.17" rx="0.78"/><rect class="cls-47" x="764.97" y="316.08" width="15.29" height="30.1" rx="0.93"/><rect class="cls-47" x="790.45" y="316.08" width="15.29" height="30.1" rx="0.93"/><rect class="cls-47" x="764.97" y="367.08" width="15.29" height="30.1" rx="0.93"/><rect class="cls-47" x="790.45" y="367.08" width="15.29" height="30.1" rx="0.93"/><rect class="cls-47" x="764.97" y="315.17" width="15.29" height="30.1" rx="0.93"/><rect class="cls-47" x="790.45" y="315.17" width="15.29" height="30.1" rx="0.93"/><rect class="cls-47" x="764.97" y="366.17" width="15.29" height="30.1" rx="0.93"/><rect class="cls-47" x="790.45" y="366.17" width="15.29" height="30.1" rx="0.93"/><rect class="cls-53" x="768.3" y="320.1" width="12.78" height="25.17" rx="0.78"/><rect class="cls-53" x="793.31" y="320.1" width="12.78" height="25.17" rx="0.78"/><rect class="cls-53" x="768.3" y="370.92" width="12.78" height="25.17" rx="0.78"/><rect class="cls-53" x="793.31" y="370.92" width="12.78" height="25.17" rx="0.78"/><rect class="cls-47" x="724.06" y="331.58" width="11.85" height="25.37" rx="0.93"/><rect class="cls-47" x="724.06" y="369.08" width="11.85" height="25.37" rx="0.93"/><rect class="cls-47" x="724.06" y="330.67" width="11.85" height="25.37" rx="0.93"/><rect class="cls-53" x="726.92" y="333.85" width="8.99" height="22.2" rx="0.76"/><rect class="cls-47" x="724.06" y="368.17" width="11.85" height="25.37" rx="0.93"/><rect class="cls-53" x="726.92" y="371.06" width="8.99" height="22.2" rx="0.76"/><path class="cls-59" d="M683,186c10.62,1.34,13.55,12.41,13.55,23.07"/><path class="cls-59" d="M650.78,209.07c0-10.48,2.66-21.43,13-23"/><path class="cls-59" d="M665.29,209.07c0-11,.51-21.11,4.75-22.75"/><path class="cls-59" d="M682.79,209.07c0-11-.51-21.11-4.75-22.75"/></g></svg>