<?xml version="1.0" encoding="utf-8"?>
<!-- Generator: Adobe Illustrator 23.0.3, SVG Export Plug-In . SVG Version: 6.00 Build 0)  -->
<svg version="1.1" xmlns="http://www.w3.org/2000/svg" xmlns:xlink="http://www.w3.org/1999/xlink" x="0px" y="0px"
	 viewBox="0 0 1280 400" style="enable-background:new 0 0 1280 400;" xml:space="preserve">
<style type="text/css">
	.st0{fill:#FFFFFF;}
	.st1{fill:none;stroke:#00CFFF;stroke-width:2;stroke-linecap:round;stroke-linejoin:round;stroke-miterlimit:10;}
	.st2{opacity:0.2;fill:#00CFFF;}
	.st3{fill:none;stroke:#00CFFF;stroke-width:1.5716;stroke-linecap:round;stroke-linejoin:round;stroke-miterlimit:10;}
	.st4{opacity:0.8;fill:none;stroke:#00CFFF;stroke-width:2;stroke-linecap:round;stroke-linejoin:round;stroke-miterlimit:10;}
	.st5{fill:#FFFFFF;stroke:#FFC861;stroke-width:2;stroke-linecap:round;stroke-linejoin:round;stroke-miterlimit:10;}
	.st6{fill:#FFFFFF;stroke:#C5F76E;stroke-width:1.7756;stroke-linecap:round;stroke-linejoin:round;stroke-miterlimit:10;}
	.st7{fill:#FFFFFF;stroke:#C5F76E;stroke-width:2;stroke-linecap:round;stroke-linejoin:round;stroke-miterlimit:10;}
	.st8{fill:#FFFFFF;stroke:#C5F76E;stroke-width:1.5;stroke-linecap:round;stroke-linejoin:round;stroke-miterlimit:10;}
	.st9{fill:#FFFFFF;stroke:#C5F76E;stroke-width:2.5;stroke-linecap:round;stroke-linejoin:round;stroke-miterlimit:10;}
	
		.st10{opacity:0.3;fill:#C5F76E;stroke:#FFFFFF;stroke-width:1.6157;stroke-linecap:round;stroke-linejoin:round;stroke-miterlimit:10;}
	.st11{fill:#FFFFFF;stroke:#C5F76E;stroke-width:3;stroke-linecap:round;stroke-linejoin:round;stroke-miterlimit:10;}
	
		.st12{opacity:0.2;fill:#C5F76E;stroke:#FFFFFF;stroke-width:1.6414;stroke-linecap:round;stroke-linejoin:round;stroke-miterlimit:10;}
	
		.st13{opacity:0.2;fill:#C5F76E;stroke:#FFFFFF;stroke-width:1.1822;stroke-linecap:round;stroke-linejoin:round;stroke-miterlimit:10;}
	.st14{fill:#FFFFFF;stroke:#C5F76E;stroke-width:1.902;stroke-linecap:round;stroke-linejoin:round;stroke-miterlimit:10;}
	.st15{fill:#FFFFFF;stroke:#C5F76E;stroke-width:1.4265;stroke-linecap:round;stroke-linejoin:round;stroke-miterlimit:10;}
	.st16{fill:#FFFFFF;stroke:#C5F76E;stroke-width:1.9645;stroke-linecap:round;stroke-linejoin:round;stroke-miterlimit:10;}
	
		.st17{opacity:0.3;fill:#C5F76E;stroke:#FFFFFF;stroke-width:1.2696;stroke-linecap:round;stroke-linejoin:round;stroke-miterlimit:10;}
	.st18{fill:#FFFFFF;stroke:#C5F76E;stroke-width:2.3574;stroke-linecap:round;stroke-linejoin:round;stroke-miterlimit:10;}
	
		.st19{opacity:0.2;fill:#C5F76E;stroke:#FFFFFF;stroke-width:1.2898;stroke-linecap:round;stroke-linejoin:round;stroke-miterlimit:10;}
	
		.st20{opacity:0.2;fill:#C5F76E;stroke:#FFFFFF;stroke-width:0.929;stroke-linecap:round;stroke-linejoin:round;stroke-miterlimit:10;}
	.st21{fill:#FFFFFF;stroke:#C5F76E;stroke-width:1.4946;stroke-linecap:round;stroke-linejoin:round;stroke-miterlimit:10;}
	.st22{fill:#FFFFFF;stroke:#C5F76E;stroke-width:1.121;stroke-linecap:round;stroke-linejoin:round;stroke-miterlimit:10;}
	.st23{fill:#FFFFFF;stroke:#C5F76E;stroke-width:2.1351;stroke-linecap:round;stroke-linejoin:round;stroke-miterlimit:10;}
	
		.st24{opacity:0.3;fill:#C5F76E;stroke:#FFFFFF;stroke-width:1.3554;stroke-linecap:round;stroke-linejoin:round;stroke-miterlimit:10;}
	.st25{fill:#FFFFFF;stroke:#C5F76E;stroke-width:2.6689;stroke-linecap:round;stroke-linejoin:round;stroke-miterlimit:10;}
	
		.st26{opacity:0.2;fill:#C5F76E;stroke:#FFFFFF;stroke-width:1.377;stroke-linecap:round;stroke-linejoin:round;stroke-miterlimit:10;}
	
		.st27{opacity:0.2;fill:#C5F76E;stroke:#FFFFFF;stroke-width:0.9917;stroke-linecap:round;stroke-linejoin:round;stroke-miterlimit:10;}
	.st28{fill:#FFFFFF;stroke:#C5F76E;stroke-width:1.5956;stroke-linecap:round;stroke-linejoin:round;stroke-miterlimit:10;}
	.st29{fill:#FFFFFF;stroke:#C5F76E;stroke-width:1.1967;stroke-linecap:round;stroke-linejoin:round;stroke-miterlimit:10;}
	.st30{fill:#00CFFF;}
	.st31{fill:#FFFFFF;stroke:#00CFFF;stroke-width:2;stroke-linecap:round;stroke-linejoin:round;stroke-miterlimit:10;}
	.st32{fill:#FFFFFF;stroke:#00CFFF;stroke-width:2.5;stroke-linecap:round;stroke-linejoin:round;stroke-miterlimit:10;}
	.st33{fill:#FFFFFF;stroke:#00CFFF;stroke-linecap:round;stroke-linejoin:round;stroke-miterlimit:10;}
	.st34{opacity:0.1;fill:#00CFFF;}
	.st35{opacity:0.1;}
	.st36{opacity:0.25;fill:#00CFFF;}
	.st37{fill:#FFFFFF;stroke:#00CFFF;stroke-width:2.484;stroke-linecap:round;stroke-linejoin:round;stroke-miterlimit:10;}
	.st38{opacity:0.3;fill:#00CFFF;}
	.st39{opacity:0.15;fill:#00CFFF;}
	.st40{fill:#FFFFFF;stroke:#00CFFF;stroke-width:1.5716;stroke-linecap:round;stroke-linejoin:round;stroke-miterlimit:10;}
	.st41{fill:#FFFFFF;stroke:#00CFFF;stroke-width:1.9645;stroke-linecap:round;stroke-linejoin:round;stroke-miterlimit:10;}
	.st42{fill:#FFFFFF;stroke:#00CFFF;stroke-width:1.952;stroke-linecap:round;stroke-linejoin:round;stroke-miterlimit:10;}
	.st43{fill:#FFFFFF;stroke:#00CFFF;stroke-width:1.865;stroke-linecap:round;stroke-linejoin:round;stroke-miterlimit:10;}
	.st44{fill:#FFFFFF;stroke:#00CFFF;stroke-width:2.3312;stroke-linecap:round;stroke-linejoin:round;stroke-miterlimit:10;}
	.st45{fill:#FFFFFF;stroke:#00CFFF;stroke-width:1.4655;stroke-linecap:round;stroke-linejoin:round;stroke-miterlimit:10;}
	.st46{fill:#FFFFFF;stroke:#00CFFF;stroke-width:3;stroke-linecap:round;stroke-linejoin:round;stroke-miterlimit:10;}
	.st47{fill:#FFFFFF;stroke:#00CFFF;stroke-width:2.3574;stroke-linecap:round;stroke-linejoin:round;stroke-miterlimit:10;}
	.st48{fill:#FFFFFF;stroke:#00CFFF;stroke-width:2.3974;stroke-linecap:round;stroke-linejoin:round;stroke-miterlimit:10;}
	.st49{fill:#FFFFFF;stroke:#00CFFF;stroke-width:1.9179;stroke-linecap:round;stroke-linejoin:round;stroke-miterlimit:10;}
	.st50{fill:#FFFFFF;stroke:#FFC861;stroke-width:2.5;stroke-linecap:round;stroke-linejoin:round;stroke-miterlimit:10;}
	.st51{fill:none;stroke:#00CFFF;stroke-width:1.8654;stroke-miterlimit:10;}
	.st52{fill:none;stroke:#00CFFF;stroke-width:1.8654;stroke-linecap:round;stroke-linejoin:round;stroke-miterlimit:10;}
	.st53{opacity:0.2;fill:#FFC861;}
	.st54{fill:#FFFFFF;stroke:#FFC861;stroke-width:1.8269;stroke-linecap:round;stroke-linejoin:round;stroke-miterlimit:10;}
	.st55{opacity:0.5;fill:#FFC861;}
	.st56{opacity:0.3;fill:#FFC861;}
	.st57{fill:none;stroke:#00CFFF;stroke-width:2;stroke-miterlimit:10;}
	.st58{fill:none;stroke:#00CFFF;stroke-width:1.4658;stroke-miterlimit:10;}
	.st59{fill:none;stroke:#00CFFF;stroke-width:1.4658;stroke-linecap:round;stroke-linejoin:round;stroke-miterlimit:10;}
	.st60{fill:#FFFFFF;stroke:#FFC861;stroke-width:1.9645;stroke-linecap:round;stroke-linejoin:round;stroke-miterlimit:10;}
	.st61{fill:#FFFFFF;stroke:#FFC861;stroke-width:1.4356;stroke-linecap:round;stroke-linejoin:round;stroke-miterlimit:10;}
	.st62{fill:none;stroke:#00CFFF;stroke-width:1.5716;stroke-miterlimit:10;}
	.st63{opacity:0.1;fill:#FFC861;}
	.st64{opacity:0.25;fill:#FFC861;}
	.st65{fill:#FFFFFF;stroke:#FFC861;stroke-width:1.5716;stroke-linecap:round;stroke-linejoin:round;stroke-miterlimit:10;}
	.st66{fill:#FFFFFF;stroke:#FFC861;stroke-width:2.2309;stroke-linecap:round;stroke-linejoin:round;stroke-miterlimit:10;}
	.st67{fill:#FFFFFF;stroke:#FFC861;stroke-width:1.7531;stroke-linecap:round;stroke-linejoin:round;stroke-miterlimit:10;}
	.st68{fill:#FFFFFF;stroke:#FFC861;stroke-width:1.4025;stroke-linecap:round;stroke-linejoin:round;stroke-miterlimit:10;}
	.st69{fill:#FFFFFF;stroke:#FFC861;stroke-width:1.9077;stroke-linecap:round;stroke-linejoin:round;stroke-miterlimit:10;}
	.st70{opacity:0.25;fill:#C5F76E;}
	.st71{fill:#FFFFFF;stroke:#C5F76E;stroke-width:1.7239;stroke-linecap:round;stroke-linejoin:round;stroke-miterlimit:10;}
	.st72{opacity:0.2;fill:#C5F76E;}
	
		.st73{opacity:0.25;fill:#C5F76E;stroke:#FFFFFF;stroke-width:1.019;stroke-linecap:round;stroke-linejoin:round;stroke-miterlimit:10;}
	.st74{fill:#FFFFFF;stroke:#C5F76E;stroke-width:1.5716;stroke-linecap:round;stroke-linejoin:round;stroke-miterlimit:10;}
	.st75{fill:#FFFFFF;stroke:#C5F76E;stroke-width:1.3547;stroke-linecap:round;stroke-linejoin:round;stroke-miterlimit:10;}
	
		.st76{opacity:0.25;fill:#C5F76E;stroke:#FFFFFF;stroke-width:0.8007;stroke-linecap:round;stroke-linejoin:round;stroke-miterlimit:10;}
	.st77{fill:#FFFFFF;stroke:#00CFFF;stroke-width:2.742;stroke-linecap:round;stroke-linejoin:round;stroke-miterlimit:10;}
	.st78{opacity:0.36;fill:#00CFFF;}
	.st79{fill:#FFFFFF;stroke:#00CFFF;stroke-width:2.1547;stroke-linecap:round;stroke-linejoin:round;stroke-miterlimit:10;}
	.st80{fill:#FFFFFF;stroke:#C5F76E;stroke-width:3.1678;stroke-linecap:round;stroke-linejoin:round;stroke-miterlimit:10;}
	.st81{fill:none;stroke:#C5F76E;stroke-width:2.1119;stroke-linecap:round;stroke-linejoin:round;stroke-miterlimit:10;}
	.st82{fill:#FFFFFF;stroke:#C5F76E;stroke-width:2.1119;stroke-linecap:round;stroke-linejoin:round;stroke-miterlimit:10;}
	.st83{fill:#FFFFFF;stroke:#C5F76E;stroke-width:2.2175;stroke-linecap:round;stroke-linejoin:round;stroke-miterlimit:10;}
	.st84{opacity:0.57;fill:#C5F76E;}
	.st85{fill:#FFFFFF;stroke:#C5F76E;stroke-width:2.4893;stroke-linecap:round;stroke-linejoin:round;stroke-miterlimit:10;}
	.st86{fill:none;stroke:#C5F76E;stroke-width:1.6595;stroke-linecap:round;stroke-linejoin:round;stroke-miterlimit:10;}
	.st87{fill:#FFFFFF;stroke:#C5F76E;stroke-width:1.6595;stroke-linecap:round;stroke-linejoin:round;stroke-miterlimit:10;}
	.st88{fill:#FFFFFF;stroke:#C5F76E;stroke-width:1.7425;stroke-linecap:round;stroke-linejoin:round;stroke-miterlimit:10;}
	.st89{fill:none;stroke:#C5F76E;stroke-width:2;stroke-linecap:round;stroke-linejoin:round;stroke-miterlimit:10;}
	.st90{fill:#FFFFFF;stroke:#00CFFF;stroke-width:2.8899;stroke-linecap:round;stroke-linejoin:round;stroke-miterlimit:10;}
	.st91{fill:#FFFFFF;stroke:#00CFFF;stroke-width:1.8082;stroke-linecap:round;stroke-linejoin:round;stroke-miterlimit:10;}
	.st92{opacity:0.55;}
	.st93{fill:#FFFFFF;stroke:#FF8598;stroke-width:2.6567;stroke-linecap:round;stroke-linejoin:round;stroke-miterlimit:10;}
	.st94{fill:#FFFFFF;stroke:#FF8598;stroke-width:2;stroke-linecap:round;stroke-linejoin:round;stroke-miterlimit:10;}
	.st95{fill:#FFFFFF;stroke:#FF8598;stroke-width:3;stroke-linecap:round;stroke-linejoin:round;stroke-miterlimit:10;}
	.st96{fill:#FFFFFF;stroke:#FF8598;stroke-width:1.7711;stroke-linecap:round;stroke-linejoin:round;stroke-miterlimit:10;}
	.st97{fill:#FFFFFF;stroke:#FFC861;stroke-width:2.1259;stroke-linecap:round;stroke-linejoin:round;stroke-miterlimit:10;}
	.st98{fill:#FFC861;}
	.st99{fill:#FFFFFF;stroke:#FFC861;stroke-width:1.6499;stroke-linecap:round;stroke-linejoin:round;stroke-miterlimit:10;}
	.st100{fill:#FFFFFF;stroke:#FFC861;stroke-width:1.8493;stroke-linecap:round;stroke-linejoin:round;stroke-miterlimit:10;}
	.st101{fill:#FFFFFF;stroke:#FFC861;stroke-width:0.9247;stroke-linecap:round;stroke-linejoin:round;stroke-miterlimit:10;}
	.st102{opacity:0.2;}
	.st103{fill:#FFC861;stroke:#FFFFFF;stroke-width:2.3812;stroke-linecap:round;stroke-linejoin:round;stroke-miterlimit:10;}
	.st104{fill:#FFFFFF;stroke:#FF8598;stroke-width:1.8688;stroke-linecap:round;stroke-linejoin:round;stroke-miterlimit:10;}
	.st105{fill:#FFFFFF;stroke:#FF8598;stroke-width:2.8032;stroke-linecap:round;stroke-linejoin:round;stroke-miterlimit:10;}
	.st106{fill:#FFFFFF;stroke:#FF8598;stroke-width:2.126;stroke-linecap:round;stroke-linejoin:round;stroke-miterlimit:10;}
	.st107{fill:#FFFFFF;stroke:#FF8598;stroke-width:1.6459;stroke-linecap:round;stroke-linejoin:round;stroke-miterlimit:10;}
	.st108{fill:#FFFFFF;stroke:#FF8598;stroke-width:1.7084;stroke-linecap:round;stroke-linejoin:round;stroke-miterlimit:10;}
	.st109{fill:#FFFFFF;stroke:#FF8598;stroke-width:1.6362;stroke-linecap:round;stroke-linejoin:round;stroke-miterlimit:10;}
	.st110{opacity:0.3;fill:#FF8598;}
	.st111{fill:#FFFFFF;stroke:#FF8598;stroke-width:1.8113;stroke-linecap:round;stroke-linejoin:round;stroke-miterlimit:10;}
	
		.st112{opacity:0.97;fill:none;stroke:#FF8598;stroke-width:1.7084;stroke-linecap:round;stroke-linejoin:round;stroke-miterlimit:10;}
	.st113{fill:#FFFFFF;stroke:#FF8598;stroke-width:1.5974;stroke-linecap:round;stroke-linejoin:round;stroke-miterlimit:10;}
	.st114{fill:#FFFFFF;stroke:#FF8598;stroke-width:2.5626;stroke-linecap:round;stroke-linejoin:round;stroke-miterlimit:10;}
	.st115{fill:#FFFFFF;stroke:#FF8598;stroke-width:3.0233;stroke-linecap:round;stroke-linejoin:round;stroke-miterlimit:10;}
	.st116{fill:none;stroke:#FF8598;stroke-width:1.5041;stroke-linecap:round;stroke-linejoin:round;stroke-miterlimit:10;}
	.st117{fill:#FFFFFF;stroke:#FFC861;stroke-width:1.6705;stroke-linecap:round;stroke-linejoin:round;stroke-miterlimit:10;}
	.st118{fill:#FFFFFF;stroke:#FFC861;stroke-width:1.2965;stroke-linecap:round;stroke-linejoin:round;stroke-miterlimit:10;}
	.st119{fill:#FFFFFF;stroke:#FFC861;stroke-width:1.4532;stroke-linecap:round;stroke-linejoin:round;stroke-miterlimit:10;}
	.st120{fill:#FFFFFF;stroke:#FFC861;stroke-width:0.7266;stroke-linecap:round;stroke-linejoin:round;stroke-miterlimit:10;}
	.st121{fill:#FFC861;stroke:#FFFFFF;stroke-width:1.8712;stroke-linecap:round;stroke-linejoin:round;stroke-miterlimit:10;}
	.st122{fill:#FFFFFF;stroke:#FF8598;stroke-width:2.3574;stroke-linecap:round;stroke-linejoin:round;stroke-miterlimit:10;}
	.st123{fill:#FFFFFF;stroke:#FF8598;stroke-width:1.5716;stroke-linecap:round;stroke-linejoin:round;stroke-miterlimit:10;}
	.st124{fill:#FFFFFF;stroke:#FF8598;stroke-width:1.5052;stroke-linecap:round;stroke-linejoin:round;stroke-miterlimit:10;}
	.st125{fill:#FFFFFF;stroke:#FF8598;stroke-width:1.6662;stroke-linecap:round;stroke-linejoin:round;stroke-miterlimit:10;}
	
		.st126{opacity:0.97;fill:none;stroke:#FF8598;stroke-width:1.5716;stroke-linecap:round;stroke-linejoin:round;stroke-miterlimit:10;}
	.st127{fill:none;stroke:#FF8598;stroke-width:1.5716;stroke-linecap:round;stroke-linejoin:round;stroke-miterlimit:10;}
	.st128{fill:#FFC861;stroke:#FFFFFF;stroke-width:2;stroke-linecap:round;stroke-linejoin:round;stroke-miterlimit:10;}
	.st129{fill:#FFFFFF;stroke:#FF8598;stroke-width:2.4153;stroke-linecap:round;stroke-linejoin:round;stroke-miterlimit:10;}
	.st130{fill:#FFFFFF;stroke:#FF8598;stroke-width:2.5;stroke-linecap:round;stroke-linejoin:round;stroke-miterlimit:10;}
	.st131{opacity:0.2;fill:#FF8598;}
	.st132{fill:none;stroke:#FF8598;stroke-width:2;stroke-linecap:round;stroke-linejoin:round;stroke-miterlimit:10;}
	.st133{fill:#FFFFFF;stroke:#FF8598;stroke-width:2.601;stroke-linecap:round;stroke-linejoin:round;stroke-miterlimit:10;}
	.st134{opacity:0.3;}
	.st135{fill:#FF8598;}
	.st136{fill:#FFFFFF;stroke:#FF8598;stroke-width:2.1126;stroke-linecap:round;stroke-linejoin:round;stroke-miterlimit:10;}
	.st137{fill:#FFFFFF;stroke:#FF8598;stroke-width:2.1431;stroke-linecap:round;stroke-linejoin:round;stroke-miterlimit:10;}
	.st138{fill:#FFFFFF;stroke:#FF8598;stroke-width:2.4787;stroke-linecap:round;stroke-linejoin:round;stroke-miterlimit:10;}
	.st139{fill:#C5F76E;}
</style>
<g id="Layer_19">
</g>
<g id="Layer_1">
</g>
<g id="Layer_14">
	<path class="st1" d="M1005,121h-13.1c-0.5-8.9-7.7-16-16.5-16c-2.5,0-4.9,0.6-7,1.6C968,99,962.3,93,955.4,93
		c-6.8,0-12.3,5.7-13,13.1c-2.3-1.3-5-2.1-7.9-2.1c-9.1,0-16.5,7.6-16.5,17h-12"/>
	<path class="st2" d="M995.9,125c-0.5-8.9-7.7-16-16.5-16c-2.5,0-4.9,0.6-7,1.6c-0.4-7.6-6.1-13.6-13-13.6c-6.8,0-12.3,5.7-13,13.1
		c-2.3-1.3-5-2.1-7.9-2.1c-9.1,0-16.5,7.6-16.5,17"/>
	<path class="st1" d="M186,91h13.1c0.5-8.9,7.7-16,16.5-16c2.5,0,4.9,0.6,7,1.6c0.4-7.6,6.1-13.6,13-13.6c6.8,0,12.3,5.7,13,13.1
		c2.3-1.3,5-2.1,7.9-2.1c9.1,0,16.5,7.6,16.5,17h12"/>
	<path class="st2" d="M195.1,95c0.5-8.9,7.7-16,16.5-16c2.5,0,4.9,0.6,7,1.6c0.4-7.6,6.1-13.6,13-13.6c6.8,0,12.3,5.7,13,13.1
		c2.3-1.3,5-2.1,7.9-2.1c9.1,0,16.5,7.6,16.5,17"/>
	<path class="st1" d="M382.9,41.4c2.6-8.4,10.4-14.4,19.6-14.4c7.7,0,14.5,4.3,18,10.6c3-1.7,6.4-2.6,10-2.6
		c7.7,0,14.4,4.3,17.9,10.6c3-2.8,7.1-4.6,11.6-4.6c9.4,0,17,7.6,17,17c0,0.3,0,0.7,0,1h11"/>
	<path class="st1" d="M1092,64h-12c0-9.9-7.5-18-16.7-18c-1.2,0-2.5,0.1-3.6,0.4c-2.4-8.4-9.6-14.4-18.2-14.4
		c-7.2,0-13.5,4.3-16.7,10.6c-2.8-1.7-5.9-2.6-9.3-2.6c-7.2,0-13.4,4.3-16.7,10.6c-2.8-2.8-6.6-4.6-10.8-4.6
		c-8.7,0-15.8,7.6-15.8,17c0,0.3,0,0.7,0,1H962"/>
	<path class="st2" d="M1084,67c0-9.9-7.5-18-16.7-18c-1.2,0-2.5,0.1-3.6,0.4c-2.4-8.4-9.6-14.4-18.2-14.4c-7.2,0-13.5,4.3-16.7,10.6
		c-2.8-1.7-5.9-2.6-9.3-2.6c-7.2,0-13.4,4.3-16.7,10.6c-2.8-2.8-6.6-4.6-10.8-4.6c-8.7,0-15.8,7.6-15.8,17c0,0.3,0,0.7,0,1"/>
	<path class="st1" d="M325,68h13.2c0.5-7.6,7.8-13.7,16.7-13.7c2.5,0,4.9,0.5,7.1,1.4c0.4-6.5,6.2-11.7,13.2-11.7
		c6.8,0,12.5,4.9,13.1,11.2c2.4-1.1,5.1-1.8,8-1.8c9.2,0,16.7,6.5,16.7,14.6H423"/>
	<path class="st2" d="M340.2,73c0.5-7.6,7.8-13.7,16.7-13.7c2.5,0,4.9,0.5,7.1,1.4c0.4-6.5,6.2-11.7,13.2-11.7
		c6.8,0,12.5,4.9,13.1,11.2c2.4-1.1,5.1-1.8,8-1.8c9.2,0,16.7,6.5,16.7,14.6"/>
	<path class="st2" d="M465,44c-4.5,0-8.5,1.7-11.6,4.6c-3.5-6.3-10.2-10.6-17.9-10.6c-3.7,0-7.1,1-10,2.6
		c-3.5-6.3-10.2-10.6-18-10.6c-9.2,0-17,6.1-19.6,14.4l-2.3,3.7c4.2,1.8,7.2,5.6,7.6,10.1c2.4-1.1,5.1-1.8,8-1.8
		c5.3,0,10.1,2.2,13.1,5.6H482c0-0.3,0-0.7,0-1C482,51.6,474.4,44,465,44z"/>
	<g>
		<path class="st2" d="M364.6,53.9c0.8,0.2,1.6,0.5,2.4,0.8c0-0.7,0.2-1.3,0.3-1.9L364.6,53.9z"/>
	</g>
	<path class="st1" d="M793,80h15c0.6-8.9,8.8-16,19-16c2.9,0,5.6,0.6,8,1.6c0.5-7.6,7-13.6,15-13.6c7.8,0,14.2,5.7,14.9,13.1
		c2.7-1.3,5.8-2.1,9.1-2.1c10.5,0,19,7.6,19,17h13"/>
	<path class="st2" d="M813,83c0.6-8.9,8.8-16,19-16c2.9,0,5.6,0.6,8,1.6c0.5-7.6,7-13.6,15-13.6c7.8,0,14.2,5.7,14.9,13.1
		c2.7-1.3,5.8-2.1,9.1-2.1c10.5,0,19,7.6,19,17"/>
	<path class="st1" d="M500,101h11.5c2-7.5,9.5-13,18.5-13c2.9,0,5.6,0.6,8,1.6c0.5-7.6,7-13.6,15-13.6c7.8,0,14.2,5.7,14.9,13.1
		c2.7-1.3,5.8-2.1,9.1-2.1c10.5,0,19,5.6,19,15"/>
	<path class="st2" d="M516.5,104c2-7.5,9.5-14,18.5-14c2.9,0,5.6,0.6,8,1.6c0.5-7.6,7-13.6,15-13.6c7.8,0,14.2,5.7,14.9,13.1
		c2.7-1.3,5.8-2.1,9.1-2.1c10.5,0,19,4.6,19,14"/>
</g>
<g id="Layer_9">
</g>
<g id="Layer_16">
	<g id="Layer_11">
	</g>
	<g>
		<path class="st9" d="M1123.2,68c0-0.1,0-0.3,0-0.4V43.7c0-6.3,46.7-6.3,46.7,0v23.9L1123.2,68z"/>
		<path class="st10" d="M1128.5,66.1c0-0.1,0-0.2,0-0.3V46.2c0-5.2,41.4-5.2,41.4,0v19.6L1128.5,66.1z"/>
		<path class="st11" d="M1170,396.9h-46.8c-2.3,0-4.2-1.9-4.2-4.2V55.2c0-2.3,1.9-4.2,4.2-4.2h46.8c2.3,0,4.2,1.9,4.2,4.2v337.5
			C1174.2,395.1,1172.3,396.9,1170,396.9z"/>
		<path class="st12" d="M1169.5,394.7h-44c-1.2,0-2.3-1-2.3-2.3V56.9c0-1.2,1-2.3,2.3-2.3h44c1.2,0,2.3,1,2.3,2.3v335.5
			C1171.8,393.7,1170.8,394.7,1169.5,394.7z"/>
		<path class="st13" d="M1158.7,394.7h-21.9c-0.9,0-1.6-0.7-1.6-1.6V56.8c0-0.9,0.7-1.6,1.6-1.6h21.9c0.9,0,1.6,0.7,1.6,1.6V393
			C1160.4,393.9,1159.6,394.7,1158.7,394.7z"/>
		<g>
			<line class="st14" x1="1157.4" y1="86.5" x2="1135.6" y2="86.5"/>
			<line class="st14" x1="1135.6" y1="65.1" x2="1157.4" y2="65.1"/>
			<line class="st14" x1="1157.4" y1="129.2" x2="1135.6" y2="129.2"/>
			<line class="st14" x1="1135.6" y1="107.9" x2="1157.4" y2="107.9"/>
			<line class="st14" x1="1157.4" y1="171.9" x2="1135.6" y2="171.9"/>
			<line class="st14" x1="1135.6" y1="150.6" x2="1157.4" y2="150.6"/>
			<line class="st14" x1="1157.4" y1="214.7" x2="1135.6" y2="214.7"/>
			<line class="st14" x1="1135.6" y1="193.3" x2="1157.4" y2="193.3"/>
			<line class="st14" x1="1157.4" y1="255.9" x2="1135.6" y2="255.9"/>
			<line class="st14" x1="1135.6" y1="234.5" x2="1157.4" y2="234.5"/>
			<line class="st14" x1="1157.4" y1="298.6" x2="1135.6" y2="298.6"/>
			<line class="st14" x1="1135.6" y1="277.3" x2="1157.4" y2="277.3"/>
			<line class="st14" x1="1157.4" y1="341.3" x2="1135.6" y2="341.3"/>
			<line class="st14" x1="1135.6" y1="320" x2="1157.4" y2="320"/>
			<line class="st14" x1="1157.4" y1="384.1" x2="1135.6" y2="384.1"/>
			<line class="st14" x1="1135.6" y1="362.7" x2="1157.4" y2="362.7"/>
		</g>
		<line class="st15" x1="1130" y1="88.6" x2="1122.1" y2="88.6"/>
		<line class="st15" x1="1122.1" y1="67.2" x2="1130" y2="67.2"/>
		<line class="st15" x1="1130" y1="131.3" x2="1122.1" y2="131.3"/>
		<line class="st15" x1="1122.1" y1="110" x2="1130" y2="110"/>
		<line class="st15" x1="1130" y1="174" x2="1122.1" y2="174"/>
		<line class="st15" x1="1122.1" y1="152.7" x2="1130" y2="152.7"/>
		<line class="st15" x1="1130" y1="216.8" x2="1122.1" y2="216.8"/>
		<line class="st15" x1="1122.1" y1="195.4" x2="1130" y2="195.4"/>
		<line class="st15" x1="1130" y1="258" x2="1122.1" y2="258"/>
		<line class="st15" x1="1122.1" y1="236.6" x2="1130" y2="236.6"/>
		<line class="st15" x1="1130" y1="300.7" x2="1122.1" y2="300.7"/>
		<line class="st15" x1="1122.1" y1="279.4" x2="1130" y2="279.4"/>
		<line class="st15" x1="1130" y1="343.4" x2="1122.1" y2="343.4"/>
		<line class="st15" x1="1122.1" y1="322.1" x2="1130" y2="322.1"/>
		<line class="st15" x1="1130" y1="386.2" x2="1122.1" y2="386.2"/>
		<line class="st15" x1="1122.1" y1="364.8" x2="1130" y2="364.8"/>
		<g>
			<line class="st15" x1="1170.9" y1="88.6" x2="1163" y2="88.6"/>
			<line class="st15" x1="1163" y1="67.2" x2="1170.9" y2="67.2"/>
			<line class="st15" x1="1170.9" y1="131.3" x2="1163" y2="131.3"/>
			<line class="st15" x1="1163" y1="110" x2="1170.9" y2="110"/>
			<line class="st15" x1="1170.9" y1="174" x2="1163" y2="174"/>
			<line class="st15" x1="1163" y1="152.7" x2="1170.9" y2="152.7"/>
			<line class="st15" x1="1170.9" y1="216.8" x2="1163" y2="216.8"/>
			<line class="st15" x1="1163" y1="195.4" x2="1170.9" y2="195.4"/>
			<line class="st15" x1="1170.9" y1="258" x2="1163" y2="258"/>
			<line class="st15" x1="1163" y1="236.6" x2="1170.9" y2="236.6"/>
			<line class="st15" x1="1170.9" y1="300.7" x2="1163" y2="300.7"/>
			<line class="st15" x1="1163" y1="279.4" x2="1170.9" y2="279.4"/>
			<line class="st15" x1="1170.9" y1="343.4" x2="1163" y2="343.4"/>
			<line class="st15" x1="1163" y1="322.1" x2="1170.9" y2="322.1"/>
			<line class="st15" x1="1170.9" y1="386.2" x2="1163" y2="386.2"/>
			<line class="st15" x1="1163" y1="364.8" x2="1170.9" y2="364.8"/>
		</g>
	</g>
</g>
<g id="Layer_6">
	<g>
		<g>
			<g>
				<path class="st31" d="M723.3,396.9h46.3v-261l-45-18.2c-0.7-0.3-1.4,0.2-1.4,0.9V396.9z"/>
				<polygon class="st34" points="729,396.9 769.7,396.9 769.7,142.7 729,124.4 				"/>
				<path class="st31" d="M779.6,135.9v261h46.3V118.7c0-0.7-0.7-1.2-1.4-0.9L779.6,135.9z"/>
				<polygon class="st34" points="781.6,141.8 781.6,396.9 822,396.9 822,123.4 				"/>
			</g>
			<g>
				<path class="st31" d="M783.8,103.1v293.8h27.6V92.5c0-0.7-0.7-1.2-1.4-0.9L783.8,103.1z"/>
				<path class="st31" d="M737.9,396.9h27.6V103.1l-26.2-11.6c-0.7-0.3-1.4,0.2-1.4,0.9V396.9z"/>
			</g>
			<g class="st35">
				<path class="st30" d="M785.3,107.9v289h26V97.4c0-0.7-0.7-1.2-1.3-0.9L785.3,107.9z"/>
				<path class="st30" d="M742,396.9h26v-289l-24.7-11.4c-0.6-0.3-1.3,0.2-1.3,0.9V396.9z"/>
			</g>
			<path class="st31" d="M774.2,72.7l-8.6-16.3c-0.5-0.9-1.9-0.6-1.9,0.5v269.7h7.5h6h7.5V57c0-1-1.4-1.4-1.9-0.5L774.2,72.7z"/>
			<path class="st36" d="M774.8,80.6L767.6,67c-0.4-0.9-1.6-0.6-1.6,0.5v259.2h6.3h5.1h6.3V67.4c0-1-1.2-1.3-1.6-0.5L774.8,80.6z"/>
			<polygon class="st32" points="774.6,95.8 751.5,72.2 751.5,326.6 770.2,326.6 779,326.6 797.8,326.6 797.8,72.2 			"/>
			<path class="st36" d="M772.8,104.6l-16.1-16.9c-0.5-0.5-1.3-0.2-1.3,0.5v237.6c0,0.4,0.3,0.7,0.8,0.7h13h8.3h16.8
				c0.4,0,0.8-0.3,0.8-0.7V86.2c0-0.7-0.8-1-1.3-0.5l-19.8,19C773.6,105,773.1,104.9,772.8,104.6z"/>
			<rect x="735.3" y="117.9" class="st37" width="78.7" height="279"/>
			<rect x="742" y="124.4" class="st38" width="69" height="272.5"/>
			<rect x="757.5" y="118.9" class="st32" width="35.2" height="278"/>
			<line class="st32" x1="757.5" y1="138.9" x2="792.7" y2="138.9"/>
			<line class="st32" x1="757.5" y1="158.9" x2="792.7" y2="158.9"/>
			<line class="st32" x1="757.5" y1="178.9" x2="792.7" y2="178.9"/>
			<line class="st32" x1="757.5" y1="198.9" x2="792.7" y2="198.9"/>
			<line class="st32" x1="757.5" y1="218.9" x2="792.7" y2="218.9"/>
			<line class="st32" x1="757.5" y1="238.9" x2="792.7" y2="238.9"/>
			<line class="st32" x1="757.5" y1="258.9" x2="792.7" y2="258.9"/>
			<line class="st32" x1="757.5" y1="278.9" x2="792.7" y2="278.9"/>
			<line class="st32" x1="757.5" y1="298.9" x2="792.7" y2="298.9"/>
			<line class="st32" x1="757.5" y1="318.9" x2="792.7" y2="318.9"/>
			<line class="st32" x1="757.5" y1="338.9" x2="792.7" y2="338.9"/>
			<line class="st32" x1="757.5" y1="358.9" x2="792.7" y2="358.9"/>
			<line class="st32" x1="757.5" y1="378.9" x2="792.7" y2="378.9"/>
			<rect x="764" y="124.9" class="st39" width="25.5" height="270"/>
		</g>
		<circle class="st31" cx="775" cy="114.8" r="12.2"/>
		<circle class="st34" cx="777.8" cy="117.5" r="11.2"/>
	</g>
</g>
<g id="Layer_5">
</g>
<g id="Layer_3">
	<g id="skyone">
		<g>
			<path class="st46" d="M204,397.5h-67c-1.1,0-2-0.9-2-2V112c0-0.7,0.3-1.3,0.9-1.7l67-45.6c1.3-0.9,3.1,0,3.1,1.7v329
				C206,396.6,205.1,397.5,204,397.5z"/>
			<polygon class="st39" points="206,397.5 142,397.5 142,117.6 206,75 			"/>
			<rect x="135.3" y="137.5" class="st31" width="42.7" height="19.5"/>
			<rect x="135.3" y="180.7" class="st31" width="42.7" height="19.5"/>
			<rect x="135.3" y="223.9" class="st31" width="42.7" height="19.5"/>
			<rect x="135.3" y="267.1" class="st31" width="42.7" height="19.5"/>
			<rect x="135.3" y="310.3" class="st31" width="42.7" height="19.5"/>
			<rect x="135.3" y="353.5" class="st31" width="42.7" height="19.5"/>
			<rect x="140" y="137.5" class="st38" width="38" height="19.5"/>
			<rect x="140" y="180.7" class="st38" width="38" height="19.5"/>
			<rect x="140" y="223.9" class="st38" width="38" height="19.5"/>
			<rect x="140" y="267.1" class="st38" width="38" height="19.5"/>
			<rect x="140" y="310.3" class="st38" width="38" height="19.5"/>
			<rect x="140" y="353.5" class="st38" width="38" height="19.5"/>
		</g>
	</g>
	<g>
		<path class="st50" d="M383.5,216v-32.1c0-1-0.8-1.8-1.8-1.8h-21.2c-1,0-1.8-0.8-1.8-1.8v-31.7c0-1-0.8-1.8-1.8-1.8h-23.6
			c-1,0-1.8-0.8-1.8-1.8v-34.1c0-1-0.8-1.8-1.8-1.8h-16.3H295c-1,0-1.8,0.8-1.8,1.8v34.1c0,1-0.8,1.8-1.8,1.8h-22.7
			c-1,0-1.8,0.8-1.8,1.8v31.7c0,1-0.8,1.8-1.8,1.8h-21.2c-1,0-1.8,0.8-1.8,1.8V216c0,1-0.8,1.8-1.8,1.8h-25.8c-1,0-1.8,0.8-1.8,1.8
			v172.6c0,1,0.8,1.8,1.8,1.8h197.7c1,0,1.8-0.8,1.8-1.8V219.6c0-1-0.8-1.8-1.8-1.8h-26.8C384.3,217.8,383.5,217,383.5,216z"/>
		<path class="st53" d="M384.4,219.3V187c0-1-0.8-1.7-1.7-1.7h-21.2c-1,0-1.7-0.8-1.7-1.7v-31.9c0-1-0.8-1.7-1.7-1.7h-22.6
			c-1,0-1.7-0.8-1.7-1.7l-1.8-28.8c0-1-0.8-1.7-1.7-1.7h-15.6h-13.8c-1,0-1.7,0.8-1.7,1.7v32.4c0,1-0.8,1.7-1.7,1.7h-22.6
			c-1,0-1.7,0.8-1.7,1.7v31.9c0,1-0.8,1.7-1.7,1.7h-21.2c-1,0-1.7,0.8-1.7,1.7v32.3c0,1-0.8,1.7-1.7,1.7h-24.7c-1,0-1.7,0.8-1.7,1.7
			v163.9c0,1,0.8,1.7,1.7,1.7h190.2c1,0,1.7-0.8,1.7-1.7V222.7c0-1-0.8-1.7-1.7-1.7h-25.6C385.2,221,384.4,220.2,384.4,219.3z"/>
		<path class="st54" d="M318.9,137.5h-12.5c-1,0-1.8-0.8-1.8-1.8v-14.9c0-1,0.8-1.8,1.8-1.8h12.5c1,0,1.8,0.8,1.8,1.8v14.9
			C320.8,136.7,320,137.5,318.9,137.5z"/>
		<path class="st54" d="M318.9,136.6h-12.5c-1,0-1.8-0.8-1.8-1.8v-14.9c0-1,0.8-1.8,1.8-1.8h12.5c1,0,1.8,0.8,1.8,1.8v14.9
			C320.8,135.8,320,136.6,318.9,136.6z"/>
		<path class="st55" d="M317.9,135.6h-8.7c-0.7,0-1.3-0.6-1.3-1.3V124c0-0.7,0.6-1.3,1.3-1.3h8.7c0.7,0,1.3,0.6,1.3,1.3v10.3
			C319.2,135,318.6,135.6,317.9,135.6z"/>
		<path class="st54" d="M318.9,249.9h-12.5c-1,0-1.8-0.8-1.8-1.8v-14.9c0-1,0.8-1.8,1.8-1.8h12.5c1,0,1.8,0.8,1.8,1.8V248
			C320.8,249,320,249.9,318.9,249.9z"/>
		<path class="st54" d="M318.9,248.9h-12.5c-1,0-1.8-0.8-1.8-1.8v-14.9c0-1,0.8-1.8,1.8-1.8h12.5c1,0,1.8,0.8,1.8,1.8v14.9
			C320.8,248.1,320,248.9,318.9,248.9z"/>
		<path class="st55" d="M317.9,247.9h-8.7c-0.7,0-1.3-0.6-1.3-1.3v-10.3c0-0.7,0.6-1.3,1.3-1.3h8.7c0.7,0,1.3,0.6,1.3,1.3v10.3
			C319.2,247.4,318.6,247.9,317.9,247.9z"/>
		<path class="st54" d="M346.3,249.9h-12.5c-1,0-1.8-0.8-1.8-1.8v-14.9c0-1,0.8-1.8,1.8-1.8h12.5c1,0,1.8,0.8,1.8,1.8V248
			C348.2,249,347.4,249.9,346.3,249.9z"/>
		<path class="st54" d="M346.3,248.9h-12.5c-1,0-1.8-0.8-1.8-1.8v-14.9c0-1,0.8-1.8,1.8-1.8h12.5c1,0,1.8,0.8,1.8,1.8v14.9
			C348.2,248.1,347.4,248.9,346.3,248.9z"/>
		<path class="st55" d="M345.3,247.9h-8.7c-0.7,0-1.3-0.6-1.3-1.3v-10.3c0-0.7,0.6-1.3,1.3-1.3h8.7c0.7,0,1.3,0.6,1.3,1.3v10.3
			C346.6,247.4,346,247.9,345.3,247.9z"/>
		<path class="st54" d="M374.7,249.9h-12.5c-1,0-1.8-0.8-1.8-1.8v-14.9c0-1,0.8-1.8,1.8-1.8h12.5c1,0,1.8,0.8,1.8,1.8V248
			C376.5,249,375.7,249.9,374.7,249.9z"/>
		<path class="st54" d="M374.7,248.9h-12.5c-1,0-1.8-0.8-1.8-1.8v-14.9c0-1,0.8-1.8,1.8-1.8h12.5c1,0,1.8,0.8,1.8,1.8v14.9
			C376.5,248.1,375.7,248.9,374.7,248.9z"/>
		<path class="st55" d="M373.7,247.9H365c-0.7,0-1.3-0.6-1.3-1.3v-10.3c0-0.7,0.6-1.3,1.3-1.3h8.7c0.7,0,1.3,0.6,1.3,1.3v10.3
			C374.9,247.4,374.4,247.9,373.7,247.9z"/>
		<path class="st54" d="M402.1,249.9h-12.5c-1,0-1.8-0.8-1.8-1.8v-14.9c0-1,0.8-1.8,1.8-1.8h12.5c1,0,1.8,0.8,1.8,1.8V248
			C403.9,249,403.1,249.9,402.1,249.9z"/>
		<path class="st54" d="M402.1,248.9h-12.5c-1,0-1.8-0.8-1.8-1.8v-14.9c0-1,0.8-1.8,1.8-1.8h12.5c1,0,1.8,0.8,1.8,1.8v14.9
			C403.9,248.1,403.1,248.9,402.1,248.9z"/>
		<path class="st55" d="M401.1,247.9h-8.7c-0.7,0-1.3-0.6-1.3-1.3v-10.3c0-0.7,0.6-1.3,1.3-1.3h8.7c0.7,0,1.3,0.6,1.3,1.3v10.3
			C402.3,247.4,401.8,247.9,401.1,247.9z"/>
		<path class="st54" d="M291.5,249.9H279c-1,0-1.8-0.8-1.8-1.8v-14.9c0-1,0.8-1.8,1.8-1.8h12.5c1,0,1.8,0.8,1.8,1.8V248
			C293.4,249,292.6,249.9,291.5,249.9z"/>
		<path class="st54" d="M291.5,248.9H279c-1,0-1.8-0.8-1.8-1.8v-14.9c0-1,0.8-1.8,1.8-1.8h12.5c1,0,1.8,0.8,1.8,1.8v14.9
			C293.4,248.1,292.6,248.9,291.5,248.9z"/>
		<path class="st55" d="M290.5,247.9h-8.7c-0.7,0-1.3-0.6-1.3-1.3v-10.3c0-0.7,0.6-1.3,1.3-1.3h8.7c0.7,0,1.3,0.6,1.3,1.3v10.3
			C291.8,247.4,291.2,247.9,290.5,247.9z"/>
		<path class="st54" d="M264.1,249.9h-12.5c-1,0-1.8-0.8-1.8-1.8v-14.9c0-1,0.8-1.8,1.8-1.8h12.5c1,0,1.8,0.8,1.8,1.8V248
			C266,249,265.1,249.9,264.1,249.9z"/>
		<path class="st54" d="M264.1,248.9h-12.5c-1,0-1.8-0.8-1.8-1.8v-14.9c0-1,0.8-1.8,1.8-1.8h12.5c1,0,1.8,0.8,1.8,1.8v14.9
			C266,248.1,265.1,248.9,264.1,248.9z"/>
		<path class="st55" d="M263.1,247.9h-8.7c-0.7,0-1.3-0.6-1.3-1.3v-10.3c0-0.7,0.6-1.3,1.3-1.3h8.7c0.7,0,1.3,0.6,1.3,1.3v10.3
			C264.4,247.4,263.8,247.9,263.1,247.9z"/>
		<path class="st54" d="M236.7,249.9h-12.5c-1,0-1.8-0.8-1.8-1.8v-14.9c0-1,0.8-1.8,1.8-1.8h12.5c1,0,1.8,0.8,1.8,1.8V248
			C238.6,249,237.7,249.9,236.7,249.9z"/>
		<path class="st54" d="M236.7,248.9h-12.5c-1,0-1.8-0.8-1.8-1.8v-14.9c0-1,0.8-1.8,1.8-1.8h12.5c1,0,1.8,0.8,1.8,1.8v14.9
			C238.6,248.1,237.7,248.9,236.7,248.9z"/>
		<path class="st55" d="M235.7,247.9H227c-0.7,0-1.3-0.6-1.3-1.3v-10.3c0-0.7,0.6-1.3,1.3-1.3h8.7c0.7,0,1.3,0.6,1.3,1.3v10.3
			C237,247.4,236.4,247.9,235.7,247.9z"/>
		<path class="st54" d="M318.9,286.4h-12.5c-1,0-1.8-0.8-1.8-1.8v-14.9c0-1,0.8-1.8,1.8-1.8h12.5c1,0,1.8,0.8,1.8,1.8v14.9
			C320.8,285.6,320,286.4,318.9,286.4z"/>
		<path class="st54" d="M318.9,285.5h-12.5c-1,0-1.8-0.8-1.8-1.8v-14.9c0-1,0.8-1.8,1.8-1.8h12.5c1,0,1.8,0.8,1.8,1.8v14.9
			C320.8,284.7,320,285.5,318.9,285.5z"/>
		<path class="st54" d="M346.3,286.4h-12.5c-1,0-1.8-0.8-1.8-1.8v-14.9c0-1,0.8-1.8,1.8-1.8h12.5c1,0,1.8,0.8,1.8,1.8v14.9
			C348.2,285.6,347.4,286.4,346.3,286.4z"/>
		<path class="st54" d="M346.3,285.5h-12.5c-1,0-1.8-0.8-1.8-1.8v-14.9c0-1,0.8-1.8,1.8-1.8h12.5c1,0,1.8,0.8,1.8,1.8v14.9
			C348.2,284.7,347.4,285.5,346.3,285.5z"/>
		<path class="st54" d="M374.7,286.4h-12.5c-1,0-1.8-0.8-1.8-1.8v-14.9c0-1,0.8-1.8,1.8-1.8h12.5c1,0,1.8,0.8,1.8,1.8v14.9
			C376.5,285.6,375.7,286.4,374.7,286.4z"/>
		<path class="st54" d="M374.7,285.5h-12.5c-1,0-1.8-0.8-1.8-1.8v-14.9c0-1,0.8-1.8,1.8-1.8h12.5c1,0,1.8,0.8,1.8,1.8v14.9
			C376.5,284.7,375.7,285.5,374.7,285.5z"/>
		<path class="st54" d="M402.1,286.4h-12.5c-1,0-1.8-0.8-1.8-1.8v-14.9c0-1,0.8-1.8,1.8-1.8h12.5c1,0,1.8,0.8,1.8,1.8v14.9
			C403.9,285.6,403.1,286.4,402.1,286.4z"/>
		<path class="st54" d="M402.1,285.5h-12.5c-1,0-1.8-0.8-1.8-1.8v-14.9c0-1,0.8-1.8,1.8-1.8h12.5c1,0,1.8,0.8,1.8,1.8v14.9
			C403.9,284.7,403.1,285.5,402.1,285.5z"/>
		<path class="st54" d="M291.5,286.4H279c-1,0-1.8-0.8-1.8-1.8v-14.9c0-1,0.8-1.8,1.8-1.8h12.5c1,0,1.8,0.8,1.8,1.8v14.9
			C293.4,285.6,292.6,286.4,291.5,286.4z"/>
		<path class="st54" d="M291.5,285.5H279c-1,0-1.8-0.8-1.8-1.8v-14.9c0-1,0.8-1.8,1.8-1.8h12.5c1,0,1.8,0.8,1.8,1.8v14.9
			C293.4,284.7,292.6,285.5,291.5,285.5z"/>
		<path class="st54" d="M264.1,286.4h-12.5c-1,0-1.8-0.8-1.8-1.8v-14.9c0-1,0.8-1.8,1.8-1.8h12.5c1,0,1.8,0.8,1.8,1.8v14.9
			C266,285.6,265.1,286.4,264.1,286.4z"/>
		<path class="st54" d="M264.1,285.5h-12.5c-1,0-1.8-0.8-1.8-1.8v-14.9c0-1,0.8-1.8,1.8-1.8h12.5c1,0,1.8,0.8,1.8,1.8v14.9
			C266,284.7,265.1,285.5,264.1,285.5z"/>
		<path class="st54" d="M236.7,286.4h-12.5c-1,0-1.8-0.8-1.8-1.8v-14.9c0-1,0.8-1.8,1.8-1.8h12.5c1,0,1.8,0.8,1.8,1.8v14.9
			C238.6,285.6,237.7,286.4,236.7,286.4z"/>
		<path class="st54" d="M236.7,285.5h-12.5c-1,0-1.8-0.8-1.8-1.8v-14.9c0-1,0.8-1.8,1.8-1.8h12.5c1,0,1.8,0.8,1.8,1.8v14.9
			C238.6,284.7,237.7,285.5,236.7,285.5z"/>
		<path class="st54" d="M318.9,324.8h-12.5c-1,0-1.8-0.8-1.8-1.8v-14.9c0-1,0.8-1.8,1.8-1.8h12.5c1,0,1.8,0.8,1.8,1.8v14.9
			C320.8,323.9,320,324.8,318.9,324.8z"/>
		<path class="st54" d="M318.9,323.9h-12.5c-1,0-1.8-0.8-1.8-1.8v-14.9c0-1,0.8-1.8,1.8-1.8h12.5c1,0,1.8,0.8,1.8,1.8V322
			C320.8,323,320,323.9,318.9,323.9z"/>
		<path class="st54" d="M346.3,324.8h-12.5c-1,0-1.8-0.8-1.8-1.8v-14.9c0-1,0.8-1.8,1.8-1.8h12.5c1,0,1.8,0.8,1.8,1.8v14.9
			C348.2,323.9,347.4,324.8,346.3,324.8z"/>
		<path class="st54" d="M346.3,323.9h-12.5c-1,0-1.8-0.8-1.8-1.8v-14.9c0-1,0.8-1.8,1.8-1.8h12.5c1,0,1.8,0.8,1.8,1.8V322
			C348.2,323,347.4,323.9,346.3,323.9z"/>
		<path class="st54" d="M374.7,324.8h-12.5c-1,0-1.8-0.8-1.8-1.8v-14.9c0-1,0.8-1.8,1.8-1.8h12.5c1,0,1.8,0.8,1.8,1.8v14.9
			C376.5,323.9,375.7,324.8,374.7,324.8z"/>
		<path class="st54" d="M374.7,323.9h-12.5c-1,0-1.8-0.8-1.8-1.8v-14.9c0-1,0.8-1.8,1.8-1.8h12.5c1,0,1.8,0.8,1.8,1.8V322
			C376.5,323,375.7,323.9,374.7,323.9z"/>
		<path class="st54" d="M402.1,324.8h-12.5c-1,0-1.8-0.8-1.8-1.8v-14.9c0-1,0.8-1.8,1.8-1.8h12.5c1,0,1.8,0.8,1.8,1.8v14.9
			C403.9,323.9,403.1,324.8,402.1,324.8z"/>
		<path class="st54" d="M402.1,323.9h-12.5c-1,0-1.8-0.8-1.8-1.8v-14.9c0-1,0.8-1.8,1.8-1.8h12.5c1,0,1.8,0.8,1.8,1.8V322
			C403.9,323,403.1,323.9,402.1,323.9z"/>
		<path class="st54" d="M291.5,324.8H279c-1,0-1.8-0.8-1.8-1.8v-14.9c0-1,0.8-1.8,1.8-1.8h12.5c1,0,1.8,0.8,1.8,1.8v14.9
			C293.4,323.9,292.6,324.8,291.5,324.8z"/>
		<path class="st54" d="M291.5,323.9H279c-1,0-1.8-0.8-1.8-1.8v-14.9c0-1,0.8-1.8,1.8-1.8h12.5c1,0,1.8,0.8,1.8,1.8V322
			C293.4,323,292.6,323.9,291.5,323.9z"/>
		<path class="st54" d="M264.1,324.8h-12.5c-1,0-1.8-0.8-1.8-1.8v-14.9c0-1,0.8-1.8,1.8-1.8h12.5c1,0,1.8,0.8,1.8,1.8v14.9
			C266,323.9,265.1,324.8,264.1,324.8z"/>
		<path class="st54" d="M264.1,323.9h-12.5c-1,0-1.8-0.8-1.8-1.8v-14.9c0-1,0.8-1.8,1.8-1.8h12.5c1,0,1.8,0.8,1.8,1.8V322
			C266,323,265.1,323.9,264.1,323.9z"/>
		<path class="st54" d="M236.7,324.8h-12.5c-1,0-1.8-0.8-1.8-1.8v-14.9c0-1,0.8-1.8,1.8-1.8h12.5c1,0,1.8,0.8,1.8,1.8v14.9
			C238.6,323.9,237.7,324.8,236.7,324.8z"/>
		<path class="st54" d="M236.7,323.9h-12.5c-1,0-1.8-0.8-1.8-1.8v-14.9c0-1,0.8-1.8,1.8-1.8h12.5c1,0,1.8,0.8,1.8,1.8V322
			C238.6,323,237.7,323.9,236.7,323.9z"/>
		<path class="st54" d="M264.1,212.4h-12.5c-1,0-1.8-0.8-1.8-1.8v-14.9c0-1,0.8-1.8,1.8-1.8h12.5c1,0,1.8,0.8,1.8,1.8v14.9
			C266,211.6,265.1,212.4,264.1,212.4z"/>
		<path class="st54" d="M264.1,211.5h-12.5c-1,0-1.8-0.8-1.8-1.8v-14.9c0-1,0.8-1.8,1.8-1.8h12.5c1,0,1.8,0.8,1.8,1.8v14.9
			C266,210.7,265.1,211.5,264.1,211.5z"/>
		<path class="st55" d="M263.1,210.5h-8.7c-0.7,0-1.3-0.6-1.3-1.3v-10.3c0-0.7,0.6-1.3,1.3-1.3h8.7c0.7,0,1.3,0.6,1.3,1.3v10.3
			C264.4,209.9,263.8,210.5,263.1,210.5z"/>
		<path class="st54" d="M291.5,212.4H279c-1,0-1.8-0.8-1.8-1.8v-14.9c0-1,0.8-1.8,1.8-1.8h12.5c1,0,1.8,0.8,1.8,1.8v14.9
			C293.4,211.6,292.6,212.4,291.5,212.4z"/>
		<path class="st54" d="M291.5,211.5H279c-1,0-1.8-0.8-1.8-1.8v-14.9c0-1,0.8-1.8,1.8-1.8h12.5c1,0,1.8,0.8,1.8,1.8v14.9
			C293.4,210.7,292.6,211.5,291.5,211.5z"/>
		<path class="st55" d="M290.5,210.5h-8.7c-0.7,0-1.3-0.6-1.3-1.3v-10.3c0-0.7,0.6-1.3,1.3-1.3h8.7c0.7,0,1.3,0.6,1.3,1.3v10.3
			C291.8,209.9,291.2,210.5,290.5,210.5z"/>
		<path class="st54" d="M318.9,212.4h-12.5c-1,0-1.8-0.8-1.8-1.8v-14.9c0-1,0.8-1.8,1.8-1.8h12.5c1,0,1.8,0.8,1.8,1.8v14.9
			C320.8,211.6,320,212.4,318.9,212.4z"/>
		<path class="st54" d="M318.9,211.5h-12.5c-1,0-1.8-0.8-1.8-1.8v-14.9c0-1,0.8-1.8,1.8-1.8h12.5c1,0,1.8,0.8,1.8,1.8v14.9
			C320.8,210.7,320,211.5,318.9,211.5z"/>
		<path class="st55" d="M317.9,210.5h-8.7c-0.7,0-1.3-0.6-1.3-1.3v-10.3c0-0.7,0.6-1.3,1.3-1.3h8.7c0.7,0,1.3,0.6,1.3,1.3v10.3
			C319.2,209.9,318.6,210.5,317.9,210.5z"/>
		<path class="st54" d="M346.3,212.4h-12.5c-1,0-1.8-0.8-1.8-1.8v-14.9c0-1,0.8-1.8,1.8-1.8h12.5c1,0,1.8,0.8,1.8,1.8v14.9
			C348.2,211.6,347.4,212.4,346.3,212.4z"/>
		<path class="st54" d="M346.3,211.5h-12.5c-1,0-1.8-0.8-1.8-1.8v-14.9c0-1,0.8-1.8,1.8-1.8h12.5c1,0,1.8,0.8,1.8,1.8v14.9
			C348.2,210.7,347.4,211.5,346.3,211.5z"/>
		<path class="st55" d="M345.3,210.5h-8.7c-0.7,0-1.3-0.6-1.3-1.3v-10.3c0-0.7,0.6-1.3,1.3-1.3h8.7c0.7,0,1.3,0.6,1.3,1.3v10.3
			C346.6,209.9,346,210.5,345.3,210.5z"/>
		<path class="st54" d="M374.7,212.4h-12.5c-1,0-1.8-0.8-1.8-1.8v-14.9c0-1,0.8-1.8,1.8-1.8h12.5c1,0,1.8,0.8,1.8,1.8v14.9
			C376.5,211.6,375.7,212.4,374.7,212.4z"/>
		<path class="st54" d="M374.7,211.5h-12.5c-1,0-1.8-0.8-1.8-1.8v-14.9c0-1,0.8-1.8,1.8-1.8h12.5c1,0,1.8,0.8,1.8,1.8v14.9
			C376.5,210.7,375.7,211.5,374.7,211.5z"/>
		<path class="st55" d="M373.7,210.5H365c-0.7,0-1.3-0.6-1.3-1.3v-10.3c0-0.7,0.6-1.3,1.3-1.3h8.7c0.7,0,1.3,0.6,1.3,1.3v10.3
			C374.9,209.9,374.4,210.5,373.7,210.5z"/>
		<path class="st54" d="M318.9,175.9h-12.5c-1,0-1.8-0.8-1.8-1.8v-14.9c0-1,0.8-1.8,1.8-1.8h12.5c1,0,1.8,0.8,1.8,1.8V174
			C320.8,175.1,320,175.9,318.9,175.9z"/>
		<path class="st54" d="M318.9,175h-12.5c-1,0-1.8-0.8-1.8-1.8v-14.9c0-1,0.8-1.8,1.8-1.8h12.5c1,0,1.8,0.8,1.8,1.8v14.9
			C320.8,174.1,320,175,318.9,175z"/>
		<path class="st55" d="M317.9,173.9h-8.7c-0.7,0-1.3-0.6-1.3-1.3v-10.3c0-0.7,0.6-1.3,1.3-1.3h8.7c0.7,0,1.3,0.6,1.3,1.3v10.3
			C319.2,173.4,318.6,173.9,317.9,173.9z"/>
		<path class="st54" d="M291.5,175.9H279c-1,0-1.8-0.8-1.8-1.8v-14.9c0-1,0.8-1.8,1.8-1.8h12.5c1,0,1.8,0.8,1.8,1.8V174
			C293.4,175.1,292.6,175.9,291.5,175.9z"/>
		<path class="st54" d="M291.5,175H279c-1,0-1.8-0.8-1.8-1.8v-14.9c0-1,0.8-1.8,1.8-1.8h12.5c1,0,1.8,0.8,1.8,1.8v14.9
			C293.4,174.1,292.6,175,291.5,175z"/>
		<path class="st55" d="M290.5,173.9h-8.7c-0.7,0-1.3-0.6-1.3-1.3v-10.3c0-0.7,0.6-1.3,1.3-1.3h8.7c0.7,0,1.3,0.6,1.3,1.3v10.3
			C291.8,173.4,291.2,173.9,290.5,173.9z"/>
		<path class="st54" d="M347.3,175.9h-12.5c-1,0-1.8-0.8-1.8-1.8v-14.9c0-1,0.8-1.8,1.8-1.8h12.5c1,0,1.8,0.8,1.8,1.8V174
			C349.1,175.1,348.3,175.9,347.3,175.9z"/>
		<path class="st54" d="M347.3,175h-12.5c-1,0-1.8-0.8-1.8-1.8v-14.9c0-1,0.8-1.8,1.8-1.8h12.5c1,0,1.8,0.8,1.8,1.8v14.9
			C349.1,174.1,348.3,175,347.3,175z"/>
		<path class="st55" d="M346.3,173.9h-8.7c-0.7,0-1.3-0.6-1.3-1.3v-10.3c0-0.7,0.6-1.3,1.3-1.3h8.7c0.7,0,1.3,0.6,1.3,1.3v10.3
			C347.5,173.4,346.9,173.9,346.3,173.9z"/>
		<path class="st54" d="M318,362.2h-12.5c-1,0-1.8-0.8-1.8-1.8v-14.9c0-1,0.8-1.8,1.8-1.8H318c1,0,1.8,0.8,1.8,1.8v14.9
			C319.9,361.4,319,362.2,318,362.2z"/>
		<path class="st54" d="M318,361.3h-12.5c-1,0-1.8-0.8-1.8-1.8v-14.9c0-1,0.8-1.8,1.8-1.8H318c1,0,1.8,0.8,1.8,1.8v14.9
			C319.9,360.5,319,361.3,318,361.3z"/>
		<path class="st54" d="M345.4,362.2h-12.5c-1,0-1.8-0.8-1.8-1.8v-14.9c0-1,0.8-1.8,1.8-1.8h12.5c1,0,1.8,0.8,1.8,1.8v14.9
			C347.3,361.4,346.4,362.2,345.4,362.2z"/>
		<path class="st54" d="M345.4,361.3h-12.5c-1,0-1.8-0.8-1.8-1.8v-14.9c0-1,0.8-1.8,1.8-1.8h12.5c1,0,1.8,0.8,1.8,1.8v14.9
			C347.3,360.5,346.4,361.3,345.4,361.3z"/>
		<path class="st54" d="M373.8,362.2h-12.5c-1,0-1.8-0.8-1.8-1.8v-14.9c0-1,0.8-1.8,1.8-1.8h12.5c1,0,1.8,0.8,1.8,1.8v14.9
			C375.6,361.4,374.8,362.2,373.8,362.2z"/>
		<path class="st54" d="M373.8,361.3h-12.5c-1,0-1.8-0.8-1.8-1.8v-14.9c0-1,0.8-1.8,1.8-1.8h12.5c1,0,1.8,0.8,1.8,1.8v14.9
			C375.6,360.5,374.8,361.3,373.8,361.3z"/>
		<path class="st54" d="M401.2,362.2h-12.5c-1,0-1.8-0.8-1.8-1.8v-14.9c0-1,0.8-1.8,1.8-1.8h12.5c1,0,1.8,0.8,1.8,1.8v14.9
			C403,361.4,402.2,362.2,401.2,362.2z"/>
		<path class="st54" d="M401.2,361.3h-12.5c-1,0-1.8-0.8-1.8-1.8v-14.9c0-1,0.8-1.8,1.8-1.8h12.5c1,0,1.8,0.8,1.8,1.8v14.9
			C403,360.5,402.2,361.3,401.2,361.3z"/>
		<path class="st54" d="M290.6,362.2h-12.5c-1,0-1.8-0.8-1.8-1.8v-14.9c0-1,0.8-1.8,1.8-1.8h12.5c1,0,1.8,0.8,1.8,1.8v14.9
			C292.5,361.4,291.6,362.2,290.6,362.2z"/>
		<path class="st54" d="M290.6,361.3h-12.5c-1,0-1.8-0.8-1.8-1.8v-14.9c0-1,0.8-1.8,1.8-1.8h12.5c1,0,1.8,0.8,1.8,1.8v14.9
			C292.5,360.5,291.6,361.3,290.6,361.3z"/>
		<path class="st54" d="M263.2,362.2h-12.5c-1,0-1.8-0.8-1.8-1.8v-14.9c0-1,0.8-1.8,1.8-1.8h12.5c1,0,1.8,0.8,1.8,1.8v14.9
			C265.1,361.4,264.2,362.2,263.2,362.2z"/>
		<path class="st54" d="M263.2,361.3h-12.5c-1,0-1.8-0.8-1.8-1.8v-14.9c0-1,0.8-1.8,1.8-1.8h12.5c1,0,1.8,0.8,1.8,1.8v14.9
			C265.1,360.5,264.2,361.3,263.2,361.3z"/>
		<path class="st54" d="M235.8,362.2h-12.5c-1,0-1.8-0.8-1.8-1.8v-14.9c0-1,0.8-1.8,1.8-1.8h12.5c1,0,1.8,0.8,1.8,1.8v14.9
			C237.6,361.4,236.8,362.2,235.8,362.2z"/>
		<path class="st54" d="M235.8,361.3h-12.5c-1,0-1.8-0.8-1.8-1.8v-14.9c0-1,0.8-1.8,1.8-1.8h12.5c1,0,1.8,0.8,1.8,1.8v14.9
			C237.6,360.5,236.8,361.3,235.8,361.3z"/>
		<path class="st55" d="M317.9,284.5h-8.7c-0.7,0-1.3-0.6-1.3-1.3v-10.3c0-0.7,0.6-1.3,1.3-1.3h8.7c0.7,0,1.3,0.6,1.3,1.3v10.3
			C319.2,283.9,318.6,284.5,317.9,284.5z"/>
		<path class="st55" d="M345.3,284.5h-8.7c-0.7,0-1.3-0.6-1.3-1.3v-10.3c0-0.7,0.6-1.3,1.3-1.3h8.7c0.7,0,1.3,0.6,1.3,1.3v10.3
			C346.6,283.9,346,284.5,345.3,284.5z"/>
		<path class="st55" d="M373.7,284.5H365c-0.7,0-1.3-0.6-1.3-1.3v-10.3c0-0.7,0.6-1.3,1.3-1.3h8.7c0.7,0,1.3,0.6,1.3,1.3v10.3
			C374.9,283.9,374.4,284.5,373.7,284.5z"/>
		<path class="st55" d="M401.1,284.5h-8.7c-0.7,0-1.3-0.6-1.3-1.3v-10.3c0-0.7,0.6-1.3,1.3-1.3h8.7c0.7,0,1.3,0.6,1.3,1.3v10.3
			C402.3,283.9,401.8,284.5,401.1,284.5z"/>
		<path class="st55" d="M290.5,284.5h-8.7c-0.7,0-1.3-0.6-1.3-1.3v-10.3c0-0.7,0.6-1.3,1.3-1.3h8.7c0.7,0,1.3,0.6,1.3,1.3v10.3
			C291.8,283.9,291.2,284.5,290.5,284.5z"/>
		<path class="st55" d="M263.1,284.5h-8.7c-0.7,0-1.3-0.6-1.3-1.3v-10.3c0-0.7,0.6-1.3,1.3-1.3h8.7c0.7,0,1.3,0.6,1.3,1.3v10.3
			C264.4,283.9,263.8,284.5,263.1,284.5z"/>
		<path class="st55" d="M235.7,284.5H227c-0.7,0-1.3-0.6-1.3-1.3v-10.3c0-0.7,0.6-1.3,1.3-1.3h8.7c0.7,0,1.3,0.6,1.3,1.3v10.3
			C237,283.9,236.4,284.5,235.7,284.5z"/>
		<path class="st55" d="M317.9,323.7h-8.7c-0.7,0-1.3-0.6-1.3-1.3v-10.3c0-0.7,0.6-1.3,1.3-1.3h8.7c0.7,0,1.3,0.6,1.3,1.3v10.3
			C319.2,323.2,318.6,323.7,317.9,323.7z"/>
		<path class="st55" d="M345.3,323.7h-8.7c-0.7,0-1.3-0.6-1.3-1.3v-10.3c0-0.7,0.6-1.3,1.3-1.3h8.7c0.7,0,1.3,0.6,1.3,1.3v10.3
			C346.6,323.2,346,323.7,345.3,323.7z"/>
		<path class="st55" d="M373.7,323.7H365c-0.7,0-1.3-0.6-1.3-1.3v-10.3c0-0.7,0.6-1.3,1.3-1.3h8.7c0.7,0,1.3,0.6,1.3,1.3v10.3
			C374.9,323.2,374.4,323.7,373.7,323.7z"/>
		<path class="st56" d="M401.1,323.7h-8.7c-0.7,0-1.3-0.6-1.3-1.3v-10.3c0-0.7,0.6-1.3,1.3-1.3h8.7c0.7,0,1.3,0.6,1.3,1.3v10.3
			C402.3,323.2,401.8,323.7,401.1,323.7z"/>
		<path class="st55" d="M290.5,323.7h-8.7c-0.7,0-1.3-0.6-1.3-1.3v-10.3c0-0.7,0.6-1.3,1.3-1.3h8.7c0.7,0,1.3,0.6,1.3,1.3v10.3
			C291.8,323.2,291.2,323.7,290.5,323.7z"/>
		<path class="st56" d="M263.1,323.7h-8.7c-0.7,0-1.3-0.6-1.3-1.3v-10.3c0-0.7,0.6-1.3,1.3-1.3h8.7c0.7,0,1.3,0.6,1.3,1.3v10.3
			C264.4,323.2,263.8,323.7,263.1,323.7z"/>
		<path class="st56" d="M235.7,323.7H227c-0.7,0-1.3-0.6-1.3-1.3v-10.3c0-0.7,0.6-1.3,1.3-1.3h8.7c0.7,0,1.3,0.6,1.3,1.3v10.3
			C237,323.2,236.4,323.7,235.7,323.7z"/>
		<path class="st56" d="M317.9,360.3h-8.7c-0.7,0-1.3-0.6-1.3-1.3v-10.3c0-0.7,0.6-1.3,1.3-1.3h8.7c0.7,0,1.3,0.6,1.3,1.3V359
			C319.2,359.7,318.6,360.3,317.9,360.3z"/>
		<path class="st56" d="M345.3,360.3h-8.7c-0.7,0-1.3-0.6-1.3-1.3v-10.3c0-0.7,0.6-1.3,1.3-1.3h8.7c0.7,0,1.3,0.6,1.3,1.3V359
			C346.6,359.7,346,360.3,345.3,360.3z"/>
		<path class="st56" d="M373.7,360.3H365c-0.7,0-1.3-0.6-1.3-1.3v-10.3c0-0.7,0.6-1.3,1.3-1.3h8.7c0.7,0,1.3,0.6,1.3,1.3V359
			C374.9,359.7,374.4,360.3,373.7,360.3z"/>
		<path class="st56" d="M401.1,360.3h-8.7c-0.7,0-1.3-0.6-1.3-1.3v-10.3c0-0.7,0.6-1.3,1.3-1.3h8.7c0.7,0,1.3,0.6,1.3,1.3V359
			C402.3,359.7,401.8,360.3,401.1,360.3z"/>
		<path class="st56" d="M290.5,360.3h-8.7c-0.7,0-1.3-0.6-1.3-1.3v-10.3c0-0.7,0.6-1.3,1.3-1.3h8.7c0.7,0,1.3,0.6,1.3,1.3V359
			C291.8,359.7,291.2,360.3,290.5,360.3z"/>
		<path class="st56" d="M263.1,360.3h-8.7c-0.7,0-1.3-0.6-1.3-1.3v-10.3c0-0.7,0.6-1.3,1.3-1.3h8.7c0.7,0,1.3,0.6,1.3,1.3V359
			C264.4,359.7,263.8,360.3,263.1,360.3z"/>
		<path class="st56" d="M235.7,360.3H227c-0.7,0-1.3-0.6-1.3-1.3v-10.3c0-0.7,0.6-1.3,1.3-1.3h8.7c0.7,0,1.3,0.6,1.3,1.3V359
			C237,359.7,236.4,360.3,235.7,360.3z"/>
	</g>
</g>
<g id="Layer_7">
	<g>
		<path class="st5" d="M1111.7,396.9H919.4c-0.6,0-1-0.4-1-1V197.3c0-0.6,0.4-1,1-1h192.3c0.6,0,1,0.4,1,1v198.7
			C1112.7,396.5,1112.3,396.9,1111.7,396.9z"/>
		<path class="st63" d="M1110.8,396.9H924c-0.5,0-1-0.4-1-1V201.4c0-0.5,0.4-1,1-1h186.8c0.5,0,1,0.4,1,1V396
			C1111.7,396.5,1111.3,396.9,1110.8,396.9z"/>
		<path class="st63" d="M1110.8,396.9H924c-0.5,0-1-0.4-1-1V201.4c0-0.5,0.4-1,1-1h186.8c0.5,0,1,0.4,1,1V396
			C1111.7,396.5,1111.3,396.9,1110.8,396.9z"/>
		<path class="st5" d="M1098.5,396.9H932.6c-0.6,0-1-0.4-1-1V174.6c0-0.6,0.4-1,1-1h165.9c0.6,0,1,0.4,1,1v221.4
			C1099.5,396.5,1099.1,396.9,1098.5,396.9z"/>
		<path class="st63" d="M1098.6,396.9H939c-0.5,0-1-0.4-1-1V180.4c0-0.5,0.4-1,1-1h159.6c0.5,0,1,0.4,1,1V396
			C1099.5,396.5,1099.1,396.9,1098.6,396.9z"/>
		<path class="st50" d="M1014.8,129.3l-43,20.4c-0.7,0.3-1.1,1-1.1,1.8v213.4c0,1.1,0.9,2,2,2h43h43c1.1,0,2-0.9,2-2V151.5
			c0-0.8-0.4-1.5-1.1-1.8l-43-20.4C1016,129.1,1015.4,129.1,1014.8,129.3z"/>
		<path class="st50" d="M1014.8,129.3l-43,20.4c-0.7,0.3-1.1,1-1.1,1.8v4.4c0,1.1,0.9,2,2,2h43h43c1.1,0,2-0.9,2-2v-4.4
			c0-0.8-0.4-1.5-1.1-1.8l-43-20.4C1016,129.1,1015.4,129.1,1014.8,129.3z"/>
		<path class="st64" d="M1017,136.6l-40,17.7c-0.6,0.3-1.1,1-1.1,1.7V364c0,1.1,0.8,1.9,1.9,1.9h40h40c1,0,1.9-0.9,1.9-1.9V157.1
			c0-0.7-0.4-1.4-1.1-1.7l-40-18.7C1018.1,136.4,1017.5,136.4,1017,136.6z"/>
		<rect x="969.6" y="159.3" class="st50" width="92.2" height="236.7"/>
		<path class="st5" d="M1032.1,384.4h-32.5c-0.6,0-1-0.4-1-1V177c0-0.6,0.4-1,1-1h32.5c0.6,0,1,0.4,1,1v206.4
			C1033.1,383.9,1032.7,384.4,1032.1,384.4z"/>
		<path class="st5" d="M1031.1,383.4h-32.5c-0.6,0-1-0.4-1-1V176c0-0.6,0.4-1,1-1h32.5c0.6,0,1,0.4,1,1v206.4
			C1032.1,382.9,1031.7,383.4,1031.1,383.4z"/>
		<path class="st64" d="M1031.9,383.3h-27c-0.5,0-0.9-0.4-0.9-0.9v-201c0-0.5,0.4-0.9,0.9-0.9h27c0.5,0,0.9,0.4,0.9,0.9v201
			C1032.8,382.9,1032.4,383.3,1031.9,383.3z"/>
		<path class="st5" d="M959.7,213.5h-15.2c-1.1,0-2-0.9-2-2v-15.9c0-1.1,0.9-2,2-2h15.2c1.1,0,2,0.9,2,2v15.9
			C961.7,212.6,960.8,213.5,959.7,213.5z"/>
		<path class="st5" d="M959.7,256.6h-15.2c-1.1,0-2-0.9-2-2v-15.9c0-1.1,0.9-2,2-2h15.2c1.1,0,2,0.9,2,2v15.9
			C961.7,255.7,960.8,256.6,959.7,256.6z"/>
		<path class="st5" d="M959.7,299.7h-15.2c-1.1,0-2-0.9-2-2v-15.9c0-1.1,0.9-2,2-2h15.2c1.1,0,2,0.9,2,2v15.9
			C961.7,298.8,960.8,299.7,959.7,299.7z"/>
		<path class="st5" d="M959.7,342.8h-15.2c-1.1,0-2-0.9-2-2v-15.9c0-1.1,0.9-2,2-2h15.2c1.1,0,2,0.9,2,2v15.9
			C961.7,341.9,960.8,342.8,959.7,342.8z"/>
		<rect x="942.5" y="366" class="st5" width="19.2" height="19.9"/>
		<path class="st5" d="M959.7,212.5h-15.2c-1.1,0-2-0.9-2-2v-15.9c0-1.1,0.9-2,2-2h15.2c1.1,0,2,0.9,2,2v15.9
			C961.7,211.6,960.8,212.5,959.7,212.5z"/>
		<path class="st5" d="M959.7,255.6h-15.2c-1.1,0-2-0.9-2-2v-15.9c0-1.1,0.9-2,2-2h15.2c1.1,0,2,0.9,2,2v15.9
			C961.7,254.7,960.8,255.6,959.7,255.6z"/>
		<path class="st5" d="M959.7,298.7h-15.2c-1.1,0-2-0.9-2-2v-15.9c0-1.1,0.9-2,2-2h15.2c1.1,0,2,0.9,2,2v15.9
			C961.7,297.8,960.8,298.7,959.7,298.7z"/>
		<path class="st5" d="M959.7,341.8h-15.2c-1.1,0-2-0.9-2-2v-15.9c0-1.1,0.9-2,2-2h15.2c1.1,0,2,0.9,2,2v15.9
			C961.7,340.9,960.8,341.8,959.7,341.8z"/>
		<rect x="942.5" y="365" class="st5" width="19.2" height="19.9"/>
		<path class="st64" d="M960,213.5h-12.3c-0.9,0-1.7-0.7-1.7-1.7v-13.7c0-0.9,0.7-1.7,1.7-1.7H960c0.9,0,1.7,0.7,1.7,1.7v13.7
			C961.7,212.7,960.9,213.5,960,213.5z"/>
		<path class="st64" d="M960,256.5h-12.3c-0.9,0-1.7-0.7-1.7-1.7v-13.7c0-0.9,0.7-1.7,1.7-1.7H960c0.9,0,1.7,0.7,1.7,1.7v13.7
			C961.7,255.7,960.9,256.5,960,256.5z"/>
		<path class="st64" d="M960,299.5h-12.3c-0.9,0-1.7-0.7-1.7-1.7v-13.7c0-0.9,0.7-1.7,1.7-1.7H960c0.9,0,1.7,0.7,1.7,1.7v13.7
			C961.7,298.7,960.9,299.5,960,299.5z"/>
		<path class="st64" d="M960,342.5h-12.3c-0.9,0-1.7-0.7-1.7-1.7v-13.7c0-0.9,0.7-1.7,1.7-1.7H960c0.9,0,1.7,0.7,1.7,1.7v13.7
			C961.7,341.7,960.9,342.5,960,342.5z"/>
		<path class="st64" d="M960,386.5h-12.3c-0.9,0-1.7-0.7-1.7-1.7v-13.7c0-0.9,0.7-1.7,1.7-1.7H960c0.9,0,1.7,0.7,1.7,1.7v13.7
			C961.7,385.7,960.9,386.5,960,386.5z"/>
		<path class="st5" d="M1087.7,213.5h-15.2c-1.1,0-2-0.9-2-2v-15.9c0-1.1,0.9-2,2-2h15.2c1.1,0,2,0.9,2,2v15.9
			C1089.7,212.6,1088.8,213.5,1087.7,213.5z"/>
		<path class="st5" d="M1087.7,256.6h-15.2c-1.1,0-2-0.9-2-2v-15.9c0-1.1,0.9-2,2-2h15.2c1.1,0,2,0.9,2,2v15.9
			C1089.7,255.7,1088.8,256.6,1087.7,256.6z"/>
		<path class="st5" d="M1087.7,299.7h-15.2c-1.1,0-2-0.9-2-2v-15.9c0-1.1,0.9-2,2-2h15.2c1.1,0,2,0.9,2,2v15.9
			C1089.7,298.8,1088.8,299.7,1087.7,299.7z"/>
		<path class="st5" d="M1087.7,342.8h-15.2c-1.1,0-2-0.9-2-2v-15.9c0-1.1,0.9-2,2-2h15.2c1.1,0,2,0.9,2,2v15.9
			C1089.7,341.9,1088.8,342.8,1087.7,342.8z"/>
		<rect x="1070.5" y="366" class="st5" width="19.2" height="19.9"/>
		<path class="st5" d="M1087.7,212.5h-15.2c-1.1,0-2-0.9-2-2v-15.9c0-1.1,0.9-2,2-2h15.2c1.1,0,2,0.9,2,2v15.9
			C1089.7,211.6,1088.8,212.5,1087.7,212.5z"/>
		<path class="st5" d="M1087.7,255.6h-15.2c-1.1,0-2-0.9-2-2v-15.9c0-1.1,0.9-2,2-2h15.2c1.1,0,2,0.9,2,2v15.9
			C1089.7,254.7,1088.8,255.6,1087.7,255.6z"/>
		<path class="st5" d="M1087.7,298.7h-15.2c-1.1,0-2-0.9-2-2v-15.9c0-1.1,0.9-2,2-2h15.2c1.1,0,2,0.9,2,2v15.9
			C1089.7,297.8,1088.8,298.7,1087.7,298.7z"/>
		<path class="st5" d="M1087.7,341.8h-15.2c-1.1,0-2-0.9-2-2v-15.9c0-1.1,0.9-2,2-2h15.2c1.1,0,2,0.9,2,2v15.9
			C1089.7,340.9,1088.8,341.8,1087.7,341.8z"/>
		<rect x="1070.5" y="365" class="st5" width="19.2" height="19.9"/>
		<path class="st64" d="M1088,213.5h-12.3c-0.9,0-1.7-0.7-1.7-1.7v-13.7c0-0.9,0.7-1.7,1.7-1.7h12.3c0.9,0,1.7,0.7,1.7,1.7v13.7
			C1089.7,212.7,1088.9,213.5,1088,213.5z"/>
		<path class="st64" d="M1088,256.5h-12.3c-0.9,0-1.7-0.7-1.7-1.7v-13.7c0-0.9,0.7-1.7,1.7-1.7h12.3c0.9,0,1.7,0.7,1.7,1.7v13.7
			C1089.7,255.7,1088.9,256.5,1088,256.5z"/>
		<path class="st64" d="M1088,299.5h-12.3c-0.9,0-1.7-0.7-1.7-1.7v-13.7c0-0.9,0.7-1.7,1.7-1.7h12.3c0.9,0,1.7,0.7,1.7,1.7v13.7
			C1089.7,298.7,1088.9,299.5,1088,299.5z"/>
		<path class="st64" d="M1088,342.5h-12.3c-0.9,0-1.7-0.7-1.7-1.7v-13.7c0-0.9,0.7-1.7,1.7-1.7h12.3c0.9,0,1.7,0.7,1.7,1.7v13.7
			C1089.7,341.7,1088.9,342.5,1088,342.5z"/>
		<path class="st64" d="M1088,386.5h-12.3c-0.9,0-1.7-0.7-1.7-1.7v-13.7c0-0.9,0.7-1.7,1.7-1.7h12.3c0.9,0,1.7,0.7,1.7,1.7v13.7
			C1089.7,385.7,1088.9,386.5,1088,386.5z"/>
	</g>
</g>
<g id="Layer_17">
	<g>
		<rect x="824.1" y="221" class="st7" width="87.8" height="14.6"/>
		<rect x="816.9" y="234.6" class="st7" width="102.1" height="163.9"/>
		<polyline class="st70" points="865.3,235.6 919,235.6 919,399.5 865.3,399.5 		"/>
		<g>
			<g>
				<path class="st71" d="M906.9,261.8h-79.5c-2.1,0-3.8-1.3-3.8-2.9s1.7-2.9,3.8-2.9h79.5c2.1,0,3.8,1.3,3.8,2.9
					S909,261.8,906.9,261.8z"/>
			</g>
			<g>
				<path class="st71" d="M906.9,281.8h-79.5c-2.1,0-3.8-1.3-3.8-2.9c0-1.6,1.7-2.9,3.8-2.9h79.5c2.1,0,3.8,1.3,3.8,2.9
					C910.7,280.5,909,281.8,906.9,281.8z"/>
			</g>
			<g>
				<path class="st71" d="M906.9,301.7h-79.5c-2.1,0-3.8-1.3-3.8-2.9c0-1.6,1.7-2.9,3.8-2.9h79.5c2.1,0,3.8,1.3,3.8,2.9
					C910.7,300.4,909,301.7,906.9,301.7z"/>
			</g>
			<g>
				<path class="st71" d="M906.9,321.7h-79.5c-2.1,0-3.8-1.3-3.8-2.9s1.7-2.9,3.8-2.9h79.5c2.1,0,3.8,1.3,3.8,2.9
					S909,321.7,906.9,321.7z"/>
			</g>
			<g>
				<line class="st71" x1="906.9" y1="338.7" x2="827.4" y2="338.7"/>
				<path class="st71" d="M906.9,341.6h-79.5c-2.1,0-3.8-1.3-3.8-2.9c0-1.6,1.7-2.9,3.8-2.9h79.5c2.1,0,3.8,1.3,3.8,2.9
					C910.7,340.3,909,341.6,906.9,341.6z"/>
			</g>
			<g>
				<line class="st71" x1="906.9" y1="358.7" x2="827.4" y2="358.7"/>
				<path class="st71" d="M906.9,361.6h-79.5c-2.1,0-3.8-1.3-3.8-2.9s1.7-2.9,3.8-2.9h79.5c2.1,0,3.8,1.3,3.8,2.9
					S909,361.6,906.9,361.6z"/>
			</g>
			<g>
				<line class="st71" x1="906.9" y1="378.6" x2="827.4" y2="378.6"/>
				<path class="st71" d="M906.9,381.5h-79.5c-2.1,0-3.8-1.3-3.8-2.9c0-1.6,1.7-2.9,3.8-2.9h79.5c2.1,0,3.8,1.3,3.8,2.9
					C910.7,380.2,909,381.5,906.9,381.5z"/>
			</g>
		</g>
		<g>
			<g>
				<path class="st7" d="M906.9,260.8h-79.5c-2.1,0-3.8-1.3-3.8-2.9s1.7-2.9,3.8-2.9h79.5c2.1,0,3.8,1.3,3.8,2.9
					S909,260.8,906.9,260.8z"/>
			</g>
			<g>
				<path class="st7" d="M906.9,280.8h-79.5c-2.1,0-3.8-1.3-3.8-2.9c0-1.6,1.7-2.9,3.8-2.9h79.5c2.1,0,3.8,1.3,3.8,2.9
					C910.7,279.5,909,280.8,906.9,280.8z"/>
			</g>
			<g>
				<path class="st7" d="M906.9,300.7h-79.5c-2.1,0-3.8-1.3-3.8-2.9c0-1.6,1.7-2.9,3.8-2.9h79.5c2.1,0,3.8,1.3,3.8,2.9
					C910.7,299.4,909,300.7,906.9,300.7z"/>
			</g>
			<g>
				<path class="st7" d="M906.9,320.7h-79.5c-2.1,0-3.8-1.3-3.8-2.9c0-1.6,1.7-2.9,3.8-2.9h79.5c2.1,0,3.8,1.3,3.8,2.9
					C910.7,319.4,909,320.7,906.9,320.7z"/>
			</g>
			<g>
				<line class="st7" x1="906.9" y1="337.7" x2="827.4" y2="337.7"/>
				<path class="st7" d="M906.9,340.6h-79.5c-2.1,0-3.8-1.3-3.8-2.9s1.7-2.9,3.8-2.9h79.5c2.1,0,3.8,1.3,3.8,2.9
					S909,340.6,906.9,340.6z"/>
			</g>
			<g>
				<line class="st7" x1="906.9" y1="357.7" x2="827.4" y2="357.7"/>
				<path class="st7" d="M906.9,360.6h-79.5c-2.1,0-3.8-1.3-3.8-2.9c0-1.6,1.7-2.9,3.8-2.9h79.5c2.1,0,3.8,1.3,3.8,2.9
					C910.7,359.3,909,360.6,906.9,360.6z"/>
			</g>
			<g>
				<line class="st7" x1="906.9" y1="377.6" x2="827.4" y2="377.6"/>
				<path class="st7" d="M906.9,380.5h-79.5c-2.1,0-3.8-1.3-3.8-2.9c0-1.6,1.7-2.9,3.8-2.9h79.5c2.1,0,3.8,1.3,3.8,2.9
					C910.7,379.2,909,380.5,906.9,380.5z"/>
			</g>
		</g>
	</g>
	<rect x="824.1" y="221" class="st72" width="87.8" height="14.6"/>
	<polyline class="st73" points="866.3,235.6 911.9,235.6 911.9,221 866.3,221 	"/>
</g>
<g id="Layer_10">
</g>
<g id="Layer_13">
	<g>
		<polygon class="st77" points="1117.4,315 1117.4,289.8 1011.5,289.8 1011.5,313.8 922.2,313.8 922.2,341.3 862.2,341.3 
			862.2,399.5 1117.4,399.5 		"/>
		<rect x="1021" y="303.5" class="st77" width="10.6" height="8.6"/>
		<rect x="1021" y="329" class="st77" width="10.6" height="8.6"/>
		<rect x="1021" y="354.4" class="st77" width="10.6" height="8.6"/>
		<rect x="1058" y="303.5" class="st77" width="10.6" height="8.6"/>
		<rect x="1058" y="329" class="st77" width="10.6" height="8.6"/>
		<rect x="1058" y="354.4" class="st77" width="10.6" height="8.6"/>
		<rect x="1095" y="303.5" class="st77" width="10.6" height="8.6"/>
		<rect x="1095" y="329" class="st77" width="10.6" height="8.6"/>
		<rect x="1095" y="354.4" class="st77" width="10.6" height="8.6"/>
		<rect x="932.3" y="329" class="st77" width="10.6" height="8.6"/>
		<rect x="932.3" y="354.4" class="st77" width="10.6" height="8.6"/>
		<rect x="960.2" y="329" class="st77" width="10.6" height="8.6"/>
		<rect x="960.2" y="354.4" class="st77" width="10.6" height="8.6"/>
		<rect x="988.1" y="329" class="st77" width="10.6" height="8.6"/>
		<rect x="988.1" y="354.4" class="st77" width="10.6" height="8.6"/>
		<rect x="1021" y="381.8" class="st77" width="10.6" height="8.6"/>
		<rect x="1058" y="381.8" class="st77" width="10.6" height="8.6"/>
		<rect x="1095" y="381.8" class="st77" width="10.6" height="8.6"/>
		<rect x="932.3" y="381.8" class="st77" width="10.6" height="8.6"/>
		<rect x="936" y="329" class="st78" width="6.9" height="8.6"/>
		<rect x="936" y="354.4" class="st78" width="6.9" height="8.6"/>
		<rect x="936" y="381.8" class="st78" width="6.9" height="8.6"/>
		<rect x="960.2" y="381.8" class="st77" width="10.6" height="8.6"/>
		<rect x="964" y="329" class="st78" width="6.9" height="8.6"/>
		<rect x="964" y="354.4" class="st78" width="6.9" height="8.6"/>
		<rect x="964" y="381.8" class="st78" width="6.9" height="8.6"/>
		<rect x="875.3" y="354.4" class="st77" width="10.6" height="8.6"/>
		<rect x="903.2" y="354.4" class="st77" width="10.6" height="8.6"/>
		<rect x="875.3" y="381.8" class="st77" width="10.6" height="8.6"/>
		<rect x="879" y="354.4" class="st78" width="6.9" height="8.6"/>
		<rect x="879" y="381.8" class="st78" width="6.9" height="8.6"/>
		<rect x="903.2" y="381.8" class="st77" width="10.6" height="8.6"/>
		<rect x="907" y="354.4" class="st78" width="6.9" height="8.6"/>
		<rect x="907" y="381.8" class="st78" width="6.9" height="8.6"/>
		<rect x="988.1" y="381.8" class="st77" width="10.6" height="8.6"/>
		<rect x="992" y="329" class="st78" width="6.9" height="8.6"/>
		<rect x="992" y="354.4" class="st78" width="6.9" height="8.6"/>
		<rect x="992" y="381.8" class="st78" width="6.9" height="8.6"/>
		<rect x="1025" y="329" class="st78" width="6.9" height="8.6"/>
		<rect x="1025" y="354.4" class="st78" width="6.9" height="8.6"/>
		<rect x="1025" y="381.8" class="st78" width="6.9" height="8.6"/>
		<rect x="1062" y="329" class="st78" width="6.9" height="8.6"/>
		<rect x="1062" y="354.4" class="st78" width="6.9" height="8.6"/>
		<rect x="1062" y="381.8" class="st78" width="6.9" height="8.6"/>
		<rect x="1099" y="329" class="st78" width="6.9" height="8.6"/>
		<rect x="1025" y="303" class="st78" width="6.9" height="8.6"/>
		<rect x="1062" y="303" class="st78" width="6.9" height="8.6"/>
		<rect x="1099" y="303" class="st78" width="6.9" height="8.6"/>
		<rect x="1099" y="354.4" class="st78" width="6.9" height="8.6"/>
		<rect x="1099" y="381.8" class="st78" width="6.9" height="8.6"/>
	</g>
</g>
<g id="Layer_12">
</g>
<g id="Layer_8">
	<g>
		<polygon class="st80" points="526.7,200.1 526.7,167.2 517.4,167.2 517.4,135.3 501,135.3 476.7,97 452.4,135.3 435.9,135.3 
			435.9,167.2 426.6,167.2 426.6,200.1 421.4,200.1 421.4,397.5 531.9,397.5 531.9,200.1 		"/>
		<path class="st72" d="M525.2,202v-30.3c0-0.6-0.5-1-1-1h-6.6c-0.6,0-1-0.5-1-1v-29.4c0-0.6-0.5-1-1-1h-13.6
			c-0.4,0-0.7-0.2-0.9-0.5l-21.3-32.6c-0.4-0.7-1.3-0.7-1.7,0l-21.3,34.7c-0.2,0.3-0.5,0.5-0.9,0.5h-11.5c-0.6,0-1,0.5-1,1v30.4
			c0,0.6-0.5,1-1,1h-6.6c-0.6,0-1,0.5-1,1V202c0,0.6-0.5,1-1,1H431c-0.6,0-1,0.5-1,1v192.4c0,0.6,0.5,1,1,1h97.9c0.6,0,1-0.5,1-1
			V204.1c0-0.6-0.5-1-1-1h-2.7C525.6,203.1,525.2,202.6,525.2,202z"/>
		<polyline class="st81" points="497.9,170 476.7,136.5 455.4,170 		"/>
		<polyline class="st81" points="497.9,202 476.7,168.5 455.4,202 		"/>
		<line class="st82" x1="452.8" y1="397.5" x2="452.8" y2="211.4"/>
		<line class="st82" x1="500.5" y1="211.4" x2="500.5" y2="397.5"/>
		<path class="st83" d="M483.4,228.1H470c-0.6,0-1.1-0.5-1.1-1.1v-13.2c0-0.6,0.5-1.1,1.1-1.1h13.4c0.6,0,1.1,0.5,1.1,1.1v13.2
			C484.6,227.6,484.1,228.1,483.4,228.1z"/>
		<path class="st84" d="M483.9,228.7h-9.6c-0.4,0-0.8-0.4-0.8-0.8v-9.4c0-0.4,0.4-0.8,0.8-0.8h9.6c0.4,0,0.8,0.4,0.8,0.8v9.4
			C484.7,228.4,484.4,228.7,483.9,228.7z"/>
		<path class="st83" d="M483.4,256.7H470c-0.6,0-1.1-0.5-1.1-1.1v-13.2c0-0.6,0.5-1.1,1.1-1.1h13.4c0.6,0,1.1,0.5,1.1,1.1v13.2
			C484.6,256.2,484.1,256.7,483.4,256.7z"/>
		<path class="st84" d="M483.9,257h-9.6c-0.4,0-0.8-0.4-0.8-0.8v-9.4c0-0.4,0.4-0.8,0.8-0.8h9.6c0.4,0,0.8,0.4,0.8,0.8v9.4
			C484.7,256.7,484.4,257,483.9,257z"/>
		<path class="st83" d="M483.4,285.4H470c-0.6,0-1.1-0.5-1.1-1.1v-13.2c0-0.6,0.5-1.1,1.1-1.1h13.4c0.6,0,1.1,0.5,1.1,1.1v13.2
			C484.6,284.9,484.1,285.4,483.4,285.4z"/>
		<path class="st84" d="M483.9,285.3h-9.6c-0.4,0-0.8-0.4-0.8-0.8v-9.4c0-0.4,0.4-0.8,0.8-0.8h9.6c0.4,0,0.8,0.4,0.8,0.8v9.4
			C484.7,285,484.4,285.3,483.9,285.3z"/>
		<path class="st83" d="M483.4,314H470c-0.6,0-1.1-0.5-1.1-1.1v-13.2c0-0.6,0.5-1.1,1.1-1.1h13.4c0.6,0,1.1,0.5,1.1,1.1v13.2
			C484.6,313.5,484.1,314,483.4,314z"/>
		<path class="st84" d="M483.9,314.7h-9.6c-0.4,0-0.8-0.4-0.8-0.8v-9.4c0-0.4,0.4-0.8,0.8-0.8h9.6c0.4,0,0.8,0.4,0.8,0.8v9.4
			C484.7,314.3,484.4,314.7,483.9,314.7z"/>
		<path class="st82" d="M483.1,341.9h-12.8c-0.6,0-1.1-0.5-1.1-1.1v-12.6c0-0.6,0.5-1.1,1.1-1.1h12.8c0.6,0,1.1,0.5,1.1,1.1v12.6
			C484.2,341.5,483.7,341.9,483.1,341.9z"/>
	</g>
	<g id="Layer_15">
	</g>
	<g>
		<polygon class="st46" points="407.6,332.1 407.6,304.5 251.7,304.5 251.7,330.7 154,330.7 154,399.5 251.7,399.5 253.5,399.5 
			405.5,399.5 407.6,399.5 486.1,399.5 486.1,332.1 		"/>
		<rect x="262.1" y="319.4" class="st46" width="11.6" height="9.4"/>
		<rect x="262.1" y="347.3" class="st46" width="11.6" height="9.4"/>
		<rect x="262.1" y="375.2" class="st46" width="11.6" height="9.4"/>
		<rect x="302.6" y="319.4" class="st46" width="11.6" height="9.4"/>
		<rect x="302.6" y="347.3" class="st46" width="11.6" height="9.4"/>
		<rect x="302.6" y="375.2" class="st46" width="11.6" height="9.4"/>
		<rect x="343" y="319.4" class="st46" width="11.6" height="9.4"/>
		<rect x="343" y="347.3" class="st46" width="11.6" height="9.4"/>
		<rect x="343" y="375.2" class="st46" width="11.6" height="9.4"/>
		<rect x="383.5" y="319.4" class="st46" width="11.6" height="9.4"/>
		<rect x="383.5" y="347.3" class="st46" width="11.6" height="9.4"/>
		<rect x="383.5" y="375.2" class="st46" width="11.6" height="9.4"/>
		<rect x="425" y="347.3" class="st46" width="11.6" height="9.4"/>
		<rect x="425" y="375.2" class="st46" width="11.6" height="9.4"/>
		<rect x="454.6" y="347.3" class="st46" width="11.6" height="9.4"/>
		<rect x="454.6" y="375.2" class="st46" width="11.6" height="9.4"/>
		<rect x="165.1" y="347.3" class="st46" width="11.6" height="9.4"/>
		<rect x="165.1" y="375.2" class="st46" width="11.6" height="9.4"/>
		<rect x="169" y="347.3" class="st78" width="7.6" height="9.4"/>
		<rect x="169" y="375.2" class="st78" width="7.6" height="9.4"/>
		<rect x="195.6" y="347.3" class="st46" width="11.6" height="9.4"/>
		<rect x="195.6" y="375.2" class="st46" width="11.6" height="9.4"/>
		<rect x="199" y="347.3" class="st78" width="7.6" height="9.4"/>
		<rect x="199" y="375.2" class="st78" width="7.6" height="9.4"/>
		<rect x="226.1" y="347.3" class="st46" width="11.6" height="9.4"/>
		<rect x="226.1" y="375.2" class="st46" width="11.6" height="9.4"/>
		<rect x="230" y="347.3" class="st78" width="7.6" height="9.4"/>
		<rect x="230" y="375.2" class="st78" width="7.6" height="9.4"/>
		<rect x="266" y="347.3" class="st78" width="7.6" height="9.4"/>
		<rect x="266" y="375.2" class="st78" width="7.6" height="9.4"/>
		<rect x="306" y="347.3" class="st78" width="7.6" height="9.4"/>
		<rect x="306" y="375.2" class="st78" width="7.6" height="9.4"/>
		<rect x="347" y="347.3" class="st78" width="7.6" height="9.4"/>
		<rect x="347" y="375.2" class="st78" width="7.6" height="9.4"/>
		<rect x="387" y="347.3" class="st78" width="7.6" height="9.4"/>
		<rect x="266" y="319.3" class="st78" width="7.6" height="9.4"/>
		<rect x="306" y="319.3" class="st78" width="7.6" height="9.4"/>
		<rect x="347" y="319.3" class="st78" width="7.6" height="9.4"/>
		<rect x="387" y="319.3" class="st78" width="7.6" height="9.4"/>
		<rect x="387" y="375.2" class="st78" width="7.6" height="9.4"/>
		<rect x="429" y="347.3" class="st78" width="7.6" height="9.4"/>
		<rect x="429" y="375.2" class="st78" width="7.6" height="9.4"/>
		<rect x="459" y="347.3" class="st78" width="7.6" height="9.4"/>
		<rect x="459" y="375.2" class="st78" width="7.6" height="9.4"/>
	</g>
</g>
<g id="capitol">
	<rect x="540" y="197.6" class="st97" width="59.5" height="202.9"/>
	<rect x="544.5" y="200.3" class="st53" width="55" height="200.2"/>
	<rect x="551.4" y="200.3" class="st53" width="35.4" height="197.9"/>
	<g>
		<g>
			<g>
				<path class="st98" d="M556.8,391.3c-1.5,0-2.8-1.2-2.8-2.8v-9.2c0-1.5,1.2-2.8,2.8-2.8c1.5,0,2.8,1.2,2.8,2.8v9.2
					C559.6,390,558.4,391.3,556.8,391.3z M556.8,363.5c-1.5,0-2.8-1.2-2.8-2.8v-9.2c0-1.5,1.2-2.8,2.8-2.8c1.5,0,2.8,1.2,2.8,2.8
					v9.2C559.6,362.3,558.4,363.5,556.8,363.5z M556.8,335.8c-1.5,0-2.8-1.2-2.8-2.8v-9.2c0-1.5,1.2-2.8,2.8-2.8
					c1.5,0,2.8,1.2,2.8,2.8v9.2C559.6,334.5,558.4,335.8,556.8,335.8z M556.8,308c-1.5,0-2.8-1.2-2.8-2.8V296c0-1.5,1.2-2.8,2.8-2.8
					c1.5,0,2.8,1.2,2.8,2.8v9.2C559.6,306.8,558.4,308,556.8,308z M556.8,280.3c-1.5,0-2.8-1.2-2.8-2.8v-9.2c0-1.5,1.2-2.8,2.8-2.8
					c1.5,0,2.8,1.2,2.8,2.8v9.2C559.6,279.1,558.4,280.3,556.8,280.3z M556.8,252.6c-1.5,0-2.8-1.2-2.8-2.8v-9.2
					c0-1.5,1.2-2.8,2.8-2.8c1.5,0,2.8,1.2,2.8,2.8v9.2C559.6,251.3,558.4,252.6,556.8,252.6z M556.8,224.8c-1.5,0-2.8-1.2-2.8-2.8
					v-9.2c0-1.5,1.2-2.8,2.8-2.8c1.5,0,2.8,1.2,2.8,2.8v9.2C559.6,223.6,558.4,224.8,556.8,224.8z"/>
			</g>
		</g>
		<g>
			<g>
				<path class="st98" d="M569.8,391.3c-1.5,0-2.8-1.2-2.8-2.8v-9.2c0-1.5,1.2-2.8,2.8-2.8c1.5,0,2.8,1.2,2.8,2.8v9.2
					C572.6,390,571.3,391.3,569.8,391.3z M569.8,363.5c-1.5,0-2.8-1.2-2.8-2.8v-9.2c0-1.5,1.2-2.8,2.8-2.8c1.5,0,2.8,1.2,2.8,2.8
					v9.2C572.6,362.3,571.3,363.5,569.8,363.5z M569.8,335.8c-1.5,0-2.8-1.2-2.8-2.8v-9.2c0-1.5,1.2-2.8,2.8-2.8
					c1.5,0,2.8,1.2,2.8,2.8v9.2C572.6,334.5,571.3,335.8,569.8,335.8z M569.8,308c-1.5,0-2.8-1.2-2.8-2.8V296c0-1.5,1.2-2.8,2.8-2.8
					c1.5,0,2.8,1.2,2.8,2.8v9.2C572.6,306.8,571.3,308,569.8,308z M569.8,280.3c-1.5,0-2.8-1.2-2.8-2.8v-9.2c0-1.5,1.2-2.8,2.8-2.8
					c1.5,0,2.8,1.2,2.8,2.8v9.2C572.6,279.1,571.3,280.3,569.8,280.3z M569.8,252.6c-1.5,0-2.8-1.2-2.8-2.8v-9.2
					c0-1.5,1.2-2.8,2.8-2.8c1.5,0,2.8,1.2,2.8,2.8v9.2C572.6,251.3,571.3,252.6,569.8,252.6z M569.8,224.8c-1.5,0-2.8-1.2-2.8-2.8
					v-9.2c0-1.5,1.2-2.8,2.8-2.8c1.5,0,2.8,1.2,2.8,2.8v9.2C572.6,223.6,571.3,224.8,569.8,224.8z"/>
			</g>
		</g>
		<g>
			<g>
				<path class="st98" d="M581.8,391.3c-1.5,0-2.8-1.2-2.8-2.8v-9.2c0-1.5,1.2-2.8,2.8-2.8s2.8,1.2,2.8,2.8v9.2
					C584.6,390,583.3,391.3,581.8,391.3z M581.8,363.5c-1.5,0-2.8-1.2-2.8-2.8v-9.2c0-1.5,1.2-2.8,2.8-2.8s2.8,1.2,2.8,2.8v9.2
					C584.6,362.3,583.3,363.5,581.8,363.5z M581.8,335.8c-1.5,0-2.8-1.2-2.8-2.8v-9.2c0-1.5,1.2-2.8,2.8-2.8s2.8,1.2,2.8,2.8v9.2
					C584.6,334.5,583.3,335.8,581.8,335.8z M581.8,308c-1.5,0-2.8-1.2-2.8-2.8V296c0-1.5,1.2-2.8,2.8-2.8s2.8,1.2,2.8,2.8v9.2
					C584.6,306.8,583.3,308,581.8,308z M581.8,280.3c-1.5,0-2.8-1.2-2.8-2.8v-9.2c0-1.5,1.2-2.8,2.8-2.8s2.8,1.2,2.8,2.8v9.2
					C584.6,279.1,583.3,280.3,581.8,280.3z M581.8,252.6c-1.5,0-2.8-1.2-2.8-2.8v-9.2c0-1.5,1.2-2.8,2.8-2.8s2.8,1.2,2.8,2.8v9.2
					C584.6,251.3,583.3,252.6,581.8,252.6z M581.8,224.8c-1.5,0-2.8-1.2-2.8-2.8v-9.2c0-1.5,1.2-2.8,2.8-2.8s2.8,1.2,2.8,2.8v9.2
					C584.6,223.6,583.3,224.8,581.8,224.8z"/>
			</g>
		</g>
	</g>
	<line class="st99" x1="560.8" y1="197.6" x2="578.7" y2="197.6"/>
	<g>
		<rect x="548.9" y="133" class="st100" width="41.6" height="7.1"/>
		<rect x="547.9" y="147.5" class="st100" width="43.6" height="49.3"/>
		<g>
			<rect x="555.6" y="147.5" class="st100" width="28" height="49.3"/>
			<rect x="565.7" y="147.5" class="st101" width="7.9" height="49.3"/>
		</g>
		<g class="st102">
			<rect x="555.6" y="147.5" class="st103" width="28" height="49.3"/>
			<rect x="565.7" y="147.5" class="st103" width="7.9" height="49.3"/>
		</g>
		<rect x="544.4" y="187.1" class="st97" width="50.5" height="9.7"/>
		<rect x="544.4" y="140.1" class="st97" width="50.5" height="9.7"/>
		<circle class="st100" cx="569.6" cy="180.9" r="12.5"/>
		<circle class="st55" cx="571.5" cy="183.7" r="12.5"/>
	</g>
	<rect x="497.6" y="318" class="st104" width="353.1" height="80.8"/>
	<rect x="526.1" y="304.4" class="st105" width="296.1" height="95.5"/>
	<g>
		<polygon class="st106" points="675.1,155.3 675.1,152 672.7,152 672.7,155.3 670.8,155.3 670.8,163.6 671.7,163.6 671.7,169 
			675.8,169 675.8,163.6 676.7,163.6 676.7,155.3 		"/>
		<rect x="631.6" y="237.1" class="st107" width="84.4" height="38.9"/>
		<path class="st108" d="M668.3,173c0-2.9,2.4-5.3,5.4-5.3c3,0,5.4,2.4,5.4,5.3"/>
		<rect x="666.5" y="174.3" class="st109" width="14.6" height="7.3"/>
		<rect x="666.5" y="174.3" class="st110" width="14.6" height="7.3"/>
		<g>
			<rect x="638.3" y="214.1" class="st111" width="70.5" height="22.8"/>
			<rect x="698.5" y="219.3" class="st108" width="4.5" height="14"/>
			<rect x="687.7" y="219.3" class="st108" width="4.5" height="14"/>
			<rect x="677" y="219.3" class="st108" width="4.5" height="14"/>
			<rect x="698.5" y="218.9" class="st110" width="4.5" height="14"/>
			<rect x="687.7" y="218.9" class="st110" width="4.5" height="14"/>
			<rect x="677" y="218.9" class="st110" width="4.5" height="14"/>
			<rect x="666.2" y="218.9" class="st110" width="4.5" height="14"/>
			<rect x="655.4" y="218.9" class="st110" width="4.5" height="14"/>
			<rect x="644.6" y="218.9" class="st110" width="4.5" height="14"/>
			<rect x="666.2" y="219.3" class="st112" width="4.5" height="14"/>
			<rect x="655.4" y="219.3" class="st112" width="4.5" height="14"/>
			<rect x="644.6" y="219.3" class="st112" width="4.5" height="14"/>
			<rect x="637.6" y="243.1" class="st113" width="14.1" height="27.2"/>
			<rect x="656.6" y="243.1" class="st113" width="14.1" height="27.2"/>
			<rect x="677" y="243.1" class="st113" width="14.1" height="27.2"/>
			<rect x="696" y="243.1" class="st113" width="14.1" height="27.2"/>
			<path class="st110" d="M650,272h-7.9c-0.9,0-1.7-0.8-1.7-1.7v-24.6c0-0.9,0.8-1.7,1.7-1.7h7.9c0.9,0,1.7,0.8,1.7,1.7v24.6
				C651.7,271.3,650.9,272,650,272z"/>
			<path class="st110" d="M668.8,272h-7.9c-0.9,0-1.7-0.8-1.7-1.7v-24.6c0-0.9,0.8-1.7,1.7-1.7h7.9c0.9,0,1.7,0.8,1.7,1.7v24.6
				C670.5,271.3,669.7,272,668.8,272z"/>
			<path class="st110" d="M689.3,272h-7.9c-0.9,0-1.7-0.8-1.7-1.7v-24.6c0-0.9,0.8-1.7,1.7-1.7h7.9c0.9,0,1.7,0.8,1.7,1.7v24.6
				C691,271.3,690.2,272,689.3,272z"/>
			<path class="st110" d="M708.1,272h-7.9c-0.9,0-1.7-0.8-1.7-1.7v-24.6c0-0.9,0.8-1.7,1.7-1.7h7.9c0.9,0,1.7,0.8,1.7,1.7v24.6
				C709.8,271.3,709,272,708.1,272z"/>
			<path class="st114" d="M673.4,181.9c-25,0.2-31.4,15.1-31.4,30.5h62.1c0-15.4-6.5-30.3-31.4-30.5"/>
			<path class="st110" d="M676.8,182.7c-25,0.2-31.4,15.1-31.4,30.5h62.1c0-15.4-6.5-30.3-31.4-30.5"/>
		</g>
	</g>
	<rect x="604.2" y="291.2" class="st104" width="139.5" height="15.4"/>
	<polygon class="st115" points="737.5,290.5 610.2,290.5 610.2,274.1 673.2,262 737.5,274.1 	"/>
	<polygon class="st104" points="736.4,290.5 611,290.5 611,283.7 673,273.3 736.4,283.7 	"/>
	<polygon class="st110" points="736.5,290.5 615.3,290.5 615.3,287.1 675.3,278.5 736.5,287.1 	"/>
	<rect x="608.2" y="308.1" class="st104" width="131.6" height="89.1"/>
	<rect x="599.6" y="308.1" class="st104" width="148.7" height="18.5"/>
	<g>
		<rect x="608.8" y="313.3" class="st104" width="12.9" height="9.6"/>
		<rect x="632.3" y="313.3" class="st104" width="12.9" height="9.6"/>
		<rect x="655.8" y="313.3" class="st104" width="12.9" height="9.6"/>
		<rect x="679.2" y="313.3" class="st104" width="12.9" height="9.6"/>
		<rect x="702.7" y="313.3" class="st104" width="12.9" height="9.6"/>
		<rect x="726.2" y="313.3" class="st104" width="12.9" height="9.6"/>
		<rect x="608.8" y="312.3" class="st104" width="12.9" height="9.6"/>
		<path class="st110" d="M621.8,321.9h-8.4c-0.5,0-0.9-0.4-0.9-0.9v-5.3c0-0.5,0.4-0.9,0.9-0.9h8.4c0.5,0,0.9,0.4,0.9,0.9v5.3
			C622.7,321.5,622.3,321.9,621.8,321.9z"/>
		<rect x="632.3" y="312.3" class="st104" width="12.9" height="9.6"/>
		<path class="st110" d="M644.9,321.9h-8.4c-0.5,0-0.9-0.4-0.9-0.9v-5.3c0-0.5,0.4-0.9,0.9-0.9h8.4c0.5,0,0.9,0.4,0.9,0.9v5.3
			C645.8,321.5,645.4,321.9,644.9,321.9z"/>
		<rect x="655.8" y="312.3" class="st104" width="12.9" height="9.6"/>
		<rect x="679.2" y="312.3" class="st104" width="12.9" height="9.6"/>
		<path class="st110" d="M668,321.9h-8.4c-0.5,0-0.9-0.4-0.9-0.9v-5.3c0-0.5,0.4-0.9,0.9-0.9h8.4c0.5,0,0.9,0.4,0.9,0.9v5.3
			C668.9,321.5,668.5,321.9,668,321.9z"/>
		<path class="st110" d="M691,321.9h-8.4c-0.5,0-0.9-0.4-0.9-0.9v-5.3c0-0.5,0.4-0.9,0.9-0.9h8.4c0.5,0,0.9,0.4,0.9,0.9v5.3
			C692,321.5,691.6,321.9,691,321.9z"/>
		<rect x="702.7" y="312.3" class="st104" width="12.9" height="9.6"/>
		<rect x="726.2" y="312.3" class="st104" width="12.9" height="9.6"/>
		<path class="st110" d="M715.1,321.9h-8.4c-0.5,0-0.9-0.4-0.9-0.9v-5.3c0-0.5,0.4-0.9,0.9-0.9h8.4c0.5,0,0.9,0.4,0.9,0.9v5.3
			C716,321.5,715.6,321.9,715.1,321.9z"/>
		<path class="st110" d="M738.2,321.9h-8.4c-0.5,0-0.9-0.4-0.9-0.9v-5.3c0-0.5,0.4-0.9,0.9-0.9h8.4c0.5,0,0.9,0.4,0.9,0.9v5.3
			C739.1,321.5,738.7,321.9,738.2,321.9z"/>
	</g>
	<path class="st104" d="M693.6,357.7c-0.9-9.8-9.5-17.5-19.9-17.5s-19.1,7.7-19.9,17.5h-0.1v39.5h40L693.6,357.7L693.6,357.7z"/>
	<path class="st110" d="M693.6,361.1c-0.8-9.1-8.3-16.3-17.5-16.3s-16.7,7.2-17.5,16.3h-0.1v36.1h35.1L693.6,361.1L693.6,361.1z"/>
	<rect x="599.8" y="326.6" class="st104" width="37.9" height="71.2"/>
	<rect x="710.6" y="326.6" class="st104" width="37.9" height="71.2"/>
	<path class="st104" d="M556.9,346.2h-13.4c-0.5,0-0.9-0.4-0.9-0.9V317c0-0.5,0.4-0.9,0.9-0.9h13.4c0.5,0,0.9,0.4,0.9,0.9v28.2
		C557.9,345.8,557.4,346.2,556.9,346.2z"/>
	<path class="st104" d="M582.4,346.2H569c-0.5,0-0.9-0.4-0.9-0.9V317c0-0.5,0.4-0.9,0.9-0.9h13.4c0.5,0,0.9,0.4,0.9,0.9v28.2
		C583.3,345.8,582.9,346.2,582.4,346.2z"/>
	<path class="st104" d="M556.9,397.2h-13.4c-0.5,0-0.9-0.4-0.9-0.9V368c0-0.5,0.4-0.9,0.9-0.9h13.4c0.5,0,0.9,0.4,0.9,0.9v28.2
		C557.9,396.8,557.4,397.2,556.9,397.2z"/>
	<path class="st104" d="M582.4,397.2H569c-0.5,0-0.9-0.4-0.9-0.9V368c0-0.5,0.4-0.9,0.9-0.9h13.4c0.5,0,0.9,0.4,0.9,0.9v28.2
		C583.3,396.8,582.9,397.2,582.4,397.2z"/>
	<path class="st104" d="M556.9,345.3h-13.4c-0.5,0-0.9-0.4-0.9-0.9v-28.2c0-0.5,0.4-0.9,0.9-0.9h13.4c0.5,0,0.9,0.4,0.9,0.9v28.2
		C557.9,344.9,557.4,345.3,556.9,345.3z"/>
	<path class="st110" d="M558,345.3h-11.2c-0.4,0-0.8-0.3-0.8-0.8v-23.6c0-0.4,0.3-0.8,0.8-0.8H558c0.4,0,0.8,0.3,0.8,0.8v23.6
		C558.8,344.9,558.5,345.3,558,345.3z"/>
	<path class="st104" d="M582.4,345.3H569c-0.5,0-0.9-0.4-0.9-0.9v-28.2c0-0.5,0.4-0.9,0.9-0.9h13.4c0.5,0,0.9,0.4,0.9,0.9v28.2
		C583.3,344.9,582.9,345.3,582.4,345.3z"/>
	<path class="st110" d="M583.1,345.3h-11.2c-0.4,0-0.8-0.3-0.8-0.8v-23.6c0-0.4,0.3-0.8,0.8-0.8h11.2c0.4,0,0.8,0.3,0.8,0.8v23.6
		C583.8,344.9,583.5,345.3,583.1,345.3z"/>
	<path class="st104" d="M556.9,396.3h-13.4c-0.5,0-0.9-0.4-0.9-0.9v-28.2c0-0.5,0.4-0.9,0.9-0.9h13.4c0.5,0,0.9,0.4,0.9,0.9v28.2
		C557.9,395.8,557.4,396.3,556.9,396.3z"/>
	<path class="st104" d="M517.5,357h-10c-0.5,0-0.9-0.4-0.9-0.9v-23.5c0-0.5,0.4-0.9,0.9-0.9h10c0.5,0,0.9,0.4,0.9,0.9V356
		C518.5,356.5,518,357,517.5,357z"/>
	<path class="st104" d="M517.5,394.5h-10c-0.5,0-0.9-0.4-0.9-0.9V370c0-0.5,0.4-0.9,0.9-0.9h10c0.5,0,0.9,0.4,0.9,0.9v23.5
		C518.5,394,518,394.5,517.5,394.5z"/>
	<path class="st104" d="M517.5,356h-10c-0.5,0-0.9-0.4-0.9-0.9v-23.5c0-0.5,0.4-0.9,0.9-0.9h10c0.5,0,0.9,0.4,0.9,0.9v23.5
		C518.5,355.6,518,356,517.5,356z"/>
	<path class="st110" d="M517.7,356h-7.5c-0.4,0-0.8-0.3-0.8-0.8v-20.7c0-0.4,0.3-0.8,0.8-0.8h7.5c0.4,0,0.8,0.3,0.8,0.8v20.7
		C518.5,355.7,518.1,356,517.7,356z"/>
	<path class="st104" d="M517.5,393.5h-10c-0.5,0-0.9-0.4-0.9-0.9v-23.5c0-0.5,0.4-0.9,0.9-0.9h10c0.5,0,0.9,0.4,0.9,0.9v23.5
		C518.5,393.1,518,393.5,517.5,393.5z"/>
	<path class="st110" d="M517.7,393.3h-7.5c-0.4,0-0.8-0.3-0.8-0.8v-20.7c0-0.4,0.3-0.8,0.8-0.8h7.5c0.4,0,0.8,0.3,0.8,0.8v20.7
		C518.5,392.9,518.1,393.3,517.7,393.3z"/>
	<path class="st104" d="M623.4,357h-10c-0.5,0-0.9-0.4-0.9-0.9v-23.5c0-0.5,0.4-0.9,0.9-0.9h10c0.5,0,0.9,0.4,0.9,0.9V356
		C624.3,356.5,623.9,357,623.4,357z"/>
	<path class="st104" d="M623.4,394.5h-10c-0.5,0-0.9-0.4-0.9-0.9V370c0-0.5,0.4-0.9,0.9-0.9h10c0.5,0,0.9,0.4,0.9,0.9v23.5
		C624.3,394,623.9,394.5,623.4,394.5z"/>
	<path class="st104" d="M623.4,356h-10c-0.5,0-0.9-0.4-0.9-0.9v-23.5c0-0.5,0.4-0.9,0.9-0.9h10c0.5,0,0.9,0.4,0.9,0.9v23.5
		C624.3,355.6,623.9,356,623.4,356z"/>
	<path class="st110" d="M623.5,356h-7.5c-0.4,0-0.8-0.3-0.8-0.8v-20.7c0-0.4,0.3-0.8,0.8-0.8h7.5c0.4,0,0.8,0.3,0.8,0.8v20.7
		C624.3,355.7,624,356,623.5,356z"/>
	<path class="st104" d="M623.4,393.5h-10c-0.5,0-0.9-0.4-0.9-0.9v-23.5c0-0.5,0.4-0.9,0.9-0.9h10c0.5,0,0.9,0.4,0.9,0.9v23.5
		C624.3,393.1,623.9,393.5,623.4,393.5z"/>
	<path class="st110" d="M623.5,393.3h-7.5c-0.4,0-0.8-0.3-0.8-0.8v-20.7c0-0.4,0.3-0.8,0.8-0.8h7.5c0.4,0,0.8,0.3,0.8,0.8v20.7
		C624.3,392.9,624,393.3,623.5,393.3z"/>
	<path class="st104" d="M841.8,357h-10c-0.5,0-0.9-0.4-0.9-0.9v-23.5c0-0.5,0.4-0.9,0.9-0.9h10c0.5,0,0.9,0.4,0.9,0.9V356
		C842.7,356.5,842.3,357,841.8,357z"/>
	<path class="st104" d="M841.8,394.5h-10c-0.5,0-0.9-0.4-0.9-0.9V370c0-0.5,0.4-0.9,0.9-0.9h10c0.5,0,0.9,0.4,0.9,0.9v23.5
		C842.7,394,842.3,394.5,841.8,394.5z"/>
	<path class="st104" d="M841.8,356h-10c-0.5,0-0.9-0.4-0.9-0.9v-23.5c0-0.5,0.4-0.9,0.9-0.9h10c0.5,0,0.9,0.4,0.9,0.9v23.5
		C842.7,355.6,842.3,356,841.8,356z"/>
	<path class="st104" d="M841.8,393.5h-10c-0.5,0-0.9-0.4-0.9-0.9v-23.5c0-0.5,0.4-0.9,0.9-0.9h10c0.5,0,0.9,0.4,0.9,0.9v23.5
		C842.7,393.1,842.3,393.5,841.8,393.5z"/>
	<path class="st110" d="M842,356h-7.5c-0.4,0-0.8-0.3-0.8-0.8v-20.7c0-0.4,0.3-0.8,0.8-0.8h7.5c0.4,0,0.8,0.3,0.8,0.8v20.7
		C842.7,355.7,842.4,356,842,356z"/>
	<path class="st110" d="M842,393.3h-7.5c-0.4,0-0.8-0.3-0.8-0.8v-20.7c0-0.4,0.3-0.8,0.8-0.8h7.5c0.4,0,0.8,0.3,0.8,0.8v20.7
		C842.7,392.9,842.4,393.3,842,393.3z"/>
	<path class="st104" d="M582.4,396.3H569c-0.5,0-0.9-0.4-0.9-0.9v-28.2c0-0.5,0.4-0.9,0.9-0.9h13.4c0.5,0,0.9,0.4,0.9,0.9v28.2
		C583.3,395.8,582.9,396.3,582.4,396.3z"/>
	<path class="st110" d="M558,396.1h-11.2c-0.4,0-0.8-0.3-0.8-0.8v-23.6c0-0.4,0.3-0.8,0.8-0.8H558c0.4,0,0.8,0.3,0.8,0.8v23.6
		C558.8,395.7,558.5,396.1,558,396.1z"/>
	<path class="st110" d="M583.1,396.1h-11.2c-0.4,0-0.8-0.3-0.8-0.8v-23.6c0-0.4,0.3-0.8,0.8-0.8h11.2c0.4,0,0.8,0.3,0.8,0.8v23.6
		C583.8,395.7,583.5,396.1,583.1,396.1z"/>
	<path class="st104" d="M779.3,346.2h-13.4c-0.5,0-0.9-0.4-0.9-0.9V317c0-0.5,0.4-0.9,0.9-0.9h13.4c0.5,0,0.9,0.4,0.9,0.9v28.2
		C780.3,345.8,779.8,346.2,779.3,346.2z"/>
	<path class="st104" d="M804.8,346.2h-13.4c-0.5,0-0.9-0.4-0.9-0.9V317c0-0.5,0.4-0.9,0.9-0.9h13.4c0.5,0,0.9,0.4,0.9,0.9v28.2
		C805.7,345.8,805.3,346.2,804.8,346.2z"/>
	<path class="st104" d="M779.3,397.2h-13.4c-0.5,0-0.9-0.4-0.9-0.9V368c0-0.5,0.4-0.9,0.9-0.9h13.4c0.5,0,0.9,0.4,0.9,0.9v28.2
		C780.3,396.8,779.8,397.2,779.3,397.2z"/>
	<path class="st104" d="M804.8,397.2h-13.4c-0.5,0-0.9-0.4-0.9-0.9V368c0-0.5,0.4-0.9,0.9-0.9h13.4c0.5,0,0.9,0.4,0.9,0.9v28.2
		C805.7,396.8,805.3,397.2,804.8,397.2z"/>
	<path class="st104" d="M779.3,345.3h-13.4c-0.5,0-0.9-0.4-0.9-0.9v-28.2c0-0.5,0.4-0.9,0.9-0.9h13.4c0.5,0,0.9,0.4,0.9,0.9v28.2
		C780.3,344.9,779.8,345.3,779.3,345.3z"/>
	<path class="st104" d="M804.8,345.3h-13.4c-0.5,0-0.9-0.4-0.9-0.9v-28.2c0-0.5,0.4-0.9,0.9-0.9h13.4c0.5,0,0.9,0.4,0.9,0.9v28.2
		C805.7,344.9,805.3,345.3,804.8,345.3z"/>
	<path class="st104" d="M779.3,396.3h-13.4c-0.5,0-0.9-0.4-0.9-0.9v-28.2c0-0.5,0.4-0.9,0.9-0.9h13.4c0.5,0,0.9,0.4,0.9,0.9v28.2
		C780.3,395.8,779.8,396.3,779.3,396.3z"/>
	<path class="st104" d="M804.8,396.3h-13.4c-0.5,0-0.9-0.4-0.9-0.9v-28.2c0-0.5,0.4-0.9,0.9-0.9h13.4c0.5,0,0.9,0.4,0.9,0.9v28.2
		C805.7,395.8,805.3,396.3,804.8,396.3z"/>
	<path class="st110" d="M780.3,345.3h-11.2c-0.4,0-0.8-0.3-0.8-0.8v-23.6c0-0.4,0.3-0.8,0.8-0.8h11.2c0.4,0,0.8,0.3,0.8,0.8v23.6
		C781.1,344.9,780.7,345.3,780.3,345.3z"/>
	<path class="st110" d="M805.3,345.3h-11.2c-0.4,0-0.8-0.3-0.8-0.8v-23.6c0-0.4,0.3-0.8,0.8-0.8h11.2c0.4,0,0.8,0.3,0.8,0.8v23.6
		C806.1,344.9,805.7,345.3,805.3,345.3z"/>
	<path class="st110" d="M780.3,396.1h-11.2c-0.4,0-0.8-0.3-0.8-0.8v-23.6c0-0.4,0.3-0.8,0.8-0.8h11.2c0.4,0,0.8,0.3,0.8,0.8v23.6
		C781.1,395.7,780.7,396.1,780.3,396.1z"/>
	<path class="st110" d="M805.3,396.1h-11.2c-0.4,0-0.8-0.3-0.8-0.8v-23.6c0-0.4,0.3-0.8,0.8-0.8h11.2c0.4,0,0.8,0.3,0.8,0.8v23.6
		C806.1,395.7,805.7,396.1,805.3,396.1z"/>
	<path class="st104" d="M735,357h-10c-0.5,0-0.9-0.4-0.9-0.9v-23.5c0-0.5,0.4-0.9,0.9-0.9h10c0.5,0,0.9,0.4,0.9,0.9V356
		C735.9,356.5,735.5,357,735,357z"/>
	<path class="st104" d="M735,394.5h-10c-0.5,0-0.9-0.4-0.9-0.9V370c0-0.5,0.4-0.9,0.9-0.9h10c0.5,0,0.9,0.4,0.9,0.9v23.5
		C735.9,394,735.5,394.5,735,394.5z"/>
	<path class="st104" d="M735,356h-10c-0.5,0-0.9-0.4-0.9-0.9v-23.5c0-0.5,0.4-0.9,0.9-0.9h10c0.5,0,0.9,0.4,0.9,0.9v23.5
		C735.9,355.6,735.5,356,735,356z"/>
	<path class="st110" d="M735.2,356h-7.5c-0.4,0-0.8-0.3-0.8-0.8v-20.7c0-0.4,0.3-0.8,0.8-0.8h7.5c0.4,0,0.8,0.3,0.8,0.8v20.7
		C735.9,355.7,735.6,356,735.2,356z"/>
	<path class="st104" d="M735,393.5h-10c-0.5,0-0.9-0.4-0.9-0.9v-23.5c0-0.5,0.4-0.9,0.9-0.9h10c0.5,0,0.9,0.4,0.9,0.9v23.5
		C735.9,393.1,735.5,393.5,735,393.5z"/>
	<path class="st110" d="M735.2,393.3h-7.5c-0.4,0-0.8-0.3-0.8-0.8v-20.7c0-0.4,0.3-0.8,0.8-0.8h7.5c0.4,0,0.8,0.3,0.8,0.8v20.7
		C735.9,392.9,735.6,393.3,735.2,393.3z"/>
	<path class="st116" d="M683,186c10.6,1.3,13.5,12.4,13.5,23.1"/>
	<path class="st116" d="M650.8,209.1c0-10.5,2.7-21.4,13-23"/>
	<path class="st116" d="M665.3,209.1c0-11,0.5-21.1,4.7-22.8"/>
	<path class="st116" d="M682.8,209.1c0-11-0.5-21.1-4.7-22.8"/>
</g>
</svg>
