<svg width="1280" height="400" viewBox="0 0 1280 400" fill="none" xmlns="http://www.w3.org/2000/svg">
<g clip-path="url(#clip0_594_33848)">
<path d="M1005 121H991.9C991.4 112.1 984.2 105 975.4 105C972.9 105 970.5 105.6 968.4 106.6C968 99 962.3 93 955.4 93C948.6 93 943.1 98.7 942.4 106.1C940.1 104.8 937.4 104 934.5 104C925.4 104 918 111.6 918 121H906" stroke="#00CFFF" stroke-width="2" stroke-miterlimit="10" stroke-linecap="round" stroke-linejoin="round"/>
<path opacity="0.2" d="M995.9 125C995.4 116.1 988.2 109 979.4 109C976.9 109 974.5 109.6 972.4 110.6C972 103 966.3 97 959.4 97C952.6 97 947.1 102.7 946.4 110.1C944.1 108.8 941.4 108 938.5 108C929.4 108 922 115.6 922 125" fill="#00CFFF"/>
<path d="M186 91H199.1C199.6 82.1 206.8 75 215.6 75C218.1 75 220.5 75.6 222.6 76.6C223 69 228.7 63 235.6 63C242.4 63 247.9 68.7 248.6 76.1C250.9 74.8 253.6 74 256.5 74C265.6 74 273 81.6 273 91H285" stroke="#00CFFF" stroke-width="2" stroke-miterlimit="10" stroke-linecap="round" stroke-linejoin="round"/>
<path opacity="0.2" d="M195.1 95C195.6 86.1 202.8 79 211.6 79C214.1 79 216.5 79.6 218.6 80.6C219 73 224.7 67 231.6 67C238.4 67 243.9 72.7 244.6 80.1C246.9 78.8 249.6 78 252.5 78C261.6 78 269 85.6 269 95" fill="#00CFFF"/>
<path d="M382.9 41.4C385.5 33 393.3 27 402.5 27C410.2 27 417 31.3 420.5 37.6C423.5 35.9 426.9 35 430.5 35C438.2 35 444.9 39.3 448.4 45.6C451.4 42.8 455.5 41 460 41C469.4 41 477 48.6 477 58C477 58.3 477 58.7 477 59H488" stroke="#00CFFF" stroke-width="2" stroke-miterlimit="10" stroke-linecap="round" stroke-linejoin="round"/>
<path d="M1092 64H1080C1080 54.1 1072.5 46 1063.3 46C1062.1 46 1060.8 46.1 1059.7 46.4C1057.3 38 1050.1 32 1041.5 32C1034.3 32 1028 36.3 1024.8 42.6C1022 40.9 1018.9 40 1015.5 40C1008.3 40 1002.1 44.3 998.8 50.6C996 47.8 992.2 46 988 46C979.3 46 972.2 53.6 972.2 63C972.2 63.3 972.2 63.7 972.2 64H962" stroke="#00CFFF" stroke-width="2" stroke-miterlimit="10" stroke-linecap="round" stroke-linejoin="round"/>
<path opacity="0.2" d="M1084 67C1084 57.1 1076.5 49 1067.3 49C1066.1 49 1064.8 49.1 1063.7 49.4C1061.3 41 1054.1 35 1045.5 35C1038.3 35 1032 39.3 1028.8 45.6C1026 43.9 1022.9 43 1019.5 43C1012.3 43 1006.1 47.3 1002.8 53.6C1000 50.8 996.2 49 992 49C983.3 49 976.2 56.6 976.2 66C976.2 66.3 976.2 66.7 976.2 67" fill="#00CFFF"/>
<path d="M325 68H338.2C338.7 60.4 346 54.3 354.9 54.3C357.4 54.3 359.8 54.8 362 55.7C362.4 49.2 368.2 44 375.2 44C382 44 387.7 48.9 388.3 55.2C390.7 54.1 393.4 53.4 396.3 53.4C405.5 53.4 413 59.9 413 68H423" stroke="#00CFFF" stroke-width="2" stroke-miterlimit="10" stroke-linecap="round" stroke-linejoin="round"/>
<path opacity="0.2" d="M340.2 73C340.7 65.4 348 59.3 356.9 59.3C359.4 59.3 361.8 59.8 364 60.7C364.4 54.2 370.2 49 377.2 49C384 49 389.7 53.9 390.3 60.2C392.7 59.1 395.4 58.4 398.3 58.4C407.5 58.4 415 64.9 415 73" fill="#00CFFF"/>
<path opacity="0.2" d="M465 44C460.5 44 456.5 45.7 453.4 48.6C449.9 42.3 443.2 38 435.5 38C431.8 38 428.4 39 425.5 40.6C422 34.3 415.3 30 407.5 30C398.3 30 390.5 36.1 387.9 44.4L385.6 48.1C389.8 49.9 392.8 53.7 393.2 58.2C395.6 57.1 398.3 56.4 401.2 56.4C406.5 56.4 411.3 58.6 414.3 62H482C482 61.7 482 61.3 482 61C482 51.6 474.4 44 465 44Z" fill="#00CFFF"/>
<path opacity="0.2" d="M364.6 53.9001C365.4 54.1001 366.2 54.4001 367 54.7001C367 54.0001 367.2 53.4 367.3 52.8L364.6 53.9001Z" fill="#00CFFF"/>
<path d="M793 80H808C808.6 71.1 816.8 64 827 64C829.9 64 832.6 64.6 835 65.6C835.5 58 842 52 850 52C857.8 52 864.2 57.7 864.9 65.1C867.6 63.8 870.7 63 874 63C884.5 63 893 70.6 893 80H906" stroke="#00CFFF" stroke-width="2" stroke-miterlimit="10" stroke-linecap="round" stroke-linejoin="round"/>
<path opacity="0.2" d="M813 83C813.6 74.1 821.8 67 832 67C834.9 67 837.6 67.6 840 68.6C840.5 61 847 55 855 55C862.8 55 869.2 60.7 869.9 68.1C872.6 66.8 875.7 66 879 66C889.5 66 898 73.6 898 83" fill="#00CFFF"/>
<path d="M500 101H511.5C513.5 93.5 521 88 530 88C532.9 88 535.6 88.6 538 89.6C538.5 82 545 76 553 76C560.8 76 567.2 81.7 567.9 89.1C570.6 87.8 573.7 87 577 87C587.5 87 596 92.6 596 102" stroke="#00CFFF" stroke-width="2" stroke-miterlimit="10" stroke-linecap="round" stroke-linejoin="round"/>
<path opacity="0.2" d="M516.5 104C518.5 96.5 526 90 535 90C537.9 90 540.6 90.6 543 91.6C543.5 84 550 78 558 78C565.8 78 572.2 83.7 572.9 91.1C575.6 89.8 578.7 89 582 89C592.5 89 601 93.6 601 103" fill="#00CFFF"/>
<path d="M1123.2 70.025C1123.2 69.925 1123.2 69.725 1123.2 69.625V45.725C1123.2 39.425 1169.9 39.425 1169.9 45.725V69.625L1123.2 70.025Z" fill="white" stroke="#C5F76E" stroke-width="2" stroke-miterlimit="10" stroke-linecap="round" stroke-linejoin="round"/>
<path opacity="0.3" d="M1128.5 68.1249C1128.5 68.0249 1128.5 67.925 1128.5 67.825V48.225C1128.5 43.025 1169.9 43.025 1169.9 48.225V67.825L1128.5 68.1249Z" fill="#C5F76E" stroke="white" stroke-width="2" stroke-miterlimit="10" stroke-linecap="round" stroke-linejoin="round"/>
<path d="M1170 398.925H1123.2C1120.9 398.925 1119 397.025 1119 394.725V57.225C1119 54.925 1120.9 53.025 1123.2 53.025H1170C1172.3 53.025 1174.2 54.925 1174.2 57.225V394.725C1174.2 397.125 1172.3 398.925 1170 398.925Z" fill="white" stroke="#C5F76E" stroke-width="2" stroke-miterlimit="10" stroke-linecap="round" stroke-linejoin="round"/>
<path opacity="0.2" d="M1169.5 396.725H1125.5C1124.3 396.725 1123.2 395.725 1123.2 394.425V58.925C1123.2 57.725 1124.2 56.625 1125.5 56.625H1169.5C1170.7 56.625 1171.8 57.625 1171.8 58.925V394.425C1171.8 395.725 1170.8 396.725 1169.5 396.725Z" fill="#C5F76E" stroke="white" stroke-width="2" stroke-miterlimit="10" stroke-linecap="round" stroke-linejoin="round"/>
<path opacity="0.2" d="M1158.7 396.725H1136.8C1135.9 396.725 1135.2 396.025 1135.2 395.125V58.825C1135.2 57.925 1135.9 57.225 1136.8 57.225H1158.7C1159.6 57.225 1160.3 57.925 1160.3 58.825V395.025C1160.4 395.925 1159.6 396.725 1158.7 396.725Z" fill="#C5F76E" stroke="white" stroke-width="2" stroke-miterlimit="10" stroke-linecap="round" stroke-linejoin="round"/>
<path d="M1157.4 88.525H1135.6" stroke="#C5F76E" stroke-width="2" stroke-miterlimit="10" stroke-linecap="round" stroke-linejoin="round"/>
<path d="M1135.6 67.125H1157.4" stroke="#C5F76E" stroke-width="2" stroke-miterlimit="10" stroke-linecap="round" stroke-linejoin="round"/>
<path d="M1157.4 131.225H1135.6" stroke="#C5F76E" stroke-width="2" stroke-miterlimit="10" stroke-linecap="round" stroke-linejoin="round"/>
<path d="M1135.6 109.925H1157.4" stroke="#C5F76E" stroke-width="2" stroke-miterlimit="10" stroke-linecap="round" stroke-linejoin="round"/>
<path d="M1157.4 173.925H1135.6" stroke="#C5F76E" stroke-width="2" stroke-miterlimit="10" stroke-linecap="round" stroke-linejoin="round"/>
<path d="M1135.6 152.625H1157.4" stroke="#C5F76E" stroke-width="2" stroke-miterlimit="10" stroke-linecap="round" stroke-linejoin="round"/>
<path d="M1157.4 216.725H1135.6" stroke="#C5F76E" stroke-width="2" stroke-miterlimit="10" stroke-linecap="round" stroke-linejoin="round"/>
<path d="M1135.6 195.325H1157.4" stroke="#C5F76E" stroke-width="2" stroke-miterlimit="10" stroke-linecap="round" stroke-linejoin="round"/>
<path d="M1157.4 257.925H1135.6" stroke="#C5F76E" stroke-width="2" stroke-miterlimit="10" stroke-linecap="round" stroke-linejoin="round"/>
<path d="M1135.6 236.525H1157.4" stroke="#C5F76E" stroke-width="2" stroke-miterlimit="10" stroke-linecap="round" stroke-linejoin="round"/>
<path d="M1157.4 300.625H1135.6" stroke="#C5F76E" stroke-width="2" stroke-miterlimit="10" stroke-linecap="round" stroke-linejoin="round"/>
<path d="M1135.6 279.325H1157.4" stroke="#C5F76E" stroke-width="2" stroke-miterlimit="10" stroke-linecap="round" stroke-linejoin="round"/>
<path d="M1157.4 343.325H1135.6" stroke="#C5F76E" stroke-width="2" stroke-miterlimit="10" stroke-linecap="round" stroke-linejoin="round"/>
<path d="M1135.6 322.025H1157.4" stroke="#C5F76E" stroke-width="2" stroke-miterlimit="10" stroke-linecap="round" stroke-linejoin="round"/>
<path d="M1157.4 386.125H1135.6" stroke="#C5F76E" stroke-width="2" stroke-miterlimit="10" stroke-linecap="round" stroke-linejoin="round"/>
<path d="M1135.6 364.725H1157.4" stroke="#C5F76E" stroke-width="2" stroke-miterlimit="10" stroke-linecap="round" stroke-linejoin="round"/>
<path d="M1130 90.625H1122.1" stroke="#C5F76E" stroke-width="2" stroke-miterlimit="10" stroke-linecap="round" stroke-linejoin="round"/>
<path d="M1122.1 69.225H1130" stroke="#C5F76E" stroke-width="2" stroke-miterlimit="10" stroke-linecap="round" stroke-linejoin="round"/>
<path d="M1130 133.325H1122.1" stroke="#C5F76E" stroke-width="2" stroke-miterlimit="10" stroke-linecap="round" stroke-linejoin="round"/>
<path d="M1122.1 112.025H1130" stroke="#C5F76E" stroke-width="2" stroke-miterlimit="10" stroke-linecap="round" stroke-linejoin="round"/>
<path d="M1130 176.025H1122.1" stroke="#C5F76E" stroke-width="2" stroke-miterlimit="10" stroke-linecap="round" stroke-linejoin="round"/>
<path d="M1122.1 154.725H1130" stroke="#C5F76E" stroke-width="2" stroke-miterlimit="10" stroke-linecap="round" stroke-linejoin="round"/>
<path d="M1130 218.825H1122.1" stroke="#C5F76E" stroke-width="2" stroke-miterlimit="10" stroke-linecap="round" stroke-linejoin="round"/>
<path d="M1122.1 197.425H1130" stroke="#C5F76E" stroke-width="2" stroke-miterlimit="10" stroke-linecap="round" stroke-linejoin="round"/>
<path d="M1130 260.025H1122.1" stroke="#C5F76E" stroke-width="2" stroke-miterlimit="10" stroke-linecap="round" stroke-linejoin="round"/>
<path d="M1122.1 238.625H1130" stroke="#C5F76E" stroke-width="2" stroke-miterlimit="10" stroke-linecap="round" stroke-linejoin="round"/>
<path d="M1130 302.725H1122.1" stroke="#C5F76E" stroke-width="2" stroke-miterlimit="10" stroke-linecap="round" stroke-linejoin="round"/>
<path d="M1122.1 281.425H1130" stroke="#C5F76E" stroke-width="2" stroke-miterlimit="10" stroke-linecap="round" stroke-linejoin="round"/>
<path d="M1130 345.425H1122.1" stroke="#C5F76E" stroke-width="2" stroke-miterlimit="10" stroke-linecap="round" stroke-linejoin="round"/>
<path d="M1122.1 324.125H1130" stroke="#C5F76E" stroke-width="2" stroke-miterlimit="10" stroke-linecap="round" stroke-linejoin="round"/>
<path d="M1130 388.225H1122.1" stroke="#C5F76E" stroke-width="2" stroke-miterlimit="10" stroke-linecap="round" stroke-linejoin="round"/>
<path d="M1122.1 366.825H1130" stroke="#C5F76E" stroke-width="2" stroke-miterlimit="10" stroke-linecap="round" stroke-linejoin="round"/>
<path d="M1170.9 90.625H1163" stroke="#C5F76E" stroke-width="2" stroke-miterlimit="10" stroke-linecap="round" stroke-linejoin="round"/>
<path d="M1163 69.225H1170.9" stroke="#C5F76E" stroke-width="2" stroke-miterlimit="10" stroke-linecap="round" stroke-linejoin="round"/>
<path d="M1170.9 133.325H1163" stroke="#C5F76E" stroke-width="2" stroke-miterlimit="10" stroke-linecap="round" stroke-linejoin="round"/>
<path d="M1163 112.025H1170.9" stroke="#C5F76E" stroke-width="2" stroke-miterlimit="10" stroke-linecap="round" stroke-linejoin="round"/>
<path d="M1170.9 176.025H1163" stroke="#C5F76E" stroke-width="2" stroke-miterlimit="10" stroke-linecap="round" stroke-linejoin="round"/>
<path d="M1163 154.725H1170.9" stroke="#C5F76E" stroke-width="2" stroke-miterlimit="10" stroke-linecap="round" stroke-linejoin="round"/>
<path d="M1170.9 218.825H1163" stroke="#C5F76E" stroke-width="2" stroke-miterlimit="10" stroke-linecap="round" stroke-linejoin="round"/>
<path d="M1163 197.425H1170.9" stroke="#C5F76E" stroke-width="2" stroke-miterlimit="10" stroke-linecap="round" stroke-linejoin="round"/>
<path d="M1170.9 260.025H1163" stroke="#C5F76E" stroke-width="2" stroke-miterlimit="10" stroke-linecap="round" stroke-linejoin="round"/>
<path d="M1163 238.625H1170.9" stroke="#C5F76E" stroke-width="2" stroke-miterlimit="10" stroke-linecap="round" stroke-linejoin="round"/>
<path d="M1170.9 302.725H1163" stroke="#C5F76E" stroke-width="2" stroke-miterlimit="10" stroke-linecap="round" stroke-linejoin="round"/>
<path d="M1163 281.425H1170.9" stroke="#C5F76E" stroke-width="2" stroke-miterlimit="10" stroke-linecap="round" stroke-linejoin="round"/>
<path d="M1170.9 345.425H1163" stroke="#C5F76E" stroke-width="2" stroke-miterlimit="10" stroke-linecap="round" stroke-linejoin="round"/>
<path d="M1163 324.125H1170.9" stroke="#C5F76E" stroke-width="2" stroke-miterlimit="10" stroke-linecap="round" stroke-linejoin="round"/>
<path d="M1170.9 388.225H1163" stroke="#C5F76E" stroke-width="2" stroke-miterlimit="10" stroke-linecap="round" stroke-linejoin="round"/>
<path d="M1163 366.825H1170.9" stroke="#C5F76E" stroke-width="2" stroke-miterlimit="10" stroke-linecap="round" stroke-linejoin="round"/>
<path d="M723.3 396.9H769.6V135.9L724.6 117.7C723.9 117.4 723.2 117.9 723.2 118.6V396.9H723.3Z" fill="white" stroke="#00CFFF" stroke-width="2" stroke-miterlimit="10" stroke-linecap="round" stroke-linejoin="round"/>
<path opacity="0.1" d="M729 393.9C729 395.557 730.343 396.9 732 396.9H766.7C768.357 396.9 769.7 395.557 769.7 393.9V144.64C769.7 143.46 769.007 142.389 767.93 141.904L733.23 126.302C731.245 125.409 729 126.862 729 129.038V393.9Z" fill="#00CFFF"/>
<path d="M779.6 135.9V396.9H825.9V118.7C825.9 118 825.2 117.5 824.5 117.8L779.6 135.9Z" fill="white" stroke="#00CFFF" stroke-width="2" stroke-miterlimit="10" stroke-linecap="round" stroke-linejoin="round"/>
<path opacity="0.1" d="M783.356 141C782.287 141.487 781.6 142.555 781.6 143.73V393.9C781.6 395.557 782.943 396.9 784.6 396.9H819C820.657 396.9 822 395.557 822 393.9V128.063C822 125.88 819.743 124.428 817.756 125.333L783.356 141Z" fill="#00CFFF"/>
<path d="M783.8 103.1V396.9H811.4V92.4999C811.4 91.7999 810.7 91.2999 810 91.5999L783.8 103.1Z" fill="white" stroke="#00CFFF" stroke-width="2" stroke-miterlimit="10" stroke-linecap="round" stroke-linejoin="round"/>
<path d="M737.9 396.9H765.5V103.1L739.3 91.5C738.6 91.2 737.9 91.7 737.9 92.4V396.9Z" fill="white" stroke="#00CFFF" stroke-width="2" stroke-miterlimit="10" stroke-linecap="round" stroke-linejoin="round"/>
<g opacity="0.1">
<path d="M787.043 107.096C785.98 107.586 785.3 108.649 785.3 109.819V393.9C785.3 395.557 786.643 396.9 788.3 396.9H808.3C809.957 396.9 811.3 395.557 811.3 393.9V97.4C811.3 96.7 810.6 96.2 810 96.5L787.043 107.096Z" fill="#00CFFF"/>
<path d="M742 393.9C742 395.557 743.343 396.9 745 396.9H765C766.657 396.9 768 395.557 768 393.9V109.819C768 108.649 767.32 107.586 766.257 107.096L743.3 96.5C742.7 96.2 742 96.7 742 97.4V393.9Z" fill="#00CFFF"/>
</g>
<path d="M774.2 72.7L765.6 56.4C765.1 55.5 763.7 55.8 763.7 56.9V326.6H771.2H777.2H784.7V57C784.7 56 783.3 55.6 782.8 56.5L774.2 72.7Z" fill="white" stroke="#00CFFF" stroke-width="2" stroke-miterlimit="10" stroke-linecap="round" stroke-linejoin="round"/>
<path opacity="0.25" d="M774.8 80.5999L767.6 66.9999C767.2 66.0999 766 66.3999 766 67.4999V326.7H772.3H777.4H783.7V67.3999C783.7 66.3999 782.5 66.0999 782.1 66.8999L774.8 80.5999Z" fill="#00CFFF"/>
<path d="M774.6 95.8L751.5 72.2V326.6H770.2H779H797.8V72.2L774.6 95.8Z" fill="white" stroke="#00CFFF" stroke-width="2" stroke-miterlimit="10" stroke-linecap="round" stroke-linejoin="round"/>
<path opacity="0.25" d="M772.8 104.6L756.7 87.6999C756.2 87.1999 755.4 87.4999 755.4 88.1999V325.8C755.4 326.2 755.7 326.5 756.2 326.5H769.2H777.5H794.3C794.7 326.5 795.1 326.2 795.1 325.8V86.1999C795.1 85.4999 794.3 85.1999 793.8 85.6999L774 104.7C773.6 105 773.1 104.9 772.8 104.6Z" fill="#00CFFF"/>
<path d="M814 117.9H735.3V396.9H814V117.9Z" fill="white" stroke="#00CFFF" stroke-width="2" stroke-miterlimit="10" stroke-linecap="round" stroke-linejoin="round"/>
<path opacity="0.3" d="M808 124.4H745C743.343 124.4 742 125.743 742 127.4V393.9C742 395.557 743.343 396.9 745 396.9H808C809.657 396.9 811 395.557 811 393.9V127.4C811 125.743 809.657 124.4 808 124.4Z" fill="#00CFFF"/>
<path d="M792.7 118.9H757.5V396.9H792.7V118.9Z" fill="white" stroke="#00CFFF" stroke-width="2" stroke-miterlimit="10" stroke-linecap="round" stroke-linejoin="round"/>
<path d="M757.5 138.9H792.7" stroke="#00CFFF" stroke-width="2" stroke-miterlimit="10" stroke-linecap="round" stroke-linejoin="round"/>
<path d="M757.5 158.9H792.7" stroke="#00CFFF" stroke-width="2" stroke-miterlimit="10" stroke-linecap="round" stroke-linejoin="round"/>
<path d="M757.5 178.9H792.7" stroke="#00CFFF" stroke-width="2" stroke-miterlimit="10" stroke-linecap="round" stroke-linejoin="round"/>
<path d="M757.5 198.9H792.7" stroke="#00CFFF" stroke-width="2" stroke-miterlimit="10" stroke-linecap="round" stroke-linejoin="round"/>
<path d="M757.5 218.9H792.7" stroke="#00CFFF" stroke-width="2" stroke-miterlimit="10" stroke-linecap="round" stroke-linejoin="round"/>
<path d="M757.5 238.9H792.7" stroke="#00CFFF" stroke-width="2" stroke-miterlimit="10" stroke-linecap="round" stroke-linejoin="round"/>
<path d="M757.5 258.9H792.7" stroke="#00CFFF" stroke-width="2" stroke-miterlimit="10" stroke-linecap="round" stroke-linejoin="round"/>
<path d="M757.5 278.9H792.7" stroke="#00CFFF" stroke-width="2" stroke-miterlimit="10" stroke-linecap="round" stroke-linejoin="round"/>
<path d="M757.5 298.9H792.7" stroke="#00CFFF" stroke-width="2" stroke-miterlimit="10" stroke-linecap="round" stroke-linejoin="round"/>
<path d="M757.5 318.9H792.7" stroke="#00CFFF" stroke-width="2" stroke-miterlimit="10" stroke-linecap="round" stroke-linejoin="round"/>
<path d="M757.5 338.9H792.7" stroke="#00CFFF" stroke-width="2" stroke-miterlimit="10" stroke-linecap="round" stroke-linejoin="round"/>
<path d="M757.5 358.9H792.7" stroke="#00CFFF" stroke-width="2" stroke-miterlimit="10" stroke-linecap="round" stroke-linejoin="round"/>
<path d="M757.5 378.9H792.7" stroke="#00CFFF" stroke-width="2" stroke-miterlimit="10" stroke-linecap="round" stroke-linejoin="round"/>
<path opacity="0.15" d="M787.5 124.9H766C764.895 124.9 764 125.795 764 126.9V392.9C764 394.005 764.895 394.9 766 394.9H787.5C788.605 394.9 789.5 394.005 789.5 392.9V126.9C789.5 125.795 788.605 124.9 787.5 124.9Z" fill="#00CFFF"/>
<path d="M775 127C781.738 127 787.2 121.538 787.2 114.8C787.2 108.062 781.738 102.6 775 102.6C768.262 102.6 762.8 108.062 762.8 114.8C762.8 121.538 768.262 127 775 127Z" fill="white" stroke="#00CFFF" stroke-width="2" stroke-miterlimit="10" stroke-linecap="round" stroke-linejoin="round"/>
<path opacity="0.1" d="M777.8 128.7C783.985 128.7 789 123.686 789 117.5C789 111.314 783.985 106.3 777.8 106.3C771.614 106.3 766.6 111.314 766.6 117.5C766.6 123.686 771.614 128.7 777.8 128.7Z" fill="#00CFFF"/>
<path d="M204 397.5H137C135.9 397.5 135 396.6 135 395.5V112C135 111.3 135.3 110.7 135.9 110.3L202.9 64.7C204.2 63.8 206 64.7 206 66.4V395.4C206 396.6 205.1 397.5 204 397.5Z" fill="white" stroke="#00CFFF" stroke-width="2" stroke-miterlimit="10" stroke-linecap="round" stroke-linejoin="round"/>
<path opacity="0.15" d="M206 389.5C206 393.918 202.418 397.5 198 397.5H150C145.582 397.5 142 393.918 142 389.5V121.885C142 119.208 143.339 116.709 145.567 115.226L193.567 83.2756C198.884 79.7366 206 83.5482 206 89.9352V389.5Z" fill="#00CFFF"/>
<path d="M178 137.5H135.3V157H178V137.5Z" fill="white" stroke="#00CFFF" stroke-width="2" stroke-miterlimit="10" stroke-linecap="round" stroke-linejoin="round"/>
<path d="M178 180.7H135.3V200.2H178V180.7Z" fill="white" stroke="#00CFFF" stroke-width="2" stroke-miterlimit="10" stroke-linecap="round" stroke-linejoin="round"/>
<path d="M178 223.9H135.3V243.4H178V223.9Z" fill="white" stroke="#00CFFF" stroke-width="2" stroke-miterlimit="10" stroke-linecap="round" stroke-linejoin="round"/>
<path d="M178 267.1H135.3V286.6H178V267.1Z" fill="white" stroke="#00CFFF" stroke-width="2" stroke-miterlimit="10" stroke-linecap="round" stroke-linejoin="round"/>
<path d="M178 310.3H135.3V329.8H178V310.3Z" fill="white" stroke="#00CFFF" stroke-width="2" stroke-miterlimit="10" stroke-linecap="round" stroke-linejoin="round"/>
<path d="M178 353.5H135.3V373H178V353.5Z" fill="white" stroke="#00CFFF" stroke-width="2" stroke-miterlimit="10" stroke-linecap="round" stroke-linejoin="round"/>
<path opacity="0.3" d="M178 137.5H140V157H178V137.5Z" fill="#00CFFF"/>
<path opacity="0.3" d="M178 180.7H140V200.2H178V180.7Z" fill="#00CFFF"/>
<path opacity="0.3" d="M178 223.9H140V243.4H178V223.9Z" fill="#00CFFF"/>
<path opacity="0.3" d="M178 267.1H140V286.6H178V267.1Z" fill="#00CFFF"/>
<path opacity="0.3" d="M178 310.3H140V329.8H178V310.3Z" fill="#00CFFF"/>
<path opacity="0.3" d="M178 353.5H140V373H178V353.5Z" fill="#00CFFF"/>
<path d="M383.5 216V183.9C383.5 182.9 382.7 182.1 381.7 182.1H360.5C359.5 182.1 358.7 181.3 358.7 180.3V148.6C358.7 147.6 357.9 146.8 356.9 146.8H333.3C332.3 146.8 331.5 146 331.5 145V110.9C331.5 109.9 330.7 109.1 329.7 109.1H313.4H295C294 109.1 293.2 109.9 293.2 110.9V145C293.2 146 292.4 146.8 291.4 146.8H268.7C267.7 146.8 266.9 147.6 266.9 148.6V180.3C266.9 181.3 266.1 182.1 265.1 182.1H243.9C242.9 182.1 242.1 182.9 242.1 183.9V216C242.1 217 241.3 217.8 240.3 217.8H214.5C213.5 217.8 212.7 218.6 212.7 219.6V392.2C212.7 393.2 213.5 394 214.5 394H412.2C413.2 394 414 393.2 414 392.2V219.6C414 218.6 413.2 217.8 412.2 217.8H385.4C384.3 217.8 383.5 217 383.5 216Z" fill="white" stroke="#FFC861" stroke-width="2" stroke-miterlimit="10" stroke-linecap="round" stroke-linejoin="round"/>
<path opacity="0.2" d="M384.4 219.3V187C384.4 186 383.6 185.3 382.7 185.3H361.5C360.5 185.3 359.8 184.5 359.8 183.6V151.7C359.8 150.7 359 150 358.1 150H335.5C334.5 150 333.8 149.2 333.8 148.3L332 119.5C332 118.5 331.2 117.8 330.3 117.8H314.7H300.9C299.9 117.8 299.2 118.6 299.2 119.5V151.9C299.2 152.9 298.4 153.6 297.5 153.6H274.9C273.9 153.6 273.2 154.4 273.2 155.3V187.2C273.2 188.2 272.4 188.9 271.5 188.9H250.3C249.3 188.9 248.6 189.7 248.6 190.6V222.9C248.6 223.9 247.8 224.6 246.9 224.6H222.2C221.2 224.6 220.5 225.4 220.5 226.3V390.2C220.5 391.2 221.3 391.9 222.2 391.9H412.4C413.4 391.9 414.1 391.1 414.1 390.2V222.7C414.1 221.7 413.3 221 412.4 221H386.8C385.2 221 384.4 220.2 384.4 219.3Z" fill="#FFC861"/>
<path d="M318.9 137.5H306.4C305.4 137.5 304.6 136.7 304.6 135.7V120.8C304.6 119.8 305.4 119 306.4 119H318.9C319.9 119 320.7 119.8 320.7 120.8V135.7C320.8 136.7 320 137.5 318.9 137.5Z" fill="white" stroke="#FFC861" stroke-width="2" stroke-miterlimit="10" stroke-linecap="round" stroke-linejoin="round"/>
<path opacity="0.5" d="M318.9 136.6H310.2C309.5 136.6 308.9 136 308.9 135.3V125C308.9 124.3 309.5 123.7 310.2 123.7H318.9C319.6 123.7 320.2 124.3 320.2 125V135.3C320.2 136 319.6 136.6 318.9 136.6Z" fill="#FFC861"/>
<path d="M318.9 249.9H306.4C305.4 249.9 304.6 249.1 304.6 248.1V233.2C304.6 232.2 305.4 231.4 306.4 231.4H318.9C319.9 231.4 320.7 232.2 320.7 233.2V248C320.8 249 320 249.9 318.9 249.9Z" fill="white" stroke="#FFC861" stroke-width="2" stroke-miterlimit="10" stroke-linecap="round" stroke-linejoin="round"/>
<path opacity="0.5" d="M318.9 248.9H310.2C309.5 248.9 308.9 248.3 308.9 247.6V237.3C308.9 236.6 309.5 236 310.2 236H318.9C319.6 236 320.2 236.6 320.2 237.3V247.6C320.2 248.4 319.6 248.9 318.9 248.9Z" fill="#FFC861"/>
<path d="M346.3 249.9H333.8C332.8 249.9 332 249.1 332 248.1V233.2C332 232.2 332.8 231.4 333.8 231.4H346.3C347.3 231.4 348.1 232.2 348.1 233.2V248C348.2 249 347.4 249.9 346.3 249.9Z" fill="white" stroke="#FFC861" stroke-width="2" stroke-miterlimit="10" stroke-linecap="round" stroke-linejoin="round"/>
<path opacity="0.5" d="M346.3 248.9H337.6C336.9 248.9 336.3 248.3 336.3 247.6V237.3C336.3 236.6 336.9 236 337.6 236H346.3C347 236 347.6 236.6 347.6 237.3V247.6C347.6 248.4 347 248.9 346.3 248.9Z" fill="#FFC861"/>
<path d="M374.7 249.9H362.2C361.2 249.9 360.4 249.1 360.4 248.1V233.2C360.4 232.2 361.2 231.4 362.2 231.4H374.7C375.7 231.4 376.5 232.2 376.5 233.2V248C376.5 249 375.7 249.9 374.7 249.9Z" fill="white" stroke="#FFC861" stroke-width="2" stroke-miterlimit="10" stroke-linecap="round" stroke-linejoin="round"/>
<path opacity="0.5" d="M374.7 248.9H366C365.3 248.9 364.7 248.3 364.7 247.6V237.3C364.7 236.6 365.3 236 366 236H374.7C375.4 236 376 236.6 376 237.3V247.6C375.9 248.4 375.4 248.9 374.7 248.9Z" fill="#FFC861"/>
<path d="M402.1 249.9H389.6C388.6 249.9 387.8 249.1 387.8 248.1V233.2C387.8 232.2 388.6 231.4 389.6 231.4H402.1C403.1 231.4 403.9 232.2 403.9 233.2V248C403.9 249 403.1 249.9 402.1 249.9Z" fill="white" stroke="#FFC861" stroke-width="2" stroke-miterlimit="10" stroke-linecap="round" stroke-linejoin="round"/>
<path opacity="0.5" d="M402.1 248.9H393.4C392.7 248.9 392.1 248.3 392.1 247.6V237.3C392.1 236.6 392.7 236 393.4 236H402.1C402.8 236 403.4 236.6 403.4 237.3V247.6C403.3 248.4 402.8 248.9 402.1 248.9Z" fill="#FFC861"/>
<path d="M291.5 249.9H279C278 249.9 277.2 249.1 277.2 248.1V233.2C277.2 232.2 278 231.4 279 231.4H291.5C292.5 231.4 293.3 232.2 293.3 233.2V248C293.4 249 292.6 249.9 291.5 249.9Z" fill="white" stroke="#FFC861" stroke-width="2" stroke-miterlimit="10" stroke-linecap="round" stroke-linejoin="round"/>
<path opacity="0.5" d="M291.5 248.9H282.8C282.1 248.9 281.5 248.3 281.5 247.6V237.3C281.5 236.6 282.1 236 282.8 236H291.5C292.2 236 292.8 236.6 292.8 237.3V247.6C292.8 248.4 292.2 248.9 291.5 248.9Z" fill="#FFC861"/>
<path d="M264.1 249.9H251.6C250.6 249.9 249.8 249.1 249.8 248.1V233.2C249.8 232.2 250.6 231.4 251.6 231.4H264.1C265.1 231.4 265.9 232.2 265.9 233.2V248C266 249 265.1 249.9 264.1 249.9Z" fill="white" stroke="#FFC861" stroke-width="2" stroke-miterlimit="10" stroke-linecap="round" stroke-linejoin="round"/>
<path opacity="0.5" d="M264.1 248.9H255.4C254.7 248.9 254.1 248.3 254.1 247.6V237.3C254.1 236.6 254.7 236 255.4 236H264.1C264.8 236 265.4 236.6 265.4 237.3V247.6C265.4 248.4 264.8 248.9 264.1 248.9Z" fill="#FFC861"/>
<path d="M236.7 249.9H224.2C223.2 249.9 222.4 249.1 222.4 248.1V233.2C222.4 232.2 223.2 231.4 224.2 231.4H236.7C237.7 231.4 238.5 232.2 238.5 233.2V248C238.6 249 237.7 249.9 236.7 249.9Z" fill="white" stroke="#FFC861" stroke-width="2" stroke-miterlimit="10" stroke-linecap="round" stroke-linejoin="round"/>
<path opacity="0.5" d="M236.7 248.9H228C227.3 248.9 226.7 248.3 226.7 247.6V237.3C226.7 236.6 227.3 236 228 236H236.7C237.4 236 238 236.6 238 237.3V247.6C238 248.4 237.4 248.9 236.7 248.9Z" fill="#FFC861"/>
<path d="M318.9 286.4H306.4C305.4 286.4 304.6 285.6 304.6 284.6V269.7C304.6 268.7 305.4 267.9 306.4 267.9H318.9C319.9 267.9 320.7 268.7 320.7 269.7V284.6C320.8 285.6 320 286.4 318.9 286.4Z" fill="white" stroke="#FFC861" stroke-width="2" stroke-miterlimit="10" stroke-linecap="round" stroke-linejoin="round"/>
<path d="M346.3 286.4H333.8C332.8 286.4 332 285.6 332 284.6V269.7C332 268.7 332.8 267.9 333.8 267.9H346.3C347.3 267.9 348.1 268.7 348.1 269.7V284.6C348.2 285.6 347.4 286.4 346.3 286.4Z" fill="white" stroke="#FFC861" stroke-width="2" stroke-miterlimit="10" stroke-linecap="round" stroke-linejoin="round"/>
<path d="M374.7 286.4H362.2C361.2 286.4 360.4 285.6 360.4 284.6V269.7C360.4 268.7 361.2 267.9 362.2 267.9H374.7C375.7 267.9 376.5 268.7 376.5 269.7V284.6C376.5 285.6 375.7 286.4 374.7 286.4Z" fill="white" stroke="#FFC861" stroke-width="2" stroke-miterlimit="10" stroke-linecap="round" stroke-linejoin="round"/>
<path d="M402.1 286.4H389.6C388.6 286.4 387.8 285.6 387.8 284.6V269.7C387.8 268.7 388.6 267.9 389.6 267.9H402.1C403.1 267.9 403.9 268.7 403.9 269.7V284.6C403.9 285.6 403.1 286.4 402.1 286.4Z" fill="white" stroke="#FFC861" stroke-width="2" stroke-miterlimit="10" stroke-linecap="round" stroke-linejoin="round"/>
<path d="M291.5 286.4H279C278 286.4 277.2 285.6 277.2 284.6V269.7C277.2 268.7 278 267.9 279 267.9H291.5C292.5 267.9 293.3 268.7 293.3 269.7V284.6C293.4 285.6 292.6 286.4 291.5 286.4Z" fill="white" stroke="#FFC861" stroke-width="2" stroke-miterlimit="10" stroke-linecap="round" stroke-linejoin="round"/>
<path d="M264.1 286.4H251.6C250.6 286.4 249.8 285.6 249.8 284.6V269.7C249.8 268.7 250.6 267.9 251.6 267.9H264.1C265.1 267.9 265.9 268.7 265.9 269.7V284.6C266 285.6 265.1 286.4 264.1 286.4Z" fill="white" stroke="#FFC861" stroke-width="2" stroke-miterlimit="10" stroke-linecap="round" stroke-linejoin="round"/>
<path d="M236.7 286.4H224.2C223.2 286.4 222.4 285.6 222.4 284.6V269.7C222.4 268.7 223.2 267.9 224.2 267.9H236.7C237.7 267.9 238.5 268.7 238.5 269.7V284.6C238.6 285.6 237.7 286.4 236.7 286.4Z" fill="white" stroke="#FFC861" stroke-width="2" stroke-miterlimit="10" stroke-linecap="round" stroke-linejoin="round"/>
<path d="M318.9 324.8H306.4C305.4 324.8 304.6 324 304.6 323V308.1C304.6 307.1 305.4 306.3 306.4 306.3H318.9C319.9 306.3 320.7 307.1 320.7 308.1V323C320.8 323.9 320 324.8 318.9 324.8Z" fill="white" stroke="#FFC861" stroke-width="2" stroke-miterlimit="10" stroke-linecap="round" stroke-linejoin="round"/>
<path d="M318.9 323.9H306.4C305.4 323.9 304.6 323.1 304.6 322.1V307.2C304.6 306.2 305.4 305.4 306.4 305.4H318.9C319.9 305.4 320.7 306.2 320.7 307.2V322C320.8 323 320 323.9 318.9 323.9Z" fill="white" stroke="#FFC861" stroke-width="2" stroke-miterlimit="10" stroke-linecap="round" stroke-linejoin="round"/>
<path d="M346.3 324.8H333.8C332.8 324.8 332 324 332 323V308.1C332 307.1 332.8 306.3 333.8 306.3H346.3C347.3 306.3 348.1 307.1 348.1 308.1V323C348.2 323.9 347.4 324.8 346.3 324.8Z" fill="white" stroke="#FFC861" stroke-width="2" stroke-miterlimit="10" stroke-linecap="round" stroke-linejoin="round"/>
<path d="M346.3 323.9H333.8C332.8 323.9 332 323.1 332 322.1V307.2C332 306.2 332.8 305.4 333.8 305.4H346.3C347.3 305.4 348.1 306.2 348.1 307.2V322C348.2 323 347.4 323.9 346.3 323.9Z" fill="white" stroke="#FFC861" stroke-width="2" stroke-miterlimit="10" stroke-linecap="round" stroke-linejoin="round"/>
<path d="M374.7 324.8H362.2C361.2 324.8 360.4 324 360.4 323V308.1C360.4 307.1 361.2 306.3 362.2 306.3H374.7C375.7 306.3 376.5 307.1 376.5 308.1V323C376.5 323.9 375.7 324.8 374.7 324.8Z" fill="white" stroke="#FFC861" stroke-width="2" stroke-miterlimit="10" stroke-linecap="round" stroke-linejoin="round"/>
<path d="M374.7 323.9H362.2C361.2 323.9 360.4 323.1 360.4 322.1V307.2C360.4 306.2 361.2 305.4 362.2 305.4H374.7C375.7 305.4 376.5 306.2 376.5 307.2V322C376.5 323 375.7 323.9 374.7 323.9Z" fill="white" stroke="#FFC861" stroke-width="2" stroke-miterlimit="10" stroke-linecap="round" stroke-linejoin="round"/>
<path d="M402.1 324.8H389.6C388.6 324.8 387.8 324 387.8 323V308.1C387.8 307.1 388.6 306.3 389.6 306.3H402.1C403.1 306.3 403.9 307.1 403.9 308.1V323C403.9 323.9 403.1 324.8 402.1 324.8Z" fill="white" stroke="#FFC861" stroke-width="2" stroke-miterlimit="10" stroke-linecap="round" stroke-linejoin="round"/>
<path d="M402.1 323.9H389.6C388.6 323.9 387.8 323.1 387.8 322.1V307.2C387.8 306.2 388.6 305.4 389.6 305.4H402.1C403.1 305.4 403.9 306.2 403.9 307.2V322C403.9 323 403.1 323.9 402.1 323.9Z" fill="white" stroke="#FFC861" stroke-width="2" stroke-miterlimit="10" stroke-linecap="round" stroke-linejoin="round"/>
<path d="M291.5 324.8H279C278 324.8 277.2 324 277.2 323V308.1C277.2 307.1 278 306.3 279 306.3H291.5C292.5 306.3 293.3 307.1 293.3 308.1V323C293.4 323.9 292.6 324.8 291.5 324.8Z" fill="white" stroke="#FFC861" stroke-width="2" stroke-miterlimit="10" stroke-linecap="round" stroke-linejoin="round"/>
<path d="M291.5 323.9H279C278 323.9 277.2 323.1 277.2 322.1V307.2C277.2 306.2 278 305.4 279 305.4H291.5C292.5 305.4 293.3 306.2 293.3 307.2V322C293.4 323 292.6 323.9 291.5 323.9Z" fill="white" stroke="#FFC861" stroke-width="2" stroke-miterlimit="10" stroke-linecap="round" stroke-linejoin="round"/>
<path d="M264.1 324.8H251.6C250.6 324.8 249.8 324 249.8 323V308.1C249.8 307.1 250.6 306.3 251.6 306.3H264.1C265.1 306.3 265.9 307.1 265.9 308.1V323C266 323.9 265.1 324.8 264.1 324.8Z" fill="white" stroke="#FFC861" stroke-width="2" stroke-miterlimit="10" stroke-linecap="round" stroke-linejoin="round"/>
<path d="M236.7 324.8H224.2C223.2 324.8 222.4 324 222.4 323V308.1C222.4 307.1 223.2 306.3 224.2 306.3H236.7C237.7 306.3 238.5 307.1 238.5 308.1V323C238.6 323.9 237.7 324.8 236.7 324.8Z" fill="white" stroke="#FFC861" stroke-width="2" stroke-miterlimit="10" stroke-linecap="round" stroke-linejoin="round"/>
<path d="M264.1 212.4H251.6C250.6 212.4 249.8 211.6 249.8 210.6V195.7C249.8 194.7 250.6 193.9 251.6 193.9H264.1C265.1 193.9 265.9 194.7 265.9 195.7V210.6C266 211.6 265.1 212.4 264.1 212.4Z" fill="white" stroke="#FFC861" stroke-width="2" stroke-miterlimit="10" stroke-linecap="round" stroke-linejoin="round"/>
<path opacity="0.5" d="M264.1 211.5H255.4C254.7 211.5 254.1 210.9 254.1 210.2V199.9C254.1 199.2 254.7 198.6 255.4 198.6H264.1C264.8 198.6 265.4 199.2 265.4 199.9V210.2C265.4 210.9 264.8 211.5 264.1 211.5Z" fill="#FFC861"/>
<path d="M291.5 212.4H279C278 212.4 277.2 211.6 277.2 210.6V195.7C277.2 194.7 278 193.9 279 193.9H291.5C292.5 193.9 293.3 194.7 293.3 195.7V210.6C293.4 211.6 292.6 212.4 291.5 212.4Z" fill="white" stroke="#FFC861" stroke-width="2" stroke-miterlimit="10" stroke-linecap="round" stroke-linejoin="round"/>
<path opacity="0.5" d="M291.5 211.5H282.8C282.1 211.5 281.5 210.9 281.5 210.2V199.9C281.5 199.2 282.1 198.6 282.8 198.6H291.5C292.2 198.6 292.8 199.2 292.8 199.9V210.2C292.8 210.9 292.2 211.5 291.5 211.5Z" fill="#FFC861"/>
<path d="M318.9 212.4H306.4C305.4 212.4 304.6 211.6 304.6 210.6V195.7C304.6 194.7 305.4 193.9 306.4 193.9H318.9C319.9 193.9 320.7 194.7 320.7 195.7V210.6C320.8 211.6 320 212.4 318.9 212.4Z" fill="white" stroke="#FFC861" stroke-width="2" stroke-miterlimit="10" stroke-linecap="round" stroke-linejoin="round"/>
<path opacity="0.5" d="M318.9 211.5H310.2C309.5 211.5 308.9 210.9 308.9 210.2V199.9C308.9 199.2 309.5 198.6 310.2 198.6H318.9C319.6 198.6 320.2 199.2 320.2 199.9V210.2C320.2 210.9 319.6 211.5 318.9 211.5Z" fill="#FFC861"/>
<path d="M346.3 212.4H333.8C332.8 212.4 332 211.6 332 210.6V195.7C332 194.7 332.8 193.9 333.8 193.9H346.3C347.3 193.9 348.1 194.7 348.1 195.7V210.6C348.2 211.6 347.4 212.4 346.3 212.4Z" fill="white" stroke="#FFC861" stroke-width="2" stroke-miterlimit="10" stroke-linecap="round" stroke-linejoin="round"/>
<path opacity="0.5" d="M346.3 211.5H337.6C336.9 211.5 336.3 210.9 336.3 210.2V199.9C336.3 199.2 336.9 198.6 337.6 198.6H346.3C347 198.6 347.6 199.2 347.6 199.9V210.2C347.6 210.9 347 211.5 346.3 211.5Z" fill="#FFC861"/>
<path d="M374.7 212.4H362.2C361.2 212.4 360.4 211.6 360.4 210.6V195.7C360.4 194.7 361.2 193.9 362.2 193.9H374.7C375.7 193.9 376.5 194.7 376.5 195.7V210.6C376.5 211.6 375.7 212.4 374.7 212.4Z" fill="white" stroke="#FFC861" stroke-width="2" stroke-miterlimit="10" stroke-linecap="round" stroke-linejoin="round"/>
<path opacity="0.5" d="M374.7 211.5H366C365.3 211.5 364.7 210.9 364.7 210.2V199.9C364.7 199.2 365.3 198.6 366 198.6H374.7C375.4 198.6 376 199.2 376 199.9V210.2C375.9 210.9 375.4 211.5 374.7 211.5Z" fill="#FFC861"/>
<path d="M318.9 175.9H306.4C305.4 175.9 304.6 175.1 304.6 174.1V159.2C304.6 158.2 305.4 157.4 306.4 157.4H318.9C319.9 157.4 320.7 158.2 320.7 159.2V174C320.8 175.1 320 175.9 318.9 175.9Z" fill="white" stroke="#FFC861" stroke-width="2" stroke-miterlimit="10" stroke-linecap="round" stroke-linejoin="round"/>
<path opacity="0.5" d="M318.9 174.9H310.2C309.5 174.9 308.9 174.3 308.9 173.6V163.3C308.9 162.6 309.5 162 310.2 162H318.9C319.6 162 320.2 162.6 320.2 163.3V173.6C320.2 174.4 319.6 174.9 318.9 174.9Z" fill="#FFC861"/>
<path d="M291.5 175.9H279C278 175.9 277.2 175.1 277.2 174.1V159.2C277.2 158.2 278 157.4 279 157.4H291.5C292.5 157.4 293.3 158.2 293.3 159.2V174C293.4 175.1 292.6 175.9 291.5 175.9Z" fill="white" stroke="#FFC861" stroke-width="2" stroke-miterlimit="10" stroke-linecap="round" stroke-linejoin="round"/>
<path opacity="0.5" d="M291.5 174.9H282.8C282.1 174.9 281.5 174.3 281.5 173.6V163.3C281.5 162.6 282.1 162 282.8 162H291.5C292.2 162 292.8 162.6 292.8 163.3V173.6C292.8 174.4 292.2 174.9 291.5 174.9Z" fill="#FFC861"/>
<path d="M347.3 175.9H334.8C333.8 175.9 333 175.1 333 174.1V159.2C333 158.2 333.8 157.4 334.8 157.4H347.3C348.3 157.4 349.1 158.2 349.1 159.2V174C349.1 175.1 348.3 175.9 347.3 175.9Z" fill="white" stroke="#FFC861" stroke-width="2" stroke-miterlimit="10" stroke-linecap="round" stroke-linejoin="round"/>
<path opacity="0.5" d="M347.3 174.9H338.6C337.9 174.9 337.3 174.3 337.3 173.6V163.3C337.3 162.6 337.9 162 338.6 162H347.3C348 162 348.6 162.6 348.6 163.3V173.6C348.5 174.4 347.9 174.9 347.3 174.9Z" fill="#FFC861"/>
<path d="M318 362.2H305.5C304.5 362.2 303.7 361.4 303.7 360.4V345.5C303.7 344.5 304.5 343.7 305.5 343.7H318C319 343.7 319.8 344.5 319.8 345.5V360.4C319.9 361.4 319 362.2 318 362.2Z" fill="white" stroke="#FFC861" stroke-width="2" stroke-miterlimit="10" stroke-linecap="round" stroke-linejoin="round"/>
<path d="M318 361.3H305.5C304.5 361.3 303.7 360.5 303.7 359.5V344.6C303.7 343.6 304.5 342.8 305.5 342.8H318C319 342.8 319.8 343.6 319.8 344.6V359.5C319.9 360.5 319 361.3 318 361.3Z" fill="white" stroke="#FFC861" stroke-width="2" stroke-miterlimit="10" stroke-linecap="round" stroke-linejoin="round"/>
<path d="M345.4 362.2H332.9C331.9 362.2 331.1 361.4 331.1 360.4V345.5C331.1 344.5 331.9 343.7 332.9 343.7H345.4C346.4 343.7 347.2 344.5 347.2 345.5V360.4C347.3 361.4 346.4 362.2 345.4 362.2Z" fill="white" stroke="#FFC861" stroke-width="2" stroke-miterlimit="10" stroke-linecap="round" stroke-linejoin="round"/>
<path d="M345.4 361.3H332.9C331.9 361.3 331.1 360.5 331.1 359.5V344.6C331.1 343.6 331.9 342.8 332.9 342.8H345.4C346.4 342.8 347.2 343.6 347.2 344.6V359.5C347.3 360.5 346.4 361.3 345.4 361.3Z" fill="white" stroke="#FFC861" stroke-width="2" stroke-miterlimit="10" stroke-linecap="round" stroke-linejoin="round"/>
<path d="M373.8 362.2H361.3C360.3 362.2 359.5 361.4 359.5 360.4V345.5C359.5 344.5 360.3 343.7 361.3 343.7H373.8C374.8 343.7 375.6 344.5 375.6 345.5V360.4C375.6 361.4 374.8 362.2 373.8 362.2Z" fill="white" stroke="#FFC861" stroke-width="2" stroke-miterlimit="10" stroke-linecap="round" stroke-linejoin="round"/>
<path d="M373.8 361.3H361.3C360.3 361.3 359.5 360.5 359.5 359.5V344.6C359.5 343.6 360.3 342.8 361.3 342.8H373.8C374.8 342.8 375.6 343.6 375.6 344.6V359.5C375.6 360.5 374.8 361.3 373.8 361.3Z" fill="white" stroke="#FFC861" stroke-width="2" stroke-miterlimit="10" stroke-linecap="round" stroke-linejoin="round"/>
<path d="M401.2 362.2H388.7C387.7 362.2 386.9 361.4 386.9 360.4V345.5C386.9 344.5 387.7 343.7 388.7 343.7H401.2C402.2 343.7 403 344.5 403 345.5V360.4C403 361.4 402.2 362.2 401.2 362.2Z" fill="white" stroke="#FFC861" stroke-width="2" stroke-miterlimit="10" stroke-linecap="round" stroke-linejoin="round"/>
<path d="M401.2 361.3H388.7C387.7 361.3 386.9 360.5 386.9 359.5V344.6C386.9 343.6 387.7 342.8 388.7 342.8H401.2C402.2 342.8 403 343.6 403 344.6V359.5C403 360.5 402.2 361.3 401.2 361.3Z" fill="white" stroke="#FFC861" stroke-width="2" stroke-miterlimit="10" stroke-linecap="round" stroke-linejoin="round"/>
<path d="M290.6 362.2H278.1C277.1 362.2 276.3 361.4 276.3 360.4V345.5C276.3 344.5 277.1 343.7 278.1 343.7H290.6C291.6 343.7 292.4 344.5 292.4 345.5V360.4C292.5 361.4 291.6 362.2 290.6 362.2Z" fill="white" stroke="#FFC861" stroke-width="2" stroke-miterlimit="10" stroke-linecap="round" stroke-linejoin="round"/>
<path d="M290.6 361.3H278.1C277.1 361.3 276.3 360.5 276.3 359.5V344.6C276.3 343.6 277.1 342.8 278.1 342.8H290.6C291.6 342.8 292.4 343.6 292.4 344.6V359.5C292.5 360.5 291.6 361.3 290.6 361.3Z" fill="white" stroke="#FFC861" stroke-width="2" stroke-miterlimit="10" stroke-linecap="round" stroke-linejoin="round"/>
<path d="M263.2 362.2H250.7C249.7 362.2 248.9 361.4 248.9 360.4V345.5C248.9 344.5 249.7 343.7 250.7 343.7H263.2C264.2 343.7 265 344.5 265 345.5V360.4C265.1 361.4 264.2 362.2 263.2 362.2Z" fill="white" stroke="#FFC861" stroke-width="2" stroke-miterlimit="10" stroke-linecap="round" stroke-linejoin="round"/>
<path d="M263.2 361.3H250.7C249.7 361.3 248.9 360.5 248.9 359.5V344.6C248.9 343.6 249.7 342.8 250.7 342.8H263.2C264.2 342.8 265 343.6 265 344.6V359.5C265.1 360.5 264.2 361.3 263.2 361.3Z" fill="white" stroke="#FFC861" stroke-width="2" stroke-miterlimit="10" stroke-linecap="round" stroke-linejoin="round"/>
<path d="M235.8 362.2H223.3C222.3 362.2 221.5 361.4 221.5 360.4V345.5C221.5 344.5 222.3 343.7 223.3 343.7H235.8C236.8 343.7 237.6 344.5 237.6 345.5V360.4C237.6 361.4 236.8 362.2 235.8 362.2Z" fill="white" stroke="#FFC861" stroke-width="2" stroke-miterlimit="10" stroke-linecap="round" stroke-linejoin="round"/>
<path d="M235.8 361.3H223.3C222.3 361.3 221.5 360.5 221.5 359.5V344.6C221.5 343.6 222.3 342.8 223.3 342.8H235.8C236.8 342.8 237.6 343.6 237.6 344.6V359.5C237.6 360.5 236.8 361.3 235.8 361.3Z" fill="white" stroke="#FFC861" stroke-width="2" stroke-miterlimit="10" stroke-linecap="round" stroke-linejoin="round"/>
<path opacity="0.5" d="M318.9 285.5H310.2C309.5 285.5 308.9 284.9 308.9 284.2V273.9C308.9 273.2 309.5 272.6 310.2 272.6H318.9C319.6 272.6 320.2 273.2 320.2 273.9V284.2C320.2 284.9 319.6 285.5 318.9 285.5Z" fill="#FFC861"/>
<path opacity="0.5" d="M346.3 285.5H337.6C336.9 285.5 336.3 284.9 336.3 284.2V273.9C336.3 273.2 336.9 272.6 337.6 272.6H346.3C347 272.6 347.6 273.2 347.6 273.9V284.2C347.6 284.9 347 285.5 346.3 285.5Z" fill="#FFC861"/>
<path opacity="0.5" d="M374.7 285.5H366C365.3 285.5 364.7 284.9 364.7 284.2V273.9C364.7 273.2 365.3 272.6 366 272.6H374.7C375.4 272.6 376 273.2 376 273.9V284.2C375.9 284.9 375.4 285.5 374.7 285.5Z" fill="#FFC861"/>
<path opacity="0.5" d="M402.1 285.5H393.4C392.7 285.5 392.1 284.9 392.1 284.2V273.9C392.1 273.2 392.7 272.6 393.4 272.6H402.1C402.8 272.6 403.4 273.2 403.4 273.9V284.2C403.3 284.9 402.8 285.5 402.1 285.5Z" fill="#FFC861"/>
<path opacity="0.5" d="M291.5 285.5H282.8C282.1 285.5 281.5 284.9 281.5 284.2V273.9C281.5 273.2 282.1 272.6 282.8 272.6H291.5C292.2 272.6 292.8 273.2 292.8 273.9V284.2C292.8 284.9 292.2 285.5 291.5 285.5Z" fill="#FFC861"/>
<path opacity="0.5" d="M264.1 285.5H255.4C254.7 285.5 254.1 284.9 254.1 284.2V273.9C254.1 273.2 254.7 272.6 255.4 272.6H264.1C264.8 272.6 265.4 273.2 265.4 273.9V284.2C265.4 284.9 264.8 285.5 264.1 285.5Z" fill="#FFC861"/>
<path opacity="0.5" d="M236.7 285.5H228C227.3 285.5 226.7 284.9 226.7 284.2V273.9C226.7 273.2 227.3 272.6 228 272.6H236.7C237.4 272.6 238 273.2 238 273.9V284.2C238 284.9 237.4 285.5 236.7 285.5Z" fill="#FFC861"/>
<path opacity="0.5" d="M317.9 323.7H309.2C308.5 323.7 307.9 323.1 307.9 322.4V312.1C307.9 311.4 308.5 310.8 309.2 310.8H317.9C318.6 310.8 319.2 311.4 319.2 312.1V322.4C319.2 323.2 318.6 323.7 317.9 323.7Z" fill="#FFC861"/>
<path opacity="0.5" d="M345.3 323.7H336.6C335.9 323.7 335.3 323.1 335.3 322.4V312.1C335.3 311.4 335.9 310.8 336.6 310.8H345.3C346 310.8 346.6 311.4 346.6 312.1V322.4C346.6 323.2 346 323.7 345.3 323.7Z" fill="#FFC861"/>
<path opacity="0.5" d="M373.7 323.7H365C364.3 323.7 363.7 323.1 363.7 322.4V312.1C363.7 311.4 364.3 310.8 365 310.8H373.7C374.4 310.8 375 311.4 375 312.1V322.4C374.9 323.2 374.4 323.7 373.7 323.7Z" fill="#FFC861"/>
<path opacity="0.3" d="M401.1 323.7H392.4C391.7 323.7 391.1 323.1 391.1 322.4V312.1C391.1 311.4 391.7 310.8 392.4 310.8H401.1C401.8 310.8 402.4 311.4 402.4 312.1V322.4C402.3 323.2 401.8 323.7 401.1 323.7Z" fill="#FFC861"/>
<path opacity="0.5" d="M290.5 323.7H281.8C281.1 323.7 280.5 323.1 280.5 322.4V312.1C280.5 311.4 281.1 310.8 281.8 310.8H290.5C291.2 310.8 291.8 311.4 291.8 312.1V322.4C291.8 323.2 291.2 323.7 290.5 323.7Z" fill="#FFC861"/>
<path opacity="0.3" d="M263.1 323.7H254.4C253.7 323.7 253.1 323.1 253.1 322.4V312.1C253.1 311.4 253.7 310.8 254.4 310.8H263.1C263.8 310.8 264.4 311.4 264.4 312.1V322.4C264.4 323.2 263.8 323.7 263.1 323.7Z" fill="#FFC861"/>
<path opacity="0.3" d="M236.7 324.7H228C227.3 324.7 226.7 324.1 226.7 323.4V313.1C226.7 312.4 227.3 311.8 228 311.8H236.7C237.4 311.8 238 312.4 238 313.1V323.4C238 324.2 237.4 324.7 236.7 324.7Z" fill="#FFC861"/>
<path opacity="0.3" d="M317.9 360.3H309.2C308.5 360.3 307.9 359.7 307.9 359V348.7C307.9 348 308.5 347.4 309.2 347.4H317.9C318.6 347.4 319.2 348 319.2 348.7V359C319.2 359.7 318.6 360.3 317.9 360.3Z" fill="#FFC861"/>
<path opacity="0.3" d="M345.3 360.3H336.6C335.9 360.3 335.3 359.7 335.3 359V348.7C335.3 348 335.9 347.4 336.6 347.4H345.3C346 347.4 346.6 348 346.6 348.7V359C346.6 359.7 346 360.3 345.3 360.3Z" fill="#FFC861"/>
<path opacity="0.3" d="M373.7 360.3H365C364.3 360.3 363.7 359.7 363.7 359V348.7C363.7 348 364.3 347.4 365 347.4H373.7C374.4 347.4 375 348 375 348.7V359C374.9 359.7 374.4 360.3 373.7 360.3Z" fill="#FFC861"/>
<path opacity="0.3" d="M401.1 360.3H392.4C391.7 360.3 391.1 359.7 391.1 359V348.7C391.1 348 391.7 347.4 392.4 347.4H401.1C401.8 347.4 402.4 348 402.4 348.7V359C402.3 359.7 401.8 360.3 401.1 360.3Z" fill="#FFC861"/>
<path opacity="0.3" d="M290.5 360.3H281.8C281.1 360.3 280.5 359.7 280.5 359V348.7C280.5 348 281.1 347.4 281.8 347.4H290.5C291.2 347.4 291.8 348 291.8 348.7V359C291.8 359.7 291.2 360.3 290.5 360.3Z" fill="#FFC861"/>
<path opacity="0.3" d="M263.1 360.3H254.4C253.7 360.3 253.1 359.7 253.1 359V348.7C253.1 348 253.7 347.4 254.4 347.4H263.1C263.8 347.4 264.4 348 264.4 348.7V359C264.4 359.7 263.8 360.3 263.1 360.3Z" fill="#FFC861"/>
<path opacity="0.3" d="M235.7 360.3H227C226.3 360.3 225.7 359.7 225.7 359V348.7C225.7 348 226.3 347.4 227 347.4H235.7C236.4 347.4 237 348 237 348.7V359C237 359.7 236.4 360.3 235.7 360.3Z" fill="#FFC861"/>
<path d="M1111.7 396.9H919.4C918.8 396.9 918.4 396.5 918.4 395.9V197.3C918.4 196.7 918.8 196.3 919.4 196.3H1111.7C1112.3 196.3 1112.7 196.7 1112.7 197.3V396C1112.7 396.5 1112.3 396.9 1111.7 396.9Z" fill="white" stroke="#FFC861" stroke-width="2" stroke-miterlimit="10" stroke-linecap="round" stroke-linejoin="round"/>
<path opacity="0.1" d="M1110.8 396.9H924C923.5 396.9 923 396.5 923 395.9V201.4C923 200.9 923.4 200.4 924 200.4H1110.8C1111.3 200.4 1111.8 200.8 1111.8 201.4V396C1111.7 396.5 1111.3 396.9 1110.8 396.9Z" fill="#FFC861"/>
<path opacity="0.1" d="M1110.8 396.9H924C923.5 396.9 923 396.5 923 395.9V201.4C923 200.9 923.4 200.4 924 200.4H1110.8C1111.3 200.4 1111.8 200.8 1111.8 201.4V396C1111.7 396.5 1111.3 396.9 1110.8 396.9Z" fill="#FFC861"/>
<path d="M1098.5 396.9H932.6C932 396.9 931.6 396.5 931.6 395.9V174.6C931.6 174 932 173.6 932.6 173.6H1098.5C1099.1 173.6 1099.5 174 1099.5 174.6V396C1099.5 396.5 1099.1 396.9 1098.5 396.9Z" fill="white" stroke="#FFC861" stroke-width="2" stroke-miterlimit="10" stroke-linecap="round" stroke-linejoin="round"/>
<path opacity="0.1" d="M1098.6 396.9H939C938.5 396.9 938 396.5 938 395.9V180.4C938 179.9 938.4 179.4 939 179.4H1098.6C1099.1 179.4 1099.6 179.8 1099.6 180.4V396C1099.5 396.5 1099.1 396.9 1098.6 396.9Z" fill="#FFC861"/>
<path d="M1014.8 129.3L971.8 149.7C971.1 150 970.7 150.7 970.7 151.5V364.9C970.7 366 971.6 366.9 972.7 366.9H1015.7H1058.7C1059.8 366.9 1060.7 366 1060.7 364.9V151.5C1060.7 150.7 1060.3 150 1059.6 149.7L1016.6 129.3C1016 129.1 1015.4 129.1 1014.8 129.3Z" fill="white" stroke="#FFC861" stroke-width="2" stroke-miterlimit="10" stroke-linecap="round" stroke-linejoin="round"/>
<path opacity="0.25" d="M1015.76 139.135L979.011 156.339C978.459 156.63 978 157.311 978 157.991V360.153C978 361.222 978.735 362 979.746 362H1016.5H1053.25C1054.17 362 1055 361.125 1055 360.153V159.06C1055 158.38 1054.63 157.699 1053.99 157.408L1017.24 139.233C1016.78 138.941 1016.22 138.941 1015.76 139.135Z" fill="#FFC861"/>
<path d="M1061.8 159.3H969.6V396H1061.8V159.3Z" fill="white" stroke="#FFC861" stroke-width="2" stroke-miterlimit="10" stroke-linecap="round" stroke-linejoin="round"/>
<path d="M1032.1 384.4H999.6C999 384.4 998.6 384 998.6 383.4V177C998.6 176.4 999 176 999.6 176H1032.1C1032.7 176 1033.1 176.4 1033.1 177V383.4C1033.1 383.9 1032.7 384.4 1032.1 384.4Z" fill="white" stroke="#FFC861" stroke-width="2" stroke-miterlimit="10" stroke-linecap="round" stroke-linejoin="round"/>
<path opacity="0.25" d="M1031.9 383.3H1004.9C1004.4 383.3 1004 382.9 1004 382.4V181.4C1004 180.9 1004.4 180.5 1004.9 180.5H1031.9C1032.4 180.5 1032.8 180.9 1032.8 181.4V382.4C1032.8 382.9 1032.4 383.3 1031.9 383.3Z" fill="#FFC861"/>
<path d="M959.7 213.5H944.5C943.4 213.5 942.5 212.6 942.5 211.5V195.6C942.5 194.5 943.4 193.6 944.5 193.6H959.7C960.8 193.6 961.7 194.5 961.7 195.6V211.5C961.7 212.6 960.8 213.5 959.7 213.5Z" fill="white" stroke="#FFC861" stroke-width="2" stroke-miterlimit="10" stroke-linecap="round" stroke-linejoin="round"/>
<path d="M959.7 256.6H944.5C943.4 256.6 942.5 255.7 942.5 254.6V238.7C942.5 237.6 943.4 236.7 944.5 236.7H959.7C960.8 236.7 961.7 237.6 961.7 238.7V254.6C961.7 255.7 960.8 256.6 959.7 256.6Z" fill="white" stroke="#FFC861" stroke-width="2" stroke-miterlimit="10" stroke-linecap="round" stroke-linejoin="round"/>
<path d="M959.7 299.7H944.5C943.4 299.7 942.5 298.8 942.5 297.7V281.8C942.5 280.7 943.4 279.8 944.5 279.8H959.7C960.8 279.8 961.7 280.7 961.7 281.8V297.7C961.7 298.8 960.8 299.7 959.7 299.7Z" fill="white" stroke="#FFC861" stroke-width="2" stroke-miterlimit="10" stroke-linecap="round" stroke-linejoin="round"/>
<path d="M959.7 342.8H944.5C943.4 342.8 942.5 341.9 942.5 340.8V324.9C942.5 323.8 943.4 322.9 944.5 322.9H959.7C960.8 322.9 961.7 323.8 961.7 324.9V340.8C961.7 341.9 960.8 342.8 959.7 342.8Z" fill="white" stroke="#FFC861" stroke-width="2" stroke-miterlimit="10" stroke-linecap="round" stroke-linejoin="round"/>
<path d="M961.7 366H942.5V385.9H961.7V366Z" fill="white" stroke="#FFC861" stroke-width="2" stroke-miterlimit="10" stroke-linecap="round" stroke-linejoin="round"/>
<path d="M959.7 341.8H944.5C943.4 341.8 942.5 340.9 942.5 339.8V323.9C942.5 322.8 943.4 321.9 944.5 321.9H959.7C960.8 321.9 961.7 322.8 961.7 323.9V339.8C961.7 340.9 960.8 341.8 959.7 341.8Z" fill="white" stroke="#FFC861" stroke-width="2" stroke-miterlimit="10" stroke-linecap="round" stroke-linejoin="round"/>
<path d="M961.7 365H942.5V384.9H961.7V365Z" fill="white" stroke="#FFC861" stroke-width="2" stroke-miterlimit="10" stroke-linecap="round" stroke-linejoin="round"/>
<path opacity="0.5" d="M960 213.5H947.7C946.8 213.5 946 212.8 946 211.8V198.1C946 197.2 946.7 196.4 947.7 196.4H960C960.9 196.4 961.7 197.1 961.7 198.1V211.8C961.7 212.7 960.9 213.5 960 213.5Z" fill="#FFC861"/>
<path opacity="0.5" d="M960 256.5H947.7C946.8 256.5 946 255.8 946 254.8V241.1C946 240.2 946.7 239.4 947.7 239.4H960C960.9 239.4 961.7 240.1 961.7 241.1V254.8C961.7 255.7 960.9 256.5 960 256.5Z" fill="#FFC861"/>
<path opacity="0.5" d="M960 299.5H947.7C946.8 299.5 946 298.8 946 297.8V284.1C946 283.2 946.7 282.4 947.7 282.4H960C960.9 282.4 961.7 283.1 961.7 284.1V297.8C961.7 298.7 960.9 299.5 960 299.5Z" fill="#FFC861"/>
<path opacity="0.25" d="M960 342.5H947.7C946.8 342.5 946 341.8 946 340.8V327.1C946 326.2 946.7 325.4 947.7 325.4H960C960.9 325.4 961.7 326.1 961.7 327.1V340.8C961.7 341.7 960.9 342.5 960 342.5Z" fill="#FFC861"/>
<path opacity="0.25" d="M960 386.5H947.7C946.8 386.5 946 385.8 946 384.8V371.1C946 370.2 946.7 369.4 947.7 369.4H960C960.9 369.4 961.7 370.1 961.7 371.1V384.8C961.7 385.7 960.9 386.5 960 386.5Z" fill="#FFC861"/>
<path d="M1087.7 213.5H1072.5C1071.4 213.5 1070.5 212.6 1070.5 211.5V195.6C1070.5 194.5 1071.4 193.6 1072.5 193.6H1087.7C1088.8 193.6 1089.7 194.5 1089.7 195.6V211.5C1089.7 212.6 1088.8 213.5 1087.7 213.5Z" fill="white" stroke="#FFC861" stroke-width="2" stroke-miterlimit="10" stroke-linecap="round" stroke-linejoin="round"/>
<path d="M1087.7 256.6H1072.5C1071.4 256.6 1070.5 255.7 1070.5 254.6V238.7C1070.5 237.6 1071.4 236.7 1072.5 236.7H1087.7C1088.8 236.7 1089.7 237.6 1089.7 238.7V254.6C1089.7 255.7 1088.8 256.6 1087.7 256.6Z" fill="white" stroke="#FFC861" stroke-width="2" stroke-miterlimit="10" stroke-linecap="round" stroke-linejoin="round"/>
<path d="M1087.7 299.7H1072.5C1071.4 299.7 1070.5 298.8 1070.5 297.7V281.8C1070.5 280.7 1071.4 279.8 1072.5 279.8H1087.7C1088.8 279.8 1089.7 280.7 1089.7 281.8V297.7C1089.7 298.8 1088.8 299.7 1087.7 299.7Z" fill="white" stroke="#FFC861" stroke-width="2" stroke-miterlimit="10" stroke-linecap="round" stroke-linejoin="round"/>
<path d="M1087.7 342.8H1072.5C1071.4 342.8 1070.5 341.9 1070.5 340.8V324.9C1070.5 323.8 1071.4 322.9 1072.5 322.9H1087.7C1088.8 322.9 1089.7 323.8 1089.7 324.9V340.8C1089.7 341.9 1088.8 342.8 1087.7 342.8Z" fill="white" stroke="#FFC861" stroke-width="2" stroke-miterlimit="10" stroke-linecap="round" stroke-linejoin="round"/>
<path d="M1089.7 366H1070.5V385.9H1089.7V366Z" fill="white" stroke="#FFC861" stroke-width="2" stroke-miterlimit="10" stroke-linecap="round" stroke-linejoin="round"/>
<path d="M1087.7 341.8H1072.5C1071.4 341.8 1070.5 340.9 1070.5 339.8V323.9C1070.5 322.8 1071.4 321.9 1072.5 321.9H1087.7C1088.8 321.9 1089.7 322.8 1089.7 323.9V339.8C1089.7 340.9 1088.8 341.8 1087.7 341.8Z" fill="white" stroke="#FFC861" stroke-width="2" stroke-miterlimit="10" stroke-linecap="round" stroke-linejoin="round"/>
<path d="M1089.7 365H1070.5V384.9H1089.7V365Z" fill="white" stroke="#FFC861" stroke-width="2" stroke-miterlimit="10" stroke-linecap="round" stroke-linejoin="round"/>
<path opacity="0.5" d="M1088 213.5H1075.7C1074.8 213.5 1074 212.8 1074 211.8V198.1C1074 197.2 1074.7 196.4 1075.7 196.4H1088C1088.9 196.4 1089.7 197.1 1089.7 198.1V211.8C1089.7 212.7 1088.9 213.5 1088 213.5Z" fill="#FFC861"/>
<path opacity="0.5" d="M1088 256.5H1075.7C1074.8 256.5 1074 255.8 1074 254.8V241.1C1074 240.2 1074.7 239.4 1075.7 239.4H1088C1088.9 239.4 1089.7 240.1 1089.7 241.1V254.8C1089.7 255.7 1088.9 256.5 1088 256.5Z" fill="#FFC861"/>
<path opacity="0.5" d="M1088 299.5H1075.7C1074.8 299.5 1074 298.8 1074 297.8V284.1C1074 283.2 1074.7 282.4 1075.7 282.4H1088C1088.9 282.4 1089.7 283.1 1089.7 284.1V297.8C1089.7 298.7 1088.9 299.5 1088 299.5Z" fill="#FFC861"/>
<path opacity="0.25" d="M1088 342.5H1075.7C1074.8 342.5 1074 341.8 1074 340.8V327.1C1074 326.2 1074.7 325.4 1075.7 325.4H1088C1088.9 325.4 1089.7 326.1 1089.7 327.1V340.8C1089.7 341.7 1088.9 342.5 1088 342.5Z" fill="#FFC861"/>
<path opacity="0.25" d="M1088 386.5H1075.7C1074.8 386.5 1074 385.8 1074 384.8V371.1C1074 370.2 1074.7 369.4 1075.7 369.4H1088C1088.9 369.4 1089.7 370.1 1089.7 371.1V384.8C1089.7 385.7 1088.9 386.5 1088 386.5Z" fill="#FFC861"/>
<path d="M911.9 221H824.1V235.6H911.9V221Z" fill="white" stroke="#C5F76E" stroke-width="2" stroke-miterlimit="10" stroke-linecap="round" stroke-linejoin="round"/>
<path d="M919 234.6H816.9V398.5H919V234.6Z" fill="white" stroke="#C5F76E" stroke-width="2" stroke-miterlimit="10" stroke-linecap="round" stroke-linejoin="round"/>
<path opacity="0.25" d="M827 241C827 239.895 827.895 239 829 239H913C914.105 239 915 239.895 915 241V393C915 394.105 914.105 395 913 395H829" fill="#C5F76E"/>
<path d="M906.9 261.8H827.4C825.3 261.8 823.6 260.5 823.6 258.9C823.6 257.3 825.3 256 827.4 256H906.9C909 256 910.7 257.3 910.7 258.9C910.7 260.5 909 261.8 906.9 261.8Z" fill="white" stroke="#C5F76E" stroke-width="2" stroke-miterlimit="10" stroke-linecap="round" stroke-linejoin="round"/>
<path d="M906.9 281.8H827.4C825.3 281.8 823.6 280.5 823.6 278.9C823.6 277.3 825.3 276 827.4 276H906.9C909 276 910.7 277.3 910.7 278.9C910.7 280.5 909 281.8 906.9 281.8Z" fill="white" stroke="#C5F76E" stroke-width="2" stroke-miterlimit="10" stroke-linecap="round" stroke-linejoin="round"/>
<path d="M906.9 301.7H827.4C825.3 301.7 823.6 300.4 823.6 298.8C823.6 297.2 825.3 295.9 827.4 295.9H906.9C909 295.9 910.7 297.2 910.7 298.8C910.7 300.4 909 301.7 906.9 301.7Z" fill="white" stroke="#C5F76E" stroke-width="2" stroke-miterlimit="10" stroke-linecap="round" stroke-linejoin="round"/>
<path d="M906.9 321.7H827.4C825.3 321.7 823.6 320.4 823.6 318.8C823.6 317.2 825.3 315.9 827.4 315.9H906.9C909 315.9 910.7 317.2 910.7 318.8C910.7 320.4 909 321.7 906.9 321.7Z" fill="white" stroke="#C5F76E" stroke-width="2" stroke-miterlimit="10" stroke-linecap="round" stroke-linejoin="round"/>
<path d="M906.9 338.7H827.4" stroke="#C5F76E" stroke-width="2" stroke-miterlimit="10" stroke-linecap="round" stroke-linejoin="round"/>
<path d="M906.9 341.6H827.4C825.3 341.6 823.6 340.3 823.6 338.7C823.6 337.1 825.3 335.8 827.4 335.8H906.9C909 335.8 910.7 337.1 910.7 338.7C910.7 340.3 909 341.6 906.9 341.6Z" fill="white" stroke="#C5F76E" stroke-width="2" stroke-miterlimit="10" stroke-linecap="round" stroke-linejoin="round"/>
<path d="M906.9 358.7H827.4" stroke="#C5F76E" stroke-width="2" stroke-miterlimit="10" stroke-linecap="round" stroke-linejoin="round"/>
<path d="M906.9 361.6H827.4C825.3 361.6 823.6 360.3 823.6 358.7C823.6 357.1 825.3 355.8 827.4 355.8H906.9C909 355.8 910.7 357.1 910.7 358.7C910.7 360.3 909 361.6 906.9 361.6Z" fill="white" stroke="#C5F76E" stroke-width="2" stroke-miterlimit="10" stroke-linecap="round" stroke-linejoin="round"/>
<path d="M906.9 378.6H827.4" stroke="#C5F76E" stroke-width="2" stroke-miterlimit="10" stroke-linecap="round" stroke-linejoin="round"/>
<path d="M906.9 381.5H827.4C825.3 381.5 823.6 380.2 823.6 378.6C823.6 377 825.3 375.7 827.4 375.7H906.9C909 375.7 910.7 377 910.7 378.6C910.7 380.2 909 381.5 906.9 381.5Z" fill="white" stroke="#C5F76E" stroke-width="2" stroke-miterlimit="10" stroke-linecap="round" stroke-linejoin="round"/>
<path opacity="0.25" d="M833 232C833 233.105 833.895 234 835 234H907C908.105 234 909 233.105 909 232V227C909 225.895 908.105 225 907 225H835" fill="#C5F76E" stroke="white" stroke-width="2" stroke-miterlimit="10" stroke-linecap="round" stroke-linejoin="round"/>
<path d="M1117.4 314.2V289H1011.5V313H922.2V340.5H862.2V398.7H1117.4V314.2Z" fill="white" stroke="#00CFFF" stroke-width="2" stroke-miterlimit="10" stroke-linecap="round" stroke-linejoin="round"/>
<path d="M1031.6 302.7H1021V311.3H1031.6V302.7Z" fill="white" stroke="#00CFFF" stroke-width="2" stroke-miterlimit="10" stroke-linecap="round" stroke-linejoin="round"/>
<path d="M1031.6 328.2H1021V336.8H1031.6V328.2Z" fill="white" stroke="#00CFFF" stroke-width="2" stroke-miterlimit="10" stroke-linecap="round" stroke-linejoin="round"/>
<path d="M1031.6 353.6H1021V362.2H1031.6V353.6Z" fill="white" stroke="#00CFFF" stroke-width="2" stroke-miterlimit="10" stroke-linecap="round" stroke-linejoin="round"/>
<path d="M1068.6 302.7H1058V311.3H1068.6V302.7Z" fill="white" stroke="#00CFFF" stroke-width="2" stroke-miterlimit="10" stroke-linecap="round" stroke-linejoin="round"/>
<path d="M1068.6 328.2H1058V336.8H1068.6V328.2Z" fill="white" stroke="#00CFFF" stroke-width="2" stroke-miterlimit="10" stroke-linecap="round" stroke-linejoin="round"/>
<path d="M1068.6 353.6H1058V362.2H1068.6V353.6Z" fill="white" stroke="#00CFFF" stroke-width="2" stroke-miterlimit="10" stroke-linecap="round" stroke-linejoin="round"/>
<path d="M1105.6 302.7H1095V311.3H1105.6V302.7Z" fill="white" stroke="#00CFFF" stroke-width="2" stroke-miterlimit="10" stroke-linecap="round" stroke-linejoin="round"/>
<path d="M1105.6 328.2H1095V336.8H1105.6V328.2Z" fill="white" stroke="#00CFFF" stroke-width="2" stroke-miterlimit="10" stroke-linecap="round" stroke-linejoin="round"/>
<path d="M1105.6 353.6H1095V362.2H1105.6V353.6Z" fill="white" stroke="#00CFFF" stroke-width="2" stroke-miterlimit="10" stroke-linecap="round" stroke-linejoin="round"/>
<path d="M942.9 328.2H932.3V336.8H942.9V328.2Z" fill="white" stroke="#00CFFF" stroke-width="2" stroke-miterlimit="10" stroke-linecap="round" stroke-linejoin="round"/>
<path d="M942.9 353.6H932.3V362.2H942.9V353.6Z" fill="white" stroke="#00CFFF" stroke-width="2" stroke-miterlimit="10" stroke-linecap="round" stroke-linejoin="round"/>
<path d="M970.8 328.2H960.2V336.8H970.8V328.2Z" fill="white" stroke="#00CFFF" stroke-width="2" stroke-miterlimit="10" stroke-linecap="round" stroke-linejoin="round"/>
<path d="M970.8 353.6H960.2V362.2H970.8V353.6Z" fill="white" stroke="#00CFFF" stroke-width="2" stroke-miterlimit="10" stroke-linecap="round" stroke-linejoin="round"/>
<path d="M998.7 328.2H988.1V336.8H998.7V328.2Z" fill="white" stroke="#00CFFF" stroke-width="2" stroke-miterlimit="10" stroke-linecap="round" stroke-linejoin="round"/>
<path d="M998.7 353.6H988.1V362.2H998.7V353.6Z" fill="white" stroke="#00CFFF" stroke-width="2" stroke-miterlimit="10" stroke-linecap="round" stroke-linejoin="round"/>
<path d="M1031.6 381H1021V389.6H1031.6V381Z" fill="white" stroke="#00CFFF" stroke-width="2" stroke-miterlimit="10" stroke-linecap="round" stroke-linejoin="round"/>
<path d="M1068.6 381H1058V389.6H1068.6V381Z" fill="white" stroke="#00CFFF" stroke-width="2" stroke-miterlimit="10" stroke-linecap="round" stroke-linejoin="round"/>
<path d="M1105.6 381H1095V389.6H1105.6V381Z" fill="white" stroke="#00CFFF" stroke-width="2" stroke-miterlimit="10" stroke-linecap="round" stroke-linejoin="round"/>
<path d="M942.9 381H932.3V389.6H942.9V381Z" fill="white" stroke="#00CFFF" stroke-width="2" stroke-miterlimit="10" stroke-linecap="round" stroke-linejoin="round"/>
<path opacity="0.36" d="M942.9 328.2H936V336.8H942.9V328.2Z" fill="#00CFFF"/>
<path opacity="0.36" d="M942.9 353.6H936V362.2H942.9V353.6Z" fill="#00CFFF"/>
<path opacity="0.36" d="M942.9 381H936V389.6H942.9V381Z" fill="#00CFFF"/>
<path d="M970.8 381H960.2V389.6H970.8V381Z" fill="white" stroke="#00CFFF" stroke-width="2" stroke-miterlimit="10" stroke-linecap="round" stroke-linejoin="round"/>
<path opacity="0.36" d="M970.9 328.2H964V336.8H970.9V328.2Z" fill="#00CFFF"/>
<path opacity="0.36" d="M970.9 353.6H964V362.2H970.9V353.6Z" fill="#00CFFF"/>
<path opacity="0.36" d="M970.9 381H964V389.6H970.9V381Z" fill="#00CFFF"/>
<path d="M885.9 353.6H875.3V362.2H885.9V353.6Z" fill="white" stroke="#00CFFF" stroke-width="2" stroke-miterlimit="10" stroke-linecap="round" stroke-linejoin="round"/>
<path d="M913.8 353.6H903.2V362.2H913.8V353.6Z" fill="white" stroke="#00CFFF" stroke-width="2" stroke-miterlimit="10" stroke-linecap="round" stroke-linejoin="round"/>
<path d="M885.9 381H875.3V389.6H885.9V381Z" fill="white" stroke="#00CFFF" stroke-width="2" stroke-miterlimit="10" stroke-linecap="round" stroke-linejoin="round"/>
<path opacity="0.36" d="M885.9 353.6H879V362.2H885.9V353.6Z" fill="#00CFFF"/>
<path opacity="0.36" d="M885.9 381H879V389.6H885.9V381Z" fill="#00CFFF"/>
<path d="M913.8 381H903.2V389.6H913.8V381Z" fill="white" stroke="#00CFFF" stroke-width="2" stroke-miterlimit="10" stroke-linecap="round" stroke-linejoin="round"/>
<path opacity="0.36" d="M913.9 353.6H907V362.2H913.9V353.6Z" fill="#00CFFF"/>
<path opacity="0.36" d="M913.9 381H907V389.6H913.9V381Z" fill="#00CFFF"/>
<path d="M998.7 381H988.1V389.6H998.7V381Z" fill="white" stroke="#00CFFF" stroke-width="2" stroke-miterlimit="10" stroke-linecap="round" stroke-linejoin="round"/>
<path opacity="0.36" d="M998.9 328.2H992V336.8H998.9V328.2Z" fill="#00CFFF"/>
<path opacity="0.36" d="M998.9 353.6H992V362.2H998.9V353.6Z" fill="#00CFFF"/>
<path opacity="0.36" d="M998.9 381H992V389.6H998.9V381Z" fill="#00CFFF"/>
<path opacity="0.36" d="M1031.9 328.2H1025V336.8H1031.9V328.2Z" fill="#00CFFF"/>
<path opacity="0.36" d="M1031.9 353.6H1025V362.2H1031.9V353.6Z" fill="#00CFFF"/>
<path opacity="0.36" d="M1031.9 381H1025V389.6H1031.9V381Z" fill="#00CFFF"/>
<path opacity="0.36" d="M1068.9 328.2H1062V336.8H1068.9V328.2Z" fill="#00CFFF"/>
<path opacity="0.36" d="M1068.9 353.6H1062V362.2H1068.9V353.6Z" fill="#00CFFF"/>
<path opacity="0.36" d="M1068.9 381H1062V389.6H1068.9V381Z" fill="#00CFFF"/>
<path opacity="0.36" d="M1105.9 328.2H1099V336.8H1105.9V328.2Z" fill="#00CFFF"/>
<path opacity="0.36" d="M1031.9 302.2H1025V310.8H1031.9V302.2Z" fill="#00CFFF"/>
<path opacity="0.36" d="M1068.9 302.2H1062V310.8H1068.9V302.2Z" fill="#00CFFF"/>
<path opacity="0.36" d="M1105.9 302.2H1099V310.8H1105.9V302.2Z" fill="#00CFFF"/>
<path opacity="0.36" d="M1105.9 353.6H1099V362.2H1105.9V353.6Z" fill="#00CFFF"/>
<path opacity="0.36" d="M1105.9 381H1099V389.6H1105.9V381Z" fill="#00CFFF"/>
<path d="M526.7 200.1V167.2H517.4V135.3H501L476.7 97L452.4 135.3H435.9V167.2H426.6V200.1H421.4V397.5H531.9V200.1H526.7Z" fill="white" stroke="#C5F76E" stroke-width="2" stroke-miterlimit="10" stroke-linecap="round" stroke-linejoin="round"/>
<path opacity="0.2" d="M525.248 204.095V174.182C525.248 173.59 524.743 173.195 524.237 173.195H517.565C516.958 173.195 516.554 172.701 516.554 172.207V143.183C516.554 142.591 516.048 142.196 515.542 142.196H501.793C501.388 142.196 501.085 141.998 500.883 141.702L479.348 109.518C478.944 108.827 478.034 108.827 477.63 109.518L456.095 143.775C455.893 144.071 455.59 144.269 455.185 144.269H443.559C442.952 144.269 442.548 144.762 442.548 145.256V175.268C442.548 175.86 442.042 176.255 441.537 176.255H434.864C434.257 176.255 433.853 176.749 433.853 177.242V204.095C433.853 204.687 433.347 205.082 432.842 205.082H430.011C429.404 205.082 429 205.576 429 206.07V396.013C429 396.605 429.506 397 430.011 397H528.989C529.596 397 530 396.506 530 396.013V206.168C530 205.576 529.494 205.181 528.989 205.181H526.259C525.653 205.181 525.248 204.687 525.248 204.095Z" fill="#C5F76E"/>
<path d="M497.9 170L476.7 136.5L455.4 170" stroke="#C5F76E" stroke-width="2" stroke-miterlimit="10" stroke-linecap="round" stroke-linejoin="round"/>
<path d="M497.9 202L476.7 168.5L455.4 202" stroke="#C5F76E" stroke-width="2" stroke-miterlimit="10" stroke-linecap="round" stroke-linejoin="round"/>
<path d="M452.8 397.5V211.4" stroke="#C5F76E" stroke-width="2" stroke-miterlimit="10" stroke-linecap="round" stroke-linejoin="round"/>
<path d="M500.5 211.4V397.5" stroke="#C5F76E" stroke-width="2" stroke-miterlimit="10" stroke-linecap="round" stroke-linejoin="round"/>
<path d="M483.4 228.1H470C469.4 228.1 468.9 227.6 468.9 227V213.8C468.9 213.2 469.4 212.7 470 212.7H483.4C484 212.7 484.5 213.2 484.5 213.8V227C484.6 227.6 484.1 228.1 483.4 228.1Z" fill="white" stroke="#C5F76E" stroke-width="2" stroke-miterlimit="10" stroke-linecap="round" stroke-linejoin="round"/>
<path opacity="0.57" d="M483.9 228.7H474.3C473.9 228.7 473.5 228.3 473.5 227.9V218.5C473.5 218.1 473.9 217.7 474.3 217.7H483.9C484.3 217.7 484.7 218.1 484.7 218.5V227.9C484.7 228.4 484.4 228.7 483.9 228.7Z" fill="#C5F76E"/>
<path d="M483.4 256.7H470C469.4 256.7 468.9 256.2 468.9 255.6V242.4C468.9 241.8 469.4 241.3 470 241.3H483.4C484 241.3 484.5 241.8 484.5 242.4V255.6C484.6 256.2 484.1 256.7 483.4 256.7Z" fill="white" stroke="#C5F76E" stroke-width="2" stroke-miterlimit="10" stroke-linecap="round" stroke-linejoin="round"/>
<path opacity="0.57" d="M483.9 257H474.3C473.9 257 473.5 256.6 473.5 256.2V246.8C473.5 246.4 473.9 246 474.3 246H483.9C484.3 246 484.7 246.4 484.7 246.8V256.2C484.7 256.7 484.4 257 483.9 257Z" fill="#C5F76E"/>
<path d="M483.4 285.4H470C469.4 285.4 468.9 284.9 468.9 284.3V271.1C468.9 270.5 469.4 270 470 270H483.4C484 270 484.5 270.5 484.5 271.1V284.3C484.6 284.9 484.1 285.4 483.4 285.4Z" fill="white" stroke="#C5F76E" stroke-width="2" stroke-miterlimit="10" stroke-linecap="round" stroke-linejoin="round"/>
<path opacity="0.57" d="M483.9 285.3H474.3C473.9 285.3 473.5 284.9 473.5 284.5V275.1C473.5 274.7 473.9 274.3 474.3 274.3H483.9C484.3 274.3 484.7 274.7 484.7 275.1V284.5C484.7 285 484.4 285.3 483.9 285.3Z" fill="#C5F76E"/>
<path d="M483.4 314H470C469.4 314 468.9 313.5 468.9 312.9V299.7C468.9 299.1 469.4 298.6 470 298.6H483.4C484 298.6 484.5 299.1 484.5 299.7V312.9C484.6 313.5 484.1 314 483.4 314Z" fill="white" stroke="#C5F76E" stroke-width="2" stroke-miterlimit="10" stroke-linecap="round" stroke-linejoin="round"/>
<path opacity="0.57" d="M483.9 314.7H474.3C473.9 314.7 473.5 314.3 473.5 313.9V304.5C473.5 304.1 473.9 303.7 474.3 303.7H483.9C484.3 303.7 484.7 304.1 484.7 304.5V313.9C484.7 314.3 484.4 314.7 483.9 314.7Z" fill="#C5F76E"/>
<path d="M483.1 341.9H470.3C469.7 341.9 469.2 341.4 469.2 340.8V328.2C469.2 327.6 469.7 327.1 470.3 327.1H483.1C483.7 327.1 484.2 327.6 484.2 328.2V340.8C484.2 341.5 483.7 341.9 483.1 341.9Z" fill="white" stroke="#C5F76E" stroke-width="2" stroke-miterlimit="10" stroke-linecap="round" stroke-linejoin="round"/>
<path d="M407.6 331.1V303.5H251.7V329.7H154V398.5H251.7H253.5H405.5H407.6H486.1V331.1H407.6Z" fill="white" stroke="#00CFFF" stroke-width="2" stroke-miterlimit="10" stroke-linecap="round" stroke-linejoin="round"/>
<path d="M273.7 318.4H262.1V327.8H273.7V318.4Z" fill="white" stroke="#00CFFF" stroke-width="2" stroke-miterlimit="10" stroke-linecap="round" stroke-linejoin="round"/>
<path d="M273.7 346.3H262.1V355.7H273.7V346.3Z" fill="white" stroke="#00CFFF" stroke-width="2" stroke-miterlimit="10" stroke-linecap="round" stroke-linejoin="round"/>
<path d="M273.7 374.2H262.1V383.6H273.7V374.2Z" fill="white" stroke="#00CFFF" stroke-width="2" stroke-miterlimit="10" stroke-linecap="round" stroke-linejoin="round"/>
<path d="M314.2 318.4H302.6V327.8H314.2V318.4Z" fill="white" stroke="#00CFFF" stroke-width="2" stroke-miterlimit="10" stroke-linecap="round" stroke-linejoin="round"/>
<path d="M314.2 346.3H302.6V355.7H314.2V346.3Z" fill="white" stroke="#00CFFF" stroke-width="2" stroke-miterlimit="10" stroke-linecap="round" stroke-linejoin="round"/>
<path d="M314.2 374.2H302.6V383.6H314.2V374.2Z" fill="white" stroke="#00CFFF" stroke-width="2" stroke-miterlimit="10" stroke-linecap="round" stroke-linejoin="round"/>
<path d="M354.6 318.4H343V327.8H354.6V318.4Z" fill="white" stroke="#00CFFF" stroke-width="2" stroke-miterlimit="10" stroke-linecap="round" stroke-linejoin="round"/>
<path d="M354.6 346.3H343V355.7H354.6V346.3Z" fill="white" stroke="#00CFFF" stroke-width="2" stroke-miterlimit="10" stroke-linecap="round" stroke-linejoin="round"/>
<path d="M354.6 374.2H343V383.6H354.6V374.2Z" fill="white" stroke="#00CFFF" stroke-width="2" stroke-miterlimit="10" stroke-linecap="round" stroke-linejoin="round"/>
<path d="M395.1 318.4H383.5V327.8H395.1V318.4Z" fill="white" stroke="#00CFFF" stroke-width="2" stroke-miterlimit="10" stroke-linecap="round" stroke-linejoin="round"/>
<path d="M395.1 346.3H383.5V355.7H395.1V346.3Z" fill="white" stroke="#00CFFF" stroke-width="2" stroke-miterlimit="10" stroke-linecap="round" stroke-linejoin="round"/>
<path d="M395.1 374.2H383.5V383.6H395.1V374.2Z" fill="white" stroke="#00CFFF" stroke-width="2" stroke-miterlimit="10" stroke-linecap="round" stroke-linejoin="round"/>
<path d="M436.6 346.3H425V355.7H436.6V346.3Z" fill="white" stroke="#00CFFF" stroke-width="2" stroke-miterlimit="10" stroke-linecap="round" stroke-linejoin="round"/>
<path d="M436.6 374.2H425V383.6H436.6V374.2Z" fill="white" stroke="#00CFFF" stroke-width="2" stroke-miterlimit="10" stroke-linecap="round" stroke-linejoin="round"/>
<path d="M466.2 346.3H454.6V355.7H466.2V346.3Z" fill="white" stroke="#00CFFF" stroke-width="2" stroke-miterlimit="10" stroke-linecap="round" stroke-linejoin="round"/>
<path d="M466.2 374.2H454.6V383.6H466.2V374.2Z" fill="white" stroke="#00CFFF" stroke-width="2" stroke-miterlimit="10" stroke-linecap="round" stroke-linejoin="round"/>
<path d="M176.7 346.3H165.1V355.7H176.7V346.3Z" fill="white" stroke="#00CFFF" stroke-width="2" stroke-miterlimit="10" stroke-linecap="round" stroke-linejoin="round"/>
<path d="M176.7 374.2H165.1V383.6H176.7V374.2Z" fill="white" stroke="#00CFFF" stroke-width="2" stroke-miterlimit="10" stroke-linecap="round" stroke-linejoin="round"/>
<path opacity="0.36" d="M176.6 346.3H169V355.7H176.6V346.3Z" fill="#00CFFF"/>
<path opacity="0.36" d="M176.6 374.2H169V383.6H176.6V374.2Z" fill="#00CFFF"/>
<path d="M207.2 346.3H195.6V355.7H207.2V346.3Z" fill="white" stroke="#00CFFF" stroke-width="2" stroke-miterlimit="10" stroke-linecap="round" stroke-linejoin="round"/>
<path d="M207.2 374.2H195.6V383.6H207.2V374.2Z" fill="white" stroke="#00CFFF" stroke-width="2" stroke-miterlimit="10" stroke-linecap="round" stroke-linejoin="round"/>
<path opacity="0.36" d="M206.6 346.3H199V355.7H206.6V346.3Z" fill="#00CFFF"/>
<path opacity="0.36" d="M206.6 374.2H199V383.6H206.6V374.2Z" fill="#00CFFF"/>
<path d="M237.7 346.3H226.1V355.7H237.7V346.3Z" fill="white" stroke="#00CFFF" stroke-width="2" stroke-miterlimit="10" stroke-linecap="round" stroke-linejoin="round"/>
<path d="M237.7 374.2H226.1V383.6H237.7V374.2Z" fill="white" stroke="#00CFFF" stroke-width="2" stroke-miterlimit="10" stroke-linecap="round" stroke-linejoin="round"/>
<path opacity="0.36" d="M237.6 346.3H230V355.7H237.6V346.3Z" fill="#00CFFF"/>
<path opacity="0.36" d="M237.6 374.2H230V383.6H237.6V374.2Z" fill="#00CFFF"/>
<path opacity="0.36" d="M273.6 346.3H266V355.7H273.6V346.3Z" fill="#00CFFF"/>
<path opacity="0.36" d="M273.6 374.2H266V383.6H273.6V374.2Z" fill="#00CFFF"/>
<path opacity="0.36" d="M313.6 346.3H306V355.7H313.6V346.3Z" fill="#00CFFF"/>
<path opacity="0.36" d="M313.6 374.2H306V383.6H313.6V374.2Z" fill="#00CFFF"/>
<path opacity="0.36" d="M354.6 346.3H347V355.7H354.6V346.3Z" fill="#00CFFF"/>
<path opacity="0.36" d="M354.6 374.2H347V383.6H354.6V374.2Z" fill="#00CFFF"/>
<path opacity="0.36" d="M394.6 346.3H387V355.7H394.6V346.3Z" fill="#00CFFF"/>
<path opacity="0.36" d="M273.6 318.3H266V327.7H273.6V318.3Z" fill="#00CFFF"/>
<path opacity="0.36" d="M313.6 318.3H306V327.7H313.6V318.3Z" fill="#00CFFF"/>
<path opacity="0.36" d="M354.6 318.3H347V327.7H354.6V318.3Z" fill="#00CFFF"/>
<path opacity="0.36" d="M394.6 318.3H387V327.7H394.6V318.3Z" fill="#00CFFF"/>
<path opacity="0.36" d="M394.6 374.2H387V383.6H394.6V374.2Z" fill="#00CFFF"/>
<path opacity="0.36" d="M436.6 346.3H429V355.7H436.6V346.3Z" fill="#00CFFF"/>
<path opacity="0.36" d="M436.6 374.2H429V383.6H436.6V374.2Z" fill="#00CFFF"/>
<path opacity="0.36" d="M466.6 346.3H459V355.7H466.6V346.3Z" fill="#00CFFF"/>
<path opacity="0.36" d="M466.6 374.2H459V383.6H466.6V374.2Z" fill="#00CFFF"/>
<path d="M599.5 197.6H540V400.5H599.5V197.6Z" fill="white" stroke="#FFC861" stroke-width="2" stroke-miterlimit="10" stroke-linecap="round" stroke-linejoin="round"/>
<path opacity="0.2" d="M599 202H546V403H599V202Z" fill="#FFC861"/>
<path d="M556.8 390.3C555.829 390.3 555 389.525 555 388.5V379.3C555 378.329 555.775 377.5 556.8 377.5C557.771 377.5 558.6 378.275 558.6 379.3V388.5C558.6 389.471 557.825 390.3 556.8 390.3ZM556.8 362.5C555.829 362.5 555 361.725 555 360.7V351.5C555 350.529 555.775 349.7 556.8 349.7C557.771 349.7 558.6 350.475 558.6 351.5V360.7C558.6 361.748 557.848 362.5 556.8 362.5ZM556.8 334.8C555.829 334.8 555 334.025 555 333V323.8C555 322.829 555.775 322 556.8 322C557.771 322 558.6 322.775 558.6 323.8V333C558.6 333.971 557.825 334.8 556.8 334.8ZM556.8 307C555.829 307 555 306.225 555 305.2V296C555 295.029 555.775 294.2 556.8 294.2C557.771 294.2 558.6 294.975 558.6 296V305.2C558.6 306.248 557.848 307 556.8 307ZM556.8 279.3C555.829 279.3 555 278.525 555 277.5V268.3C555 267.329 555.775 266.5 556.8 266.5C557.771 266.5 558.6 267.275 558.6 268.3V277.5C558.6 278.548 557.848 279.3 556.8 279.3ZM556.8 251.6C555.829 251.6 555 250.825 555 249.8V240.6C555 239.629 555.775 238.8 556.8 238.8C557.771 238.8 558.6 239.575 558.6 240.6V249.8C558.6 250.771 557.825 251.6 556.8 251.6ZM556.8 223.8C555.829 223.8 555 223.025 555 222V212.8C555 211.829 555.775 211 556.8 211C557.771 211 558.6 211.775 558.6 212.8V222C558.6 223.048 557.848 223.8 556.8 223.8Z" stroke="#FFC861" stroke-width="2"/>
<path d="M569.8 390.3C568.829 390.3 568 389.525 568 388.5V379.3C568 378.329 568.775 377.5 569.8 377.5C570.771 377.5 571.6 378.275 571.6 379.3V388.5C571.6 389.448 570.748 390.3 569.8 390.3ZM569.8 362.5C568.829 362.5 568 361.725 568 360.7V351.5C568 350.529 568.775 349.7 569.8 349.7C570.771 349.7 571.6 350.475 571.6 351.5V360.7C571.6 361.725 570.771 362.5 569.8 362.5ZM569.8 334.8C568.829 334.8 568 334.025 568 333V323.8C568 322.829 568.775 322 569.8 322C570.771 322 571.6 322.775 571.6 323.8V333C571.6 333.948 570.748 334.8 569.8 334.8ZM569.8 307C568.829 307 568 306.225 568 305.2V296C568 295.029 568.775 294.2 569.8 294.2C570.771 294.2 571.6 294.975 571.6 296V305.2C571.6 306.225 570.771 307 569.8 307ZM569.8 279.3C568.829 279.3 568 278.525 568 277.5V268.3C568 267.329 568.775 266.5 569.8 266.5C570.771 266.5 571.6 267.275 571.6 268.3V277.5C571.6 278.525 570.771 279.3 569.8 279.3ZM569.8 251.6C568.829 251.6 568 250.825 568 249.8V240.6C568 239.629 568.775 238.8 569.8 238.8C570.771 238.8 571.6 239.575 571.6 240.6V249.8C571.6 250.748 570.748 251.6 569.8 251.6ZM569.8 223.8C568.829 223.8 568 223.025 568 222V212.8C568 211.829 568.775 211 569.8 211C570.771 211 571.6 211.775 571.6 212.8V222C571.6 223.025 570.771 223.8 569.8 223.8Z" stroke="#FFC861" stroke-width="2"/>
<path d="M581.8 390.3C580.829 390.3 580 389.525 580 388.5V379.3C580 378.329 580.775 377.5 581.8 377.5C582.848 377.5 583.6 378.252 583.6 379.3V388.5C583.6 389.448 582.748 390.3 581.8 390.3ZM581.8 362.5C580.829 362.5 580 361.725 580 360.7V351.5C580 350.529 580.775 349.7 581.8 349.7C582.848 349.7 583.6 350.452 583.6 351.5V360.7C583.6 361.725 582.771 362.5 581.8 362.5ZM581.8 334.8C580.829 334.8 580 334.025 580 333V323.8C580 322.829 580.775 322 581.8 322C582.848 322 583.6 322.752 583.6 323.8V333C583.6 333.948 582.748 334.8 581.8 334.8ZM581.8 307C580.829 307 580 306.225 580 305.2V296C580 295.029 580.775 294.2 581.8 294.2C582.848 294.2 583.6 294.952 583.6 296V305.2C583.6 306.225 582.771 307 581.8 307ZM581.8 279.3C580.829 279.3 580 278.525 580 277.5V268.3C580 267.329 580.775 266.5 581.8 266.5C582.848 266.5 583.6 267.252 583.6 268.3V277.5C583.6 278.525 582.771 279.3 581.8 279.3ZM581.8 251.6C580.829 251.6 580 250.825 580 249.8V240.6C580 239.629 580.775 238.8 581.8 238.8C582.848 238.8 583.6 239.552 583.6 240.6V249.8C583.6 250.748 582.748 251.6 581.8 251.6ZM581.8 223.8C580.829 223.8 580 223.025 580 222V212.8C580 211.829 580.775 211 581.8 211C582.848 211 583.6 211.752 583.6 212.8V222C583.6 223.025 582.771 223.8 581.8 223.8Z" stroke="#FFC861" stroke-width="2"/>
<path d="M560.8 197.6H578.7" stroke="#FFC861" stroke-width="2" stroke-miterlimit="10" stroke-linecap="round" stroke-linejoin="round"/>
<path d="M590.5 133H548.9V140.1H590.5V133Z" fill="white" stroke="#FFC861" stroke-width="2" stroke-miterlimit="10" stroke-linecap="round" stroke-linejoin="round"/>
<path d="M591.5 147.5H547.9V196.8H591.5V147.5Z" fill="white" stroke="#FFC861" stroke-width="2" stroke-miterlimit="10" stroke-linecap="round" stroke-linejoin="round"/>
<path d="M583.6 147.5H555.6V196.8H583.6V147.5Z" fill="white" stroke="#FFC861" stroke-width="2" stroke-miterlimit="10" stroke-linecap="round" stroke-linejoin="round"/>
<path d="M573.6 147.5H565.7V196.8H573.6V147.5Z" fill="white" stroke="#FFC861" stroke-width="2" stroke-miterlimit="10" stroke-linecap="round" stroke-linejoin="round"/>
<g opacity="0.2">
<path d="M583.6 147.5H555.6V196.8H583.6V147.5Z" fill="#FFC861" stroke="white" stroke-width="2" stroke-miterlimit="10" stroke-linecap="round" stroke-linejoin="round"/>
<path d="M573.6 147.5H565.7V196.8H573.6V147.5Z" fill="#FFC861" stroke="white" stroke-width="2" stroke-miterlimit="10" stroke-linecap="round" stroke-linejoin="round"/>
</g>
<path d="M594.9 187.1H544.4V196.8H594.9V187.1Z" fill="white" stroke="#FFC861" stroke-width="2" stroke-miterlimit="10" stroke-linecap="round" stroke-linejoin="round"/>
<path d="M594.9 140.1H544.4V149.8H594.9V140.1Z" fill="white" stroke="#FFC861" stroke-width="2" stroke-miterlimit="10" stroke-linecap="round" stroke-linejoin="round"/>
<path d="M569.6 193.4C576.504 193.4 582.1 187.804 582.1 180.9C582.1 173.996 576.504 168.4 569.6 168.4C562.697 168.4 557.1 173.996 557.1 180.9C557.1 187.804 562.697 193.4 569.6 193.4Z" fill="white" stroke="#FFC861" stroke-width="2" stroke-miterlimit="10" stroke-linecap="round" stroke-linejoin="round"/>
<path opacity="0.5" d="M571.5 196.2C578.404 196.2 584 190.604 584 183.7C584 176.796 578.404 171.2 571.5 171.2C564.596 171.2 559 176.796 559 183.7C559 190.604 564.596 196.2 571.5 196.2Z" fill="#FFC861"/>
<path d="M850.7 318H497.6V398.8H850.7V318Z" fill="white" stroke="#FF8598" stroke-width="2" stroke-miterlimit="10" stroke-linecap="round" stroke-linejoin="round"/>
<path d="M822.2 303.4H526.1V398.9H822.2V303.4Z" fill="white" stroke="#FF8598" stroke-width="2" stroke-miterlimit="10" stroke-linecap="round" stroke-linejoin="round"/>
<path d="M675.1 155.3V152H672.7V155.3H670.8V163.6H671.7V169H675.8V163.6H676.7V155.3H675.1Z" fill="white" stroke="#FF8598" stroke-width="2" stroke-miterlimit="10" stroke-linecap="round" stroke-linejoin="round"/>
<path d="M716 237.1H631.6V276H716V237.1Z" fill="white" stroke="#FF8598" stroke-width="2" stroke-miterlimit="10" stroke-linecap="round" stroke-linejoin="round"/>
<path d="M668.3 173C668.3 170.1 670.7 167.7 673.7 167.7C676.7 167.7 679.1 170.1 679.1 173" fill="white"/>
<path d="M668.3 173C668.3 170.1 670.7 167.7 673.7 167.7C676.7 167.7 679.1 170.1 679.1 173" stroke="#FF8598" stroke-width="2" stroke-miterlimit="10" stroke-linecap="round" stroke-linejoin="round"/>
<path d="M681.1 174.3H666.5V181.6H681.1V174.3Z" fill="white" stroke="#FF8598" stroke-width="2" stroke-miterlimit="10" stroke-linecap="round" stroke-linejoin="round"/>
<path opacity="0.3" d="M681.1 174.3H666.5V181.6H681.1V174.3Z" fill="#FF8598"/>
<path d="M708.8 214.1H638.3V236.9H708.8V214.1Z" fill="white" stroke="#FF8598" stroke-width="2" stroke-miterlimit="10" stroke-linecap="round" stroke-linejoin="round"/>
<path d="M703 219.3H698.5V233.3H703V219.3Z" fill="white" stroke="#FF8598" stroke-width="2" stroke-miterlimit="10" stroke-linecap="round" stroke-linejoin="round"/>
<path d="M692.2 219.3H687.7V233.3H692.2V219.3Z" fill="white" stroke="#FF8598" stroke-width="2" stroke-miterlimit="10" stroke-linecap="round" stroke-linejoin="round"/>
<path d="M681.5 219.3H677V233.3H681.5V219.3Z" fill="white" stroke="#FF8598" stroke-width="2" stroke-miterlimit="10" stroke-linecap="round" stroke-linejoin="round"/>
<path opacity="0.3" d="M703 218.9H698.5V232.9H703V218.9Z" fill="#FF8598"/>
<path opacity="0.3" d="M692.2 218.9H687.7V232.9H692.2V218.9Z" fill="#FF8598"/>
<path opacity="0.3" d="M681.5 218.9H677V232.9H681.5V218.9Z" fill="#FF8598"/>
<path opacity="0.3" d="M670.7 218.9H666.2V232.9H670.7V218.9Z" fill="#FF8598"/>
<path opacity="0.3" d="M659.9 218.9H655.4V232.9H659.9V218.9Z" fill="#FF8598"/>
<path opacity="0.3" d="M649.1 218.9H644.6V232.9H649.1V218.9Z" fill="#FF8598"/>
<path opacity="0.97" d="M670.7 219.3H666.2V233.3H670.7V219.3Z" stroke="#FF8598" stroke-width="2" stroke-miterlimit="10" stroke-linecap="round" stroke-linejoin="round"/>
<path opacity="0.97" d="M659.9 219.3H655.4V233.3H659.9V219.3Z" stroke="#FF8598" stroke-width="2" stroke-miterlimit="10" stroke-linecap="round" stroke-linejoin="round"/>
<path opacity="0.97" d="M649.1 219.3H644.6V233.3H649.1V219.3Z" stroke="#FF8598" stroke-width="2" stroke-miterlimit="10" stroke-linecap="round" stroke-linejoin="round"/>
<path d="M651.7 243.1H637.6V270.3H651.7V243.1Z" fill="white" stroke="#FF8598" stroke-width="2" stroke-miterlimit="10" stroke-linecap="round" stroke-linejoin="round"/>
<path d="M670.7 243.1H656.6V270.3H670.7V243.1Z" fill="white" stroke="#FF8598" stroke-width="2" stroke-miterlimit="10" stroke-linecap="round" stroke-linejoin="round"/>
<path d="M691.1 243.1H677V270.3H691.1V243.1Z" fill="white" stroke="#FF8598" stroke-width="2" stroke-miterlimit="10" stroke-linecap="round" stroke-linejoin="round"/>
<path d="M710.1 243.1H696V270.3H710.1V243.1Z" fill="white" stroke="#FF8598" stroke-width="2" stroke-miterlimit="10" stroke-linecap="round" stroke-linejoin="round"/>
<path opacity="0.3" d="M650 275H642.1C641.2 275 640.4 274.2 640.4 273.3V248.7C640.4 247.8 641.2 247 642.1 247H650C650.9 247 651.7 247.8 651.7 248.7V273.3C651.7 274.3 650.9 275 650 275Z" fill="#FF8598"/>
<path opacity="0.3" d="M668.8 275H660.9C660 275 659.2 274.2 659.2 273.3V248.7C659.2 247.8 660 247 660.9 247H668.8C669.7 247 670.5 247.8 670.5 248.7V273.3C670.5 274.3 669.7 275 668.8 275Z" fill="#FF8598"/>
<path opacity="0.3" d="M689.3 275H681.4C680.5 275 679.7 274.2 679.7 273.3V248.7C679.7 247.8 680.5 247 681.4 247H689.3C690.2 247 691 247.8 691 248.7V273.3C691 274.3 690.2 275 689.3 275Z" fill="#FF8598"/>
<path opacity="0.3" d="M708.1 275H700.2C699.3 275 698.5 274.2 698.5 273.3V248.7C698.5 247.8 699.3 247 700.2 247H708.1C709 247 709.8 247.8 709.8 248.7V273.3C709.8 274.3 709 275 708.1 275Z" fill="#FF8598"/>
<path d="M673.4 181.9C648.4 182.1 642 197 642 212.4H704.1C704.1 197 697.6 182.1 672.7 181.9" fill="white"/>
<path d="M673.4 181.9C648.4 182.1 642 197 642 212.4H704.1C704.1 197 697.6 182.1 672.7 181.9" stroke="#FF8598" stroke-width="2" stroke-miterlimit="10" stroke-linecap="round" stroke-linejoin="round"/>
<path opacity="0.3" d="M674.327 184C650.977 184.184 645 197.862 645 212H703C703 197.862 696.929 184.184 673.673 184" fill="#FF8598"/>
<path d="M743.7 292.2H604.2V307.6H743.7V292.2Z" fill="white" stroke="#FF8598" stroke-width="2" stroke-miterlimit="10" stroke-linecap="round" stroke-linejoin="round"/>
<path d="M737.5 291.5H610.2V275.1L673.2 263L737.5 275.1V291.5Z" fill="white" stroke="#FF8598" stroke-width="2" stroke-miterlimit="10" stroke-linecap="round" stroke-linejoin="round"/>
<path opacity="0.3" d="M735 290C735 291.105 734.105 292 733 292H616C614.895 292 614 291.105 614 290V288.213C614 287.279 614.646 286.47 615.557 286.263L673.462 273.1C673.751 273.034 674.051 273.033 674.34 273.098L733.435 286.268C734.35 286.472 735 287.283 735 288.22V290Z" fill="#FF8598"/>
<path d="M693.6 359.7C692.7 349.9 684.1 342.2 673.7 342.2C663.3 342.2 654.6 349.9 653.8 359.7H653.7V399.2H693.7L693.6 359.7Z" fill="white" stroke="#FF8598" stroke-width="2" stroke-miterlimit="10" stroke-linecap="round" stroke-linejoin="round"/>
<path opacity="0.3" d="M693.6 363.1C692.8 354 685.3 346.8 676.1 346.8C666.9 346.8 659.4 354 658.6 363.1H658.5V399.2H693.6V363.1Z" fill="#FF8598"/>
<path d="M637.7 327.6H599.8V398.8H637.7V327.6Z" fill="white" stroke="#FF8598" stroke-width="2" stroke-miterlimit="10" stroke-linecap="round" stroke-linejoin="round"/>
<path d="M748.5 327.6H710.6V398.8H748.5V327.6Z" fill="white" stroke="#FF8598" stroke-width="2" stroke-miterlimit="10" stroke-linecap="round" stroke-linejoin="round"/>
<path d="M556.9 346.2H543.5C543 346.2 542.6 345.8 542.6 345.3V317C542.6 316.5 543 316.1 543.5 316.1H556.9C557.4 316.1 557.8 316.5 557.8 317V345.2C557.9 345.8 557.4 346.2 556.9 346.2Z" fill="white" stroke="#FF8598" stroke-width="2" stroke-miterlimit="10" stroke-linecap="round" stroke-linejoin="round"/>
<path d="M582.4 346.2H569C568.5 346.2 568.1 345.8 568.1 345.3V317C568.1 316.5 568.5 316.1 569 316.1H582.4C582.9 316.1 583.3 316.5 583.3 317V345.2C583.3 345.8 582.9 346.2 582.4 346.2Z" fill="white" stroke="#FF8598" stroke-width="2" stroke-miterlimit="10" stroke-linecap="round" stroke-linejoin="round"/>
<path opacity="0.3" d="M558 345.3H546.8C546.4 345.3 546 345 546 344.5V320.9C546 320.5 546.3 320.1 546.8 320.1H558C558.4 320.1 558.8 320.4 558.8 320.9V344.5C558.8 344.9 558.5 345.3 558 345.3Z" fill="#FF8598"/>
<path opacity="0.3" d="M583.1 345.3H571.9C571.5 345.3 571.1 345 571.1 344.5V320.9C571.1 320.5 571.4 320.1 571.9 320.1H583.1C583.5 320.1 583.9 320.4 583.9 320.9V344.5C583.8 344.9 583.5 345.3 583.1 345.3Z" fill="#FF8598"/>
<path d="M517.5 353H507.5C507 353 506.6 352.6 506.6 352.1V328.6C506.6 328.1 507 327.7 507.5 327.7H517.5C518 327.7 518.4 328.1 518.4 328.6V352C518.5 352.5 518 353 517.5 353Z" fill="white" stroke="#FF8598" stroke-width="2" stroke-miterlimit="10" stroke-linecap="round" stroke-linejoin="round"/>
<path d="M517.5 390.5H507.5C507 390.5 506.6 390.1 506.6 389.6V366C506.6 365.5 507 365.1 507.5 365.1H517.5C518 365.1 518.4 365.5 518.4 366V389.5C518.5 390 518 390.5 517.5 390.5Z" fill="white" stroke="#FF8598" stroke-width="2" stroke-miterlimit="10" stroke-linecap="round" stroke-linejoin="round"/>
<path opacity="0.3" d="M517.7 352H510.2C509.8 352 509.4 351.7 509.4 351.2V330.5C509.4 330.1 509.7 329.7 510.2 329.7H517.7C518.1 329.7 518.5 330 518.5 330.5V351.2C518.5 351.7 518.1 352 517.7 352Z" fill="#FF8598"/>
<path opacity="0.3" d="M517.7 389.3H510.2C509.8 389.3 509.4 389 509.4 388.5V367.8C509.4 367.4 509.7 367 510.2 367H517.7C518.1 367 518.5 367.3 518.5 367.8V388.5C518.5 388.9 518.1 389.3 517.7 389.3Z" fill="#FF8598"/>
<path d="M623.4 358H613.4C612.9 358 612.5 357.6 612.5 357.1V333.6C612.5 333.1 612.9 332.7 613.4 332.7H623.4C623.9 332.7 624.3 333.1 624.3 333.6V357C624.3 357.5 623.9 358 623.4 358Z" fill="white" stroke="#FF8598" stroke-width="2" stroke-miterlimit="10" stroke-linecap="round" stroke-linejoin="round"/>
<path d="M623.4 394.5H613.4C612.9 394.5 612.5 394.1 612.5 393.6V370C612.5 369.5 612.9 369.1 613.4 369.1H623.4C623.9 369.1 624.3 369.5 624.3 370V393.5C624.3 394 623.9 394.5 623.4 394.5Z" fill="white" stroke="#FF8598" stroke-width="2" stroke-miterlimit="10" stroke-linecap="round" stroke-linejoin="round"/>
<path opacity="0.3" d="M623.5 356H616C615.6 356 615.2 355.7 615.2 355.2V334.5C615.2 334.1 615.5 333.7 616 333.7H623.5C623.9 333.7 624.3 334 624.3 334.5V355.2C624.3 355.7 624 356 623.5 356Z" fill="#FF8598"/>
<path d="M623.4 394.5H613.4C612.9 394.5 612.5 394.1 612.5 393.6V370.1C612.5 369.6 612.9 369.2 613.4 369.2H623.4C623.9 369.2 624.3 369.6 624.3 370.1V393.6C624.3 394.1 623.9 394.5 623.4 394.5Z" fill="white" stroke="#FF8598" stroke-width="2" stroke-miterlimit="10" stroke-linecap="round" stroke-linejoin="round"/>
<path opacity="0.3" d="M623.5 393.3H616C615.6 393.3 615.2 393 615.2 392.5V371.8C615.2 371.4 615.5 371 616 371H623.5C623.9 371 624.3 371.3 624.3 371.8V392.5C624.3 392.9 624 393.3 623.5 393.3Z" fill="#FF8598"/>
<path d="M779.3 346.2H765.9C765.4 346.2 765 345.8 765 345.3V317C765 316.5 765.4 316.1 765.9 316.1H779.3C779.8 316.1 780.2 316.5 780.2 317V345.2C780.3 345.8 779.8 346.2 779.3 346.2Z" fill="white" stroke="#FF8598" stroke-width="2" stroke-miterlimit="10" stroke-linecap="round" stroke-linejoin="round"/>
<path d="M804.8 346.2H791.4C790.9 346.2 790.5 345.8 790.5 345.3V317C790.5 316.5 790.9 316.1 791.4 316.1H804.8C805.3 316.1 805.7 316.5 805.7 317V345.2C805.7 345.8 805.3 346.2 804.8 346.2Z" fill="white" stroke="#FF8598" stroke-width="2" stroke-miterlimit="10" stroke-linecap="round" stroke-linejoin="round"/>
<path opacity="0.3" d="M780.3 345.3H769.1C768.7 345.3 768.3 345 768.3 344.5V320.9C768.3 320.5 768.6 320.1 769.1 320.1H780.3C780.7 320.1 781.1 320.4 781.1 320.9V344.5C781.1 344.9 780.7 345.3 780.3 345.3Z" fill="#FF8598"/>
<path opacity="0.3" d="M805.3 345.3H794.1C793.7 345.3 793.3 345 793.3 344.5V320.9C793.3 320.5 793.6 320.1 794.1 320.1H805.3C805.7 320.1 806.1 320.4 806.1 320.9V344.5C806.1 344.9 805.7 345.3 805.3 345.3Z" fill="#FF8598"/>
<path d="M735 358H725C724.5 358 724.1 357.6 724.1 357.1V333.6C724.1 333.1 724.5 332.7 725 332.7H735C735.5 332.7 735.9 333.1 735.9 333.6V357C735.9 357.5 735.5 358 735 358Z" fill="white" stroke="#FF8598" stroke-width="2" stroke-miterlimit="10" stroke-linecap="round" stroke-linejoin="round"/>
<path d="M735 394.5H725C724.5 394.5 724.1 394.1 724.1 393.6V370C724.1 369.5 724.5 369.1 725 369.1H735C735.5 369.1 735.9 369.5 735.9 370V393.5C735.9 394 735.5 394.5 735 394.5Z" fill="white" stroke="#FF8598" stroke-width="2" stroke-miterlimit="10" stroke-linecap="round" stroke-linejoin="round"/>
<path opacity="0.3" d="M735.2 356H727.7C727.3 356 726.9 355.7 726.9 355.2V334.5C726.9 334.1 727.2 333.7 727.7 333.7H735.2C735.6 333.7 736 334 736 334.5V355.2C735.9 355.7 735.6 356 735.2 356Z" fill="#FF8598"/>
<path d="M735 394.5H725C724.5 394.5 724.1 394.1 724.1 393.6V370.1C724.1 369.6 724.5 369.2 725 369.2H735C735.5 369.2 735.9 369.6 735.9 370.1V393.6C735.9 394.1 735.5 394.5 735 394.5Z" fill="white" stroke="#FF8598" stroke-width="2" stroke-miterlimit="10" stroke-linecap="round" stroke-linejoin="round"/>
<path opacity="0.3" d="M735.2 393.3H727.7C727.3 393.3 726.9 393 726.9 392.5V371.8C726.9 371.4 727.2 371 727.7 371H735.2C735.6 371 736 371.3 736 371.8V392.5C735.9 392.9 735.6 393.3 735.2 393.3Z" fill="#FF8598"/>
<path d="M683 186C693.6 187.3 696.5 198.4 696.5 209.1" stroke="#FF8598" stroke-width="2" stroke-miterlimit="10" stroke-linecap="round" stroke-linejoin="round"/>
<path d="M650.8 209.1C650.8 198.6 653.5 187.7 663.8 186.1" stroke="#FF8598" stroke-width="2" stroke-miterlimit="10" stroke-linecap="round" stroke-linejoin="round"/>
<path d="M665.3 209.1C665.3 198.1 665.8 188 670 186.3" stroke="#FF8598" stroke-width="2" stroke-miterlimit="10" stroke-linecap="round" stroke-linejoin="round"/>
<path d="M682.8 209.1C682.8 198.1 682.3 188 678.1 186.3" stroke="#FF8598" stroke-width="2" stroke-miterlimit="10" stroke-linecap="round" stroke-linejoin="round"/>
<path d="M556.9 386.3H543.5C543 386.3 542.6 385.9 542.6 385.4V357.2C542.6 356.7 543 356.3 543.5 356.3H556.9C557.4 356.3 557.8 356.7 557.8 357.2V385.4C557.9 385.8 557.4 386.3 556.9 386.3Z" fill="white" stroke="#FF8598" stroke-width="2" stroke-miterlimit="10" stroke-linecap="round" stroke-linejoin="round"/>
<path d="M582.4 386.3H569C568.5 386.3 568.1 385.9 568.1 385.4V357.2C568.1 356.7 568.5 356.3 569 356.3H582.4C582.9 356.3 583.3 356.7 583.3 357.2V385.4C583.3 385.8 582.9 386.3 582.4 386.3Z" fill="white" stroke="#FF8598" stroke-width="2" stroke-miterlimit="10" stroke-linecap="round" stroke-linejoin="round"/>
<path opacity="0.3" d="M558 386.1H546.8C546.4 386.1 546 385.8 546 385.3V361.7C546 361.3 546.3 360.9 546.8 360.9H558C558.4 360.9 558.8 361.2 558.8 361.7V385.3C558.8 385.7 558.5 386.1 558 386.1Z" fill="#FF8598"/>
<path opacity="0.3" d="M583.1 386.1H571.9C571.5 386.1 571.1 385.8 571.1 385.3V361.7C571.1 361.3 571.4 360.9 571.9 360.9H583.1C583.5 360.9 583.9 361.2 583.9 361.7V385.3C583.8 385.7 583.5 386.1 583.1 386.1Z" fill="#FF8598"/>
<path d="M779.3 386.3H765.9C765.4 386.3 765 385.9 765 385.4V357.2C765 356.7 765.4 356.3 765.9 356.3H779.3C779.8 356.3 780.2 356.7 780.2 357.2V385.4C780.3 385.8 779.8 386.3 779.3 386.3Z" fill="white" stroke="#FF8598" stroke-width="2" stroke-miterlimit="10" stroke-linecap="round" stroke-linejoin="round"/>
<path d="M804.8 386.3H791.4C790.9 386.3 790.5 385.9 790.5 385.4V357.2C790.5 356.7 790.9 356.3 791.4 356.3H804.8C805.3 356.3 805.7 356.7 805.7 357.2V385.4C805.7 385.8 805.3 386.3 804.8 386.3Z" fill="white" stroke="#FF8598" stroke-width="2" stroke-miterlimit="10" stroke-linecap="round" stroke-linejoin="round"/>
<path opacity="0.3" d="M780.3 386.1H769.1C768.7 386.1 768.3 385.8 768.3 385.3V361.7C768.3 361.3 768.6 360.9 769.1 360.9H780.3C780.7 360.9 781.1 361.2 781.1 361.7V385.3C781.1 385.7 780.7 386.1 780.3 386.1Z" fill="#FF8598"/>
<path opacity="0.3" d="M805.3 386.1H794.1C793.7 386.1 793.3 385.8 793.3 385.3V361.7C793.3 361.3 793.6 360.9 794.1 360.9H805.3C805.7 360.9 806.1 361.2 806.1 361.7V385.3C806.1 385.7 805.7 386.1 805.3 386.1Z" fill="#FF8598"/>
<path d="M755 308H596V329H755V308Z" fill="white" stroke="#FF8598" stroke-width="2" stroke-miterlimit="10" stroke-linecap="round" stroke-linejoin="round"/>
<path d="M621.7 313.3H608.8V322.9H621.7V313.3Z" fill="white" stroke="#FF8598" stroke-width="2" stroke-miterlimit="10" stroke-linecap="round" stroke-linejoin="round"/>
<path d="M645.2 313.3H632.3V322.9H645.2V313.3Z" fill="white" stroke="#FF8598" stroke-width="2" stroke-miterlimit="10" stroke-linecap="round" stroke-linejoin="round"/>
<path d="M668.7 313.3H655.8V322.9H668.7V313.3Z" fill="white" stroke="#FF8598" stroke-width="2" stroke-miterlimit="10" stroke-linecap="round" stroke-linejoin="round"/>
<path d="M692.1 313.3H679.2V322.9H692.1V313.3Z" fill="white" stroke="#FF8598" stroke-width="2" stroke-miterlimit="10" stroke-linecap="round" stroke-linejoin="round"/>
<path d="M715.6 313.3H702.7V322.9H715.6V313.3Z" fill="white" stroke="#FF8598" stroke-width="2" stroke-miterlimit="10" stroke-linecap="round" stroke-linejoin="round"/>
<path d="M739.1 313.3H726.2V322.9H739.1V313.3Z" fill="white" stroke="#FF8598" stroke-width="2" stroke-miterlimit="10" stroke-linecap="round" stroke-linejoin="round"/>
<path opacity="0.3" d="M621.8 321.9H613.4C612.9 321.9 612.5 321.5 612.5 321V315.7C612.5 315.2 612.9 314.8 613.4 314.8H621.8C622.3 314.8 622.7 315.2 622.7 315.7V321C622.7 321.5 622.3 321.9 621.8 321.9Z" fill="#FF8598"/>
<path opacity="0.3" d="M644.9 321.9H636.5C636 321.9 635.6 321.5 635.6 321V315.7C635.6 315.2 636 314.8 636.5 314.8H644.9C645.4 314.8 645.8 315.2 645.8 315.7V321C645.8 321.5 645.4 321.9 644.9 321.9Z" fill="#FF8598"/>
<path opacity="0.3" d="M668 321.9H659.6C659.1 321.9 658.7 321.5 658.7 321V315.7C658.7 315.2 659.1 314.8 659.6 314.8H668C668.5 314.8 668.9 315.2 668.9 315.7V321C668.9 321.5 668.5 321.9 668 321.9Z" fill="#FF8598"/>
<path opacity="0.3" d="M691 321.9H682.6C682.1 321.9 681.7 321.5 681.7 321V315.7C681.7 315.2 682.1 314.8 682.6 314.8H691C691.5 314.8 691.9 315.2 691.9 315.7V321C692 321.5 691.6 321.9 691 321.9Z" fill="#FF8598"/>
<path opacity="0.3" d="M715.1 321.9H706.7C706.2 321.9 705.8 321.5 705.8 321V315.7C705.8 315.2 706.2 314.8 706.7 314.8H715.1C715.6 314.8 716 315.2 716 315.7V321C716 321.5 715.6 321.9 715.1 321.9Z" fill="#FF8598"/>
<path opacity="0.3" d="M738.2 321.9H729.8C729.3 321.9 728.9 321.5 728.9 321V315.7C728.9 315.2 729.3 314.8 729.8 314.8H738.2C738.7 314.8 739.1 315.2 739.1 315.7V321C739.1 321.5 738.7 321.9 738.2 321.9Z" fill="#FF8598"/>
<path d="M840.9 352.3H830.9C830.4 352.3 830 351.9 830 351.4V327.9C830 327.4 830.4 327 830.9 327H840.9C841.4 327 841.8 327.4 841.8 327.9V351.3C841.9 351.8 841.4 352.3 840.9 352.3Z" fill="white" stroke="#FF8598" stroke-width="2" stroke-miterlimit="10" stroke-linecap="round" stroke-linejoin="round"/>
<path d="M840.9 389.8H830.9C830.4 389.8 830 389.4 830 388.9V365.3C830 364.8 830.4 364.4 830.9 364.4H840.9C841.4 364.4 841.8 364.8 841.8 365.3V388.8C841.9 389.3 841.4 389.8 840.9 389.8Z" fill="white" stroke="#FF8598" stroke-width="2" stroke-miterlimit="10" stroke-linecap="round" stroke-linejoin="round"/>
<path opacity="0.3" d="M841.1 351.3H833.6C833.2 351.3 832.8 351 832.8 350.5V329.8C832.8 329.4 833.1 329 833.6 329H841.1C841.5 329 841.9 329.3 841.9 329.8V350.5C841.9 351 841.5 351.3 841.1 351.3Z" fill="#FF8598"/>
<path opacity="0.3" d="M841.1 388.6H833.6C833.2 388.6 832.8 388.3 832.8 387.8V367.1C832.8 366.7 833.1 366.3 833.6 366.3H841.1C841.5 366.3 841.9 366.6 841.9 367.1V387.8C841.9 388.2 841.5 388.6 841.1 388.6Z" fill="#FF8598"/>
</g>
<defs>
<clipPath id="clip0_594_33848">
<rect width="1280" height="400" fill="white"/>
</clipPath>
</defs>
</svg>
